<svg xmlns="http://www.w3.org/2000/svg" viewBox="0 0 1200 240" width="1200" height="240"><rect width="1200" height="240" fill="white"/><polyline points="0.00,120.00 2.00,120.00 4.01,120.00 6.01,120.00 8.01,120.00 10.02,120.00 12.02,120.00 14.02,120.00 16.03,120.00 18.03,120.00 20.03,120.00 22.04,120.00 24.04,120.00 26.04,120.00 28.05,120.00 30.05,120.00 32.05,120.00 34.06,120.00 36.06,120.00 38.06,120.00 40.07,120.00 42.07,120.00 44.07,120.00 46.08,120.00 48.08,120.00 50.08,120.00 52.09,120.00 54.09,120.00 56.09,120.00 58.10,120.00 60.10,120.00 62.10,120.00 64.11,120.00 66.11,120.00 68.11,120.00 70.12,120.00 72.12,120.00 74.12,120.00 76.13,120.00 78.13,120.00 80.13,120.00 82.14,120.00 84.14,120.00 86.14,120.00 88.15,120.00 90.15,120.00 92.15,120.00 94.16,120.00 96.16,120.00 98.16,120.00 100.17,120.00 102.17,120.00 104.17,120.00 106.18,120.00 108.18,120.00 110.18,120.00 112.19,120.00 114.19,120.00 116.19,120.00 118.20,120.00 120.20,120.00 122.20,120.00 124.21,120.00 126.21,120.00 128.21,120.00 130.22,120.00 132.22,120.00 134.22,120.00 136.23,120.00 138.23,120.00 140.23,120.00 142.24,120.00 144.24,120.00 146.24,120.00 148.25,120.00 150.25,120.00 152.25,120.00 154.26,120.00 156.26,120.00 158.26,120.00 160.27,120.00 162.27,120.00 164.27,120.00 166.28,120.00 168.28,120.00 170.28,120.00 172.29,120.00 174.29,120.00 176.29,120.00 178.30,120.00 180.30,120.00 182.30,120.00 184.31,120.00 186.31,120.00 188.31,120.00 190.32,120.00 192.32,120.00 194.32,120.00 196.33,120.00 198.33,120.00 200.33,120.00 202.34,120.00 204.34,120.00 206.34,120.00 208.35,120.00 210.35,120.00 212.35,120.00 214.36,120.00 216.36,120.00 218.36,120.00 220.37,120.00 222.37,120.00 224.37,120.00 226.38,120.00 228.38,120.00 230.38,120.00 232.39,120.00 234.39,120.00 236.39,120.00 238.40,120.00 240.40,120.00 242.40,120.00 244.41,120.00 246.41,120.00 248.41,120.00 250.42,120.00 252.42,120.00 254.42,120.00 256.43,120.00 258.43,120.00 260.43,120.00 262.44,120.00 264.44,120.00 266.44,120.00 268.45,120.00 270.45,120.00 272.45,120.00 274.46,120.00 276.46,120.00 278.46,120.00 280.47,120.00 282.47,120.00 284.47,120.00 286.48,120.00 288.48,120.00 290.48,120.00 292.49,120.00 294.49,120.00 296.49,120.00 298.50,120.00 300.50,120.00 302.50,120.00 304.51,120.00 306.51,120.00 308.51,120.00 310.52,120.00 312.52,120.00 314.52,120.00 316.53,120.00 318.53,120.00 320.53,120.00 322.54,120.00 324.54,120.00 326.54,120.00 328.55,120.00 330.55,120.00 332.55,120.00 334.56,120.00 336.56,120.00 338.56,120.00 340.57,120.00 342.57,120.00 344.57,120.00 346.58,120.00 348.58,120.00 350.58,120.00 352.59,120.00 354.59,120.00 356.59,120.00 358.60,120.00 360.60,120.00 362.60,120.00 364.61,120.00 366.61,120.00 368.61,120.00 370.62,120.00 372.62,120.00 374.62,120.00 376.63,120.00 378.63,120.00 380.63,120.00 382.64,120.00 384.64,120.00 386.64,120.00 388.65,120.00 390.65,120.00 392.65,120.00 394.66,120.00 396.66,120.00 398.66,120.00 400.67,120.00 402.67,120.00 404.67,120.00 406.68,120.00 408.68,120.00 410.68,120.00 412.69,120.00 414.69,120.00 416.69,120.00 418.70,120.00 420.70,120.00 422.70,120.00 424.71,120.00 426.71,120.00 428.71,120.00 430.72,120.00 432.72,120.00 434.72,120.00 436.73,120.00 438.73,120.00 440.73,120.00 442.74,120.00 444.74,120.00 446.74,120.00 448.75,120.00 450.75,120.00 452.75,120.00 454.76,120.00 456.76,120.00 458.76,120.00 460.77,120.00 462.77,120.00 464.77,120.00 466.78,120.00 468.78,120.00 470.78,120.00 472.79,120.00 474.79,120.00 476.79,120.00 478.80,120.00 480.80,120.00 482.80,120.00 484.81,120.00 486.81,120.00 488.81,120.00 490.82,120.00 492.82,120.00 494.82,120.00 496.83,120.00 498.83,120.00 500.83,120.00 502.84,120.00 504.84,120.00 506.84,120.00 508.85,120.00 510.85,120.00 512.85,120.00 514.86,120.00 516.86,120.00 518.86,120.00 520.87,120.00 522.87,120.00 524.87,120.00 526.88,120.00 528.88,120.00 530.88,120.00 532.89,120.00 534.89,120.00 536.89,120.00 538.90,120.00 540.90,120.00 542.90,120.00 544.91,120.00 546.91,120.00 548.91,120.00 550.92,120.00 552.92,120.00 554.92,120.00 556.93,120.00 558.93,120.00 560.93,120.00 562.94,120.00 564.94,120.00 566.94,120.00 568.95,120.00 570.95,120.00 572.95,120.00 574.96,120.00 576.96,120.00 578.96,120.00 580.97,120.00 582.97,120.00 584.97,120.00 586.98,120.00 588.98,120.00 590.98,120.00 592.99,120.00 594.99,120.00 596.99,120.00 599.00,120.00 601.00,120.00 603.01,120.00 605.01,120.00 607.01,120.00 609.02,120.00 611.02,120.00 613.02,120.00 615.03,120.00 617.03,120.00 619.03,120.00 621.04,120.00 623.04,120.00 625.04,120.00 627.05,120.00 629.05,120.00 631.05,120.00 633.06,120.00 635.06,120.00 637.06,120.00 639.07,120.00 641.07,120.00 643.07,120.00 645.08,120.00 647.08,120.00 649.08,120.00 651.09,120.00 653.09,120.00 655.09,120.00 657.10,120.00 659.10,120.00 661.10,120.00 663.11,120.00 665.11,120.00 667.11,120.00 669.12,120.00 671.12,120.00 673.12,120.00 675.13,120.00 677.13,120.00 679.13,120.00 681.14,120.00 683.14,120.00 685.14,120.00 687.15,120.00 689.15,120.00 691.15,120.00 693.16,120.00 695.16,120.00 697.16,120.00 699.17,120.00 701.17,120.00 703.17,120.00 705.18,120.00 707.18,120.00 709.18,120.00 711.19,120.00 713.19,120.00 715.19,120.00 717.20,120.00 719.20,120.00 721.20,120.00 723.21,120.00 725.21,120.00 727.21,120.00 729.22,120.00 731.22,120.00 733.22,120.00 735.23,120.00 737.23,120.00 739.23,120.00 741.24,120.00 743.24,120.00 745.24,120.00 747.25,120.00 749.25,120.00 751.25,120.00 753.26,120.00 755.26,120.00 757.26,120.00 759.27,120.00 761.27,120.00 763.27,120.00 765.28,120.00 767.28,120.00 769.28,120.00 771.29,120.00 773.29,120.00 775.29,120.00 777.30,120.00 779.30,120.00 781.30,120.00 783.31,120.00 785.31,120.00 787.31,120.00 789.32,120.00 791.32,120.00 793.32,120.00 795.33,120.00 797.33,120.00 799.33,120.00 801.34,120.00 803.34,120.00 805.34,120.00 807.35,120.00 809.35,120.00 811.35,120.00 813.36,120.00 815.36,120.00 817.36,120.00 819.37,120.00 821.37,120.00 823.37,120.00 825.38,120.00 827.38,120.00 829.38,120.00 831.39,120.00 833.39,120.00 835.39,120.00 837.40,120.00 839.40,120.00 841.40,120.00 843.41,120.00 845.41,120.00 847.41,120.00 849.42,120.00 851.42,120.00 853.42,120.00 855.43,120.00 857.43,120.00 859.43,120.00 861.44,120.00 863.44,120.00 865.44,120.00 867.45,120.00 869.45,120.00 871.45,120.00 873.46,120.00 875.46,120.00 877.46,120.00 879.47,120.00 881.47,120.00 883.47,120.00 885.48,120.00 887.48,120.00 889.48,120.00 891.49,120.00 893.49,120.00 895.49,120.00 897.50,120.00 899.50,120.00 901.50,120.00 903.51,120.00 905.51,120.00 907.51,120.00 909.52,120.00 911.52,120.00 913.52,120.00 915.53,120.00 917.53,120.00 919.53,120.00 921.54,120.00 923.54,120.00 925.54,120.00 927.55,120.00 929.55,120.00 931.55,120.00 933.56,120.00 935.56,120.00 937.56,120.00 939.57,120.00 941.57,120.00 943.57,120.00 945.58,120.00 947.58,120.00 949.58,120.00 951.59,120.00 953.59,120.00 955.59,120.00 957.60,120.00 959.60,120.00 961.60,120.00 963.61,120.00 965.61,120.00 967.61,120.00 969.62,120.00 971.62,120.00 973.62,120.00 975.63,120.00 977.63,120.00 979.63,120.00 981.64,120.00 983.64,120.00 985.64,120.00 987.65,120.00 989.65,120.00 991.65,120.00 993.66,120.00 995.66,120.00 997.66,120.00 999.67,120.00 1001.67,120.00 1003.67,120.00 1005.68,120.00 1007.68,120.00 1009.68,120.00 1011.69,120.00 1013.69,120.00 1015.69,120.00 1017.70,120.00 1019.70,120.00 1021.70,120.00 1023.71,120.00 1025.71,120.00 1027.71,120.00 1029.72,120.00 1031.72,120.00 1033.72,120.00 1035.73,120.00 1037.73,120.00 1039.73,120.00 1041.74,120.00 1043.74,120.00 1045.74,120.00 1047.75,120.00 1049.75,120.00 1051.75,120.00 1053.76,120.00 1055.76,120.00 1057.76,120.00 1059.77,120.00 1061.77,120.00 1063.77,120.00 1065.78,120.00 1067.78,120.00 1069.78,120.00 1071.79,120.00 1073.79,120.00 1075.79,120.00 1077.80,120.00 1079.80,120.00 1081.80,120.00 1083.81,120.00 1085.81,120.00 1087.81,120.00 1089.82,120.00 1091.82,120.00 1093.82,120.00 1095.83,120.00 1097.83,120.00 1099.83,120.00 1101.84,120.00 1103.84,120.00 1105.84,120.00 1107.85,120.00 1109.85,120.00 1111.85,120.00 1113.86,120.00 1115.86,120.00 1117.86,120.00 1119.87,120.00 1121.87,120.00 1123.87,120.00 1125.88,120.00 1127.88,120.00 1129.88,120.00 1131.89,120.00 1133.89,120.00 1135.89,120.00 1137.90,120.00 1139.90,120.00 1141.90,120.00 1143.91,120.00 1145.91,120.00 1147.91,120.00 1149.92,120.00 1151.92,120.00 1153.92,120.00 1155.93,120.00 1157.93,120.00 1159.93,120.00 1161.94,120.00 1163.94,120.00 1165.94,120.00 1167.95,120.00 1169.95,120.00 1171.95,120.00 1173.96,120.00 1175.96,120.00 1177.96,120.00 1179.97,120.00 1181.97,120.00 1183.97,120.00 1185.98,120.00 1187.98,120.00 1189.98,120.00 1191.99,120.00 1193.99,120.00 1195.99,120.00 1198.00,120.00 1200.00,120.00" fill="none" stroke="black" stroke-width="3" stroke-linecap="round" stroke-linejoin="round"/></svg>