<svg xmlns="http://www.w3.org/2000/svg" viewBox="0 0 1200 240" width="1200" height="240"><rect width="1200" height="240" fill="white"/><polyline points="0.00,120.00 2.00,113.16 4.01,106.54 6.01,100.38 8.01,93.46 10.02,87.57 12.02,81.35 14.02,73.11 16.03,70.39 18.03,63.98 20.03,60.26 22.04,54.69 24.04,48.95 26.04,48.13 28.05,44.66 30.05,40.44 32.05,38.65 34.06,37.17 36.06,36.16 38.06,36.24 40.07,36.05 42.07,37.49 44.07,37.98 46.08,40.85 48.08,44.72 50.08,43.85 52.09,52.26 54.09,49.36 56.09,61.44 58.10,57.94 60.10,62.72 62.10,67.80 64.11,70.86 66.11,79.45 68.11,93.79 70.12,92.59 72.12,100.22 74.12,101.42 76.13,122.55 78.13,129.23 80.13,133.86 82.14,132.29 84.14,153.09 86.14,147.92 88.15,156.89 90.15,157.02 92.15,177.10 94.16,176.66 96.16,175.69 98.16,180.46 100.17,186.52 102.17,190.48 104.17,196.47 106.18,195.67 108.18,201.65 110.18,203.30 112.19,200.39 114.19,203.71 116.19,202.81 118.20,203.56 120.20,201.42 122.20,200.90 124.21,198.01 126.21,197.10 128.21,197.60 130.22,191.88 132.22,178.16 134.22,182.05 136.23,172.49 138.23,183.43 140.23,148.54 142.24,168.79 144.24,160.53 146.24,153.92 148.25,124.28 150.25,123.03 152.25,132.97 154.26,133.03 156.26,100.00 158.26,125.56 160.27,106.82 162.27,90.34 164.27,82.95 166.28,97.54 168.28,63.65 170.28,76.52 172.29,62.86 174.29,68.46 176.29,67.60 178.30,47.98 180.30,50.92 182.30,53.73 184.31,45.94 186.31,36.00 188.31,38.26 190.32,36.27 192.32,38.82 194.32,36.75 196.33,38.65 198.33,40.56 200.33,39.92 202.34,48.33 204.34,38.02 206.34,59.46 208.35,60.35 210.35,58.67 212.35,69.76 214.36,65.68 216.36,75.95 218.36,61.99 220.37,61.46 222.37,73.15 224.37,115.69 226.38,87.10 228.38,114.61 230.38,115.60 232.39,121.51 234.39,133.42 236.39,144.19 238.40,120.82 240.40,131.76 242.40,126.89 244.41,186.37 246.41,166.45 248.41,188.26 250.42,170.54 252.42,182.29 254.42,201.45 256.43,202.81 258.43,203.01 260.43,203.89 262.44,202.75 264.44,204.00 266.44,203.91 268.45,202.68 270.45,200.61 272.45,201.71 274.46,203.34 276.46,203.77 278.46,200.35 280.47,204.00 282.47,175.76 284.47,184.49 286.48,196.17 288.48,179.11 290.48,174.44 292.49,136.20 294.49,147.12 296.49,164.81 298.50,175.20 300.50,134.06 302.50,146.73 304.51,165.83 306.51,144.17 308.51,104.53 310.52,126.81 312.52,131.41 314.52,122.43 316.53,70.93 318.53,68.62 320.53,102.27 322.54,105.26 324.54,44.70 326.54,77.60 328.55,38.30 330.55,40.79 332.55,80.42 334.56,40.05 336.56,36.55 338.56,51.14 340.57,36.04 342.57,42.75 344.57,48.34 346.58,47.84 348.58,38.41 350.58,36.41 352.59,47.94 354.59,48.48 356.59,36.81 358.60,44.25 360.60,41.24 362.60,70.25 364.61,58.70 366.61,46.54 368.61,84.51 370.62,115.57 372.62,68.77 374.62,58.59 376.63,56.73 378.63,140.29 380.63,67.93 382.64,138.11 384.64,114.44 386.64,104.28 388.65,103.15 390.65,122.56 392.65,126.29 394.66,185.87 396.66,134.70 398.66,176.89 400.67,170.75 402.67,181.97 404.67,167.52 406.68,202.49 408.68,175.86 410.68,193.74 412.69,178.71 414.69,200.88 416.69,171.34 418.70,202.16 420.70,198.43 422.70,203.00 424.71,203.25 426.71,195.30 428.71,190.40 430.72,203.82 432.72,203.79 434.72,202.74 436.73,203.99 438.73,198.70 440.73,200.20 442.74,145.92 444.74,128.22 446.74,182.68 448.75,194.72 450.75,196.49 452.75,179.42 454.76,105.66 456.76,101.34 458.76,127.80 460.77,109.61 462.77,84.62 464.77,163.32 466.78,148.72 468.78,54.57 470.78,55.79 472.79,80.91 474.79,121.40 476.79,39.78 478.80,50.27 480.80,74.22 482.80,68.54 484.81,65.41 486.81,51.68 488.81,48.94 490.82,52.57 492.82,36.01 494.82,36.21 496.83,40.48 498.83,37.99 500.83,53.23 502.84,51.74 504.84,51.25 506.84,38.43 508.85,65.45 510.85,37.87 512.85,38.03 514.86,36.13 516.86,80.43 518.86,115.39 520.87,108.41 522.87,91.65 524.87,104.59 526.88,133.49 528.88,109.86 530.88,93.90 532.89,60.76 534.89,86.69 536.89,81.30 538.90,130.42 540.90,146.03 542.90,84.93 544.91,182.69 546.91,195.92 548.91,136.39 550.92,173.44 552.92,136.33 554.92,199.87 556.93,193.48 558.93,164.15 560.93,203.72 562.94,189.94 564.94,178.59 566.94,190.53 568.95,153.87 570.95,189.14 572.95,203.99 574.96,182.34 576.96,176.69 578.96,197.90 580.97,203.84 582.97,201.19 584.97,167.26 586.98,199.33 588.98,159.85 590.98,201.70 592.99,141.82 594.99,202.07 596.99,192.76 599.00,106.46 601.00,195.41 603.01,203.03 605.01,85.70 607.01,155.63 609.02,152.81 611.02,177.73 613.02,75.78 615.03,92.05 617.03,49.69 619.03,92.14 621.04,59.68 623.04,40.95 625.04,102.11 627.05,41.38 629.05,124.27 631.05,112.83 633.06,62.57 635.06,39.78 637.06,38.72 639.07,42.46 641.07,106.38 643.07,46.21 645.08,38.38 647.08,75.69 649.08,55.18 651.09,61.15 653.09,54.21 655.09,68.08 657.10,80.97 659.10,40.51 661.10,58.87 663.11,75.47 665.11,47.14 667.11,38.39 669.12,46.86 671.12,123.27 673.12,61.72 675.13,47.50 677.13,63.50 679.13,89.60 681.14,59.69 683.14,155.52 685.14,156.34 687.15,41.33 689.15,64.97 691.15,183.41 693.16,190.79 695.16,69.49 697.16,182.35 699.17,139.15 701.17,81.48 703.17,81.87 705.18,78.42 707.18,196.39 709.18,192.94 711.19,187.49 713.19,170.26 715.19,113.91 717.20,203.80 719.20,190.58 721.20,155.42 723.21,184.45 725.21,186.32 727.21,190.37 729.22,163.17 731.22,171.25 733.22,202.90 735.23,190.88 737.23,202.42 739.23,183.47 741.24,200.88 743.24,132.57 745.24,199.86 747.25,196.27 749.25,173.99 751.25,131.54 753.26,122.47 755.26,94.51 757.26,132.84 759.27,98.13 761.27,175.80 763.27,58.56 765.28,135.65 767.28,173.39 769.28,184.13 771.29,102.92 773.29,66.10 775.29,153.56 777.30,36.85 779.30,96.04 781.30,125.64 783.31,48.47 785.31,135.87 787.31,37.17 789.32,36.63 791.32,57.72 793.32,122.61 795.33,46.32 797.33,36.00 799.33,67.13 801.34,56.64 803.34,66.17 805.34,40.99 807.35,86.29 809.35,37.59 811.35,36.12 813.36,40.60 815.36,40.46 817.36,36.47 819.37,42.02 821.37,58.65 823.37,112.00 825.38,45.70 827.38,40.63 829.38,161.32 831.39,39.40 833.39,63.37 835.39,120.42 837.40,180.56 839.40,53.39 841.40,180.73 843.41,60.27 845.41,48.87 847.41,152.52 849.42,128.46 851.42,92.32 853.42,49.44 855.43,174.45 857.43,173.56 859.43,203.93 861.44,202.78 863.44,152.34 865.44,163.58 867.45,185.34 869.45,123.87 871.45,204.00 873.46,190.75 875.46,185.63 877.46,147.19 879.47,181.45 881.47,176.93 883.47,202.93 885.48,178.37 887.48,197.14 889.48,163.30 891.49,164.19 893.49,195.45 895.49,181.45 897.50,197.94 899.50,193.63 901.50,193.11 903.51,87.61 905.51,119.56 907.51,201.36 909.52,61.16 911.52,60.24 913.52,79.60 915.53,107.19 917.53,43.94 919.53,201.53 921.54,151.11 923.54,37.26 925.54,87.83 927.55,194.17 929.55,155.86 931.55,92.19 933.56,180.18 935.56,76.90 937.56,70.28 939.57,105.69 941.57,123.69 943.57,36.19 945.58,122.35 947.58,71.32 949.58,41.73 951.59,38.33 953.59,72.76 955.59,51.05 957.60,89.98 959.60,49.58 961.60,103.55 963.61,39.58 965.61,36.01 967.61,83.82 969.62,48.81 971.62,81.00 973.62,42.52 975.63,36.02 977.63,63.48 979.63,49.31 981.64,36.95 983.64,158.50 985.64,84.20 987.65,113.31 989.65,126.29 991.65,36.58 993.66,48.31 995.66,99.62 997.66,61.67 999.67,44.50 1001.67,47.66 1003.67,93.86 1005.68,177.68 1007.68,156.13 1009.68,92.75 1011.69,194.94 1013.69,70.38 1015.69,203.77 1017.70,192.26 1019.70,203.97 1021.70,200.11 1023.71,192.45 1025.71,177.04 1027.71,160.17 1029.72,95.50 1031.72,138.77 1033.72,190.55 1035.73,119.88 1037.73,203.98 1039.73,202.43 1041.74,168.62 1043.74,179.41 1045.74,181.92 1047.75,191.03 1049.75,178.10 1051.75,167.27 1053.76,184.91 1055.76,199.74 1057.76,202.19 1059.77,204.00 1061.77,176.28 1063.77,48.01 1065.78,161.78 1067.78,49.26 1069.78,199.00 1071.79,174.86 1073.79,187.90 1075.79,129.57 1077.80,37.43 1079.80,178.34 1081.80,37.58 1083.81,41.69 1085.81,38.03 1087.81,151.16 1089.82,76.44 1091.82,40.15 1093.82,178.84 1095.83,92.05 1097.83,180.07 1099.83,66.59 1101.84,147.68 1103.84,98.36 1105.84,143.09 1107.85,37.34 1109.85,36.20 1111.85,36.12 1113.86,45.43 1115.86,62.09 1117.86,49.22 1119.87,133.89 1121.87,127.83 1123.87,36.21 1125.88,159.53 1127.88,57.04 1129.88,88.74 1131.89,81.42 1133.89,52.72 1135.89,61.78 1137.90,87.35 1139.90,38.64 1141.90,36.33 1143.91,51.76 1145.91,158.01 1147.91,85.00 1149.92,94.99 1151.92,145.19 1153.92,39.28 1155.93,40.01 1157.93,183.36 1159.93,36.02 1161.94,176.54 1163.94,154.28 1165.94,183.33 1167.95,193.83 1169.95,195.17 1171.95,75.46 1173.96,118.63 1175.96,193.74 1177.96,172.21 1179.97,203.69 1181.97,122.19 1183.97,191.55 1185.98,186.02 1187.98,129.08 1189.98,185.40 1191.99,125.39 1193.99,194.45 1195.99,116.34 1198.00,132.42 1200.00,160.37" fill="none" stroke="black" stroke-width="3" stroke-linecap="round" stroke-linejoin="round"/></svg>