<svg xmlns="http://www.w3.org/2000/svg" viewBox="0 0 1200 240" width="1200" height="240"><rect width="1200" height="240" fill="white"/><polyline points="0.00,120.00 2.00,113.28 4.01,106.35 6.01,99.17 8.01,92.11 10.02,86.19 12.02,80.36 14.02,75.71 16.03,69.90 18.03,63.45 20.03,57.67 22.04,55.34 24.04,51.76 26.04,45.68 28.05,42.51 30.05,41.71 32.05,39.28 34.06,37.12 36.06,36.69 38.06,36.00 40.07,36.16 42.07,37.43 44.07,37.54 46.08,38.51 48.08,44.11 50.08,43.74 52.09,47.85 54.09,52.31 56.09,57.40 58.10,57.75 60.10,63.29 62.10,70.61 64.11,76.43 66.11,89.22 68.11,88.12 70.12,91.44 72.12,96.06 74.12,113.25 76.13,117.36 78.13,118.33 80.13,138.90 82.14,141.46 84.14,146.48 86.14,144.76 88.15,157.23 90.15,171.51 92.15,167.45 94.16,170.89 96.16,186.91 98.16,189.48 100.17,185.35 102.17,186.63 104.17,199.19 106.18,192.53 108.18,202.40 110.18,198.24 112.19,200.67 114.19,203.89 116.19,203.76 118.20,203.92 120.20,198.92 122.20,198.59 124.21,193.77 126.21,192.65 128.21,191.98 130.22,179.69 132.22,174.15 134.22,174.63 136.23,165.54 138.23,165.70 140.23,161.93 142.24,166.18 144.24,167.29 146.24,141.35 148.25,152.30 150.25,121.47 152.25,120.48 154.26,104.23 156.26,122.08 158.26,114.12 160.27,91.75 162.27,102.42 164.27,90.89 166.28,92.97 168.28,88.88 170.28,63.39 172.29,59.90 174.29,71.63 176.29,60.16 178.30,54.07 180.30,42.52 182.30,37.81 184.31,41.54 186.31,42.65 188.31,36.01 190.32,36.01 192.32,36.24 194.32,36.04 196.33,39.07 198.33,36.01 200.33,49.65 202.34,41.00 204.34,53.72 206.34,53.14 208.35,42.30 210.35,57.30 212.35,52.59 214.36,54.30 216.36,73.40 218.36,80.60 220.37,82.53 222.37,97.95 224.37,113.34 226.38,95.07 228.38,94.51 230.38,126.65 232.39,103.40 234.39,120.01 236.39,151.55 238.40,118.26 240.40,154.46 242.40,166.58 244.41,181.89 246.41,178.28 248.41,189.31 250.42,190.54 252.42,196.27 254.42,201.37 256.43,202.43 258.43,198.38 260.43,196.88 262.44,187.57 264.44,203.60 266.44,202.71 268.45,203.85 270.45,202.89 272.45,199.99 274.46,192.73 276.46,203.77 278.46,190.60 280.47,201.96 282.47,201.15 284.47,167.45 286.48,177.62 288.48,165.04 290.48,170.03 292.49,164.38 294.49,167.02 296.49,136.41 298.50,163.81 300.50,118.11 302.50,134.07 304.51,128.04 306.51,94.62 308.51,129.95 310.52,108.00 312.52,111.44 314.52,102.29 316.53,74.78 318.53,68.30 320.53,65.31 322.54,67.80 324.54,48.57 326.54,91.17 328.55,75.75 330.55,63.41 332.55,76.42 334.56,65.01 336.56,57.75 338.56,36.02 340.57,48.61 342.57,36.75 344.57,36.93 346.58,40.38 348.58,39.68 350.58,37.30 352.59,42.22 354.59,48.53 356.59,37.90 358.60,42.43 360.60,36.52 362.60,40.04 364.61,97.37 366.61,39.27 368.61,41.18 370.62,50.66 372.62,45.43 374.62,78.80 376.63,101.98 378.63,62.23 380.63,65.67 382.64,121.78 384.64,140.37 386.64,167.27 388.65,84.72 390.65,149.86 392.65,176.06 394.66,162.55 396.66,179.47 398.66,124.38 400.67,126.75 402.67,130.58 404.67,198.35 406.68,150.06 408.68,190.52 410.68,173.80 412.69,170.87 414.69,195.56 416.69,203.90 418.70,201.53 420.70,200.56 422.70,202.98 424.71,190.12 426.71,203.16 428.71,195.46 430.72,202.92 432.72,190.93 434.72,172.70 436.73,181.23 438.73,162.94 440.73,189.63 442.74,198.81 444.74,130.44 446.74,126.82 448.75,171.65 450.75,190.32 452.75,184.37 454.76,152.85 456.76,148.03 458.76,136.62 460.77,125.47 462.77,142.34 464.77,87.21 466.78,146.45 468.78,69.94 470.78,129.94 472.79,103.28 474.79,103.57 476.79,126.96 478.80,73.19 480.80,36.48 482.80,38.28 484.81,55.19 486.81,52.42 488.81,67.09 490.82,36.02 492.82,55.55 494.82,49.25 496.83,38.06 498.83,36.00 500.83,36.04 502.84,36.84 504.84,64.41 506.84,50.19 508.85,55.13 510.85,36.45 512.85,38.89 514.86,41.73 516.86,78.71 518.86,89.33 520.87,38.00 522.87,78.33 524.87,68.56 526.88,59.34 528.88,117.90 530.88,86.28 532.89,56.03 534.89,49.89 536.89,133.44 538.90,135.22 540.90,76.01 542.90,66.21 544.91,132.55 546.91,193.10 548.91,172.99 550.92,145.79 552.92,154.88 554.92,166.19 556.93,143.47 558.93,122.62 560.93,180.68 562.94,173.76 564.94,198.37 566.94,182.26 568.95,183.27 570.95,156.02 572.95,192.59 574.96,197.18 576.96,202.86 578.96,201.68 580.97,179.17 582.97,204.00 584.97,192.68 586.98,203.53 588.98,179.88 590.98,166.69 592.99,193.21 594.99,186.24 596.99,196.66 599.00,129.66 601.00,142.60 603.01,171.38 605.01,194.38 607.01,164.62 609.02,194.03 611.02,70.35 613.02,140.37 615.03,149.60 617.03,137.87 619.03,63.59 621.04,174.52 623.04,149.30 625.04,97.76 627.05,96.66 629.05,107.53 631.05,137.61 633.06,36.67 635.06,123.74 637.06,68.90 639.07,83.05 641.07,38.18 643.07,41.74 645.08,41.95 647.08,39.12 649.08,41.64 651.09,36.28 653.09,60.47 655.09,39.16 657.10,63.03 659.10,36.61 661.10,36.22 663.11,38.61 665.11,36.30 667.11,45.09 669.12,75.75 671.12,124.57 673.12,44.47 675.13,116.72 677.13,52.00 679.13,155.35 681.14,69.74 683.14,95.39 685.14,106.98 687.15,146.98 689.15,167.33 691.15,106.22 693.16,178.47 695.16,63.65 697.16,80.26 699.17,92.28 701.17,63.32 703.17,122.42 705.18,167.86 707.18,118.04 709.18,197.78 711.19,106.16 713.19,157.12 715.19,190.02 717.20,142.07 719.20,158.40 721.20,180.86 723.21,203.53 725.21,172.94 727.21,182.58 729.22,203.99 731.22,167.16 733.22,202.04 735.23,202.41 737.23,201.89 739.23,200.33 741.24,183.20 743.24,125.28 745.24,179.72 747.25,204.00 749.25,150.39 751.25,201.73 753.26,92.93 755.26,134.28 757.26,201.57 759.27,172.82 761.27,172.07 763.27,200.11 765.28,53.70 767.28,192.08 769.28,190.99 771.29,69.63 773.29,128.46 775.29,101.21 777.30,176.57 779.30,171.79 781.30,75.70 783.31,73.02 785.31,42.97 787.31,84.40 789.32,56.48 791.32,41.78 793.32,71.32 795.33,38.38 797.33,80.21 799.33,63.93 801.34,44.14 803.34,54.72 805.34,103.94 807.35,39.25 809.35,58.59 811.35,62.54 813.36,52.75 815.36,36.10 817.36,56.03 819.37,114.56 821.37,109.68 823.37,52.39 825.38,104.32 827.38,118.49 829.38,129.19 831.39,78.84 833.39,93.30 835.39,156.28 837.40,135.96 839.40,175.77 841.40,88.67 843.41,78.24 845.41,135.53 847.41,196.17 849.42,162.43 851.42,158.95 853.42,129.76 855.43,179.70 857.43,188.00 859.43,149.39 861.44,167.74 863.44,156.96 865.44,194.18 867.45,114.99 869.45,203.75 871.45,112.68 873.46,197.23 875.46,201.65 877.46,115.53 879.47,150.69 881.47,201.33 883.47,193.03 885.48,203.20 887.48,203.98 889.48,155.09 891.49,201.43 893.49,142.52 895.49,130.22 897.50,191.50 899.50,202.86 901.50,199.91 903.51,110.45 905.51,201.16 907.51,91.61 909.52,200.20 911.52,109.44 913.52,111.70 915.53,194.94 917.53,135.48 919.53,203.90 921.54,112.09 923.54,202.78 925.54,172.29 927.55,59.84 929.55,184.63 931.55,171.87 933.56,36.16 935.56,80.77 937.56,126.64 939.57,95.07 941.57,69.73 943.57,141.00 945.58,115.07 947.58,149.90 949.58,85.98 951.59,109.14 953.59,59.23 955.59,74.52 957.60,80.46 959.60,36.10 961.60,39.53 963.61,48.11 965.61,109.25 967.61,51.62 969.62,36.15 971.62,82.71 973.62,78.22 975.63,36.28 977.63,49.96 979.63,161.50 981.64,39.73 983.64,56.45 985.64,149.89 987.65,102.70 989.65,73.33 991.65,117.42 993.66,45.96 995.66,195.88 997.66,185.53 999.67,194.43 1001.67,133.98 1003.67,203.92 1005.68,147.61 1007.68,107.61 1009.68,202.88 1011.69,121.28 1013.69,161.51 1015.69,165.86 1017.70,195.83 1019.70,132.43 1021.70,183.97 1023.71,192.94 1025.71,150.58 1027.71,123.32 1029.72,158.61 1031.72,185.21 1033.72,202.74 1035.73,203.64 1037.73,133.63 1039.73,188.60 1041.74,174.96 1043.74,202.78 1045.74,204.00 1047.75,190.47 1049.75,194.45 1051.75,93.61 1053.76,139.16 1055.76,102.04 1057.76,202.97 1059.77,77.25 1061.77,196.35 1063.77,145.79 1065.78,203.64 1067.78,199.11 1069.78,203.95 1071.79,190.37 1073.79,180.17 1075.79,45.60 1077.80,171.30 1079.80,190.58 1081.80,41.10 1083.81,129.47 1085.81,87.86 1087.81,86.29 1089.82,102.13 1091.82,65.98 1093.82,71.22 1095.83,191.56 1097.83,88.50 1099.83,61.54 1101.84,43.69 1103.84,129.08 1105.84,134.75 1107.85,61.59 1109.85,46.17 1111.85,111.72 1113.86,38.71 1115.86,63.57 1117.86,76.63 1119.87,42.05 1121.87,39.63 1123.87,122.21 1125.88,70.19 1127.88,76.85 1129.88,41.56 1131.89,48.03 1133.89,45.92 1135.89,160.23 1137.90,88.93 1139.90,160.64 1141.90,42.03 1143.91,70.78 1145.91,47.06 1147.91,115.38 1149.92,170.16 1151.92,200.22 1153.92,87.30 1155.93,182.36 1157.93,202.44 1159.93,171.27 1161.94,185.36 1163.94,119.15 1165.94,44.60 1167.95,191.51 1169.95,45.50 1171.95,141.38 1173.96,200.22 1175.96,50.23 1177.96,114.82 1179.97,67.08 1181.97,200.34 1183.97,166.60 1185.98,106.47 1187.98,187.29 1189.98,200.11 1191.99,202.41 1193.99,153.78 1195.99,175.30 1198.00,85.44 1200.00,203.82" fill="none" stroke="black" stroke-width="3" stroke-linecap="round" stroke-linejoin="round"/></svg>