<svg xmlns="http://www.w3.org/2000/svg" viewBox="0 0 1200 240" width="1200" height="240"><rect width="1200" height="240" fill="white"/><polyline points="0.00,120.00 2.00,113.27 4.01,106.75 6.01,99.30 8.01,92.21 10.02,85.72 12.02,79.18 14.02,74.28 16.03,68.08 18.03,62.27 20.03,59.75 22.04,54.15 24.04,48.71 26.04,45.25 28.05,44.85 30.05,41.88 32.05,38.27 34.06,37.06 36.06,36.62 38.06,36.06 40.07,36.01 42.07,37.51 44.07,39.59 46.08,40.28 48.08,43.63 50.08,43.97 52.09,47.62 54.09,53.83 56.09,52.10 58.10,65.86 60.10,65.52 62.10,73.88 64.11,76.11 66.11,82.60 68.11,85.69 70.12,100.60 72.12,101.69 74.12,103.63 76.13,107.88 78.13,117.56 80.13,122.29 82.14,129.05 84.14,137.63 86.14,146.21 88.15,161.85 90.15,158.97 92.15,173.77 94.16,166.28 96.16,185.78 98.16,174.83 100.17,191.81 102.17,189.16 104.17,194.23 106.18,198.78 108.18,201.16 110.18,203.79 112.19,201.83 114.19,203.84 116.19,203.21 118.20,201.32 120.20,202.56 122.20,202.08 124.21,201.13 126.21,195.03 128.21,196.71 130.22,180.49 132.22,185.93 134.22,191.44 136.23,187.77 138.23,171.30 140.23,165.78 142.24,156.01 144.24,160.49 146.24,147.82 148.25,145.78 150.25,122.16 152.25,126.31 154.26,126.32 156.26,94.44 158.26,92.44 160.27,106.10 162.27,92.23 164.27,103.61 166.28,64.02 168.28,82.90 170.28,63.43 172.29,78.25 174.29,53.86 176.29,44.39 178.30,39.94 180.30,47.69 182.30,46.48 184.31,51.93 186.31,36.36 188.31,40.83 190.32,36.78 192.32,36.03 194.32,40.01 196.33,36.27 198.33,36.15 200.33,44.29 202.34,38.33 204.34,58.78 206.34,44.52 208.35,65.49 210.35,60.38 212.35,50.86 214.36,54.96 216.36,68.41 218.36,61.43 220.37,80.95 222.37,79.37 224.37,95.52 226.38,99.55 228.38,124.08 230.38,108.12 232.39,129.44 234.39,112.14 236.39,164.44 238.40,113.82 240.40,171.62 242.40,135.46 244.41,170.67 246.41,151.53 248.41,193.76 250.42,189.58 252.42,164.99 254.42,198.91 256.43,199.79 258.43,186.54 260.43,201.21 262.44,191.92 264.44,192.23 266.44,203.31 268.45,201.29 270.45,200.24 272.45,204.00 274.46,203.15 276.46,195.22 278.46,203.90 280.47,190.45 282.47,203.58 284.47,194.38 286.48,155.67 288.48,169.00 290.48,192.45 292.49,180.91 294.49,147.01 296.49,129.41 298.50,183.77 300.50,171.09 302.50,140.25 304.51,99.71 306.51,158.66 308.51,149.93 310.52,114.91 312.52,87.07 314.52,102.32 316.53,126.25 318.53,75.75 320.53,83.11 322.54,64.81 324.54,81.84 326.54,53.02 328.55,76.22 330.55,39.46 332.55,36.85 334.56,36.77 336.56,37.36 338.56,56.65 340.57,36.01 342.57,44.35 344.57,36.66 346.58,36.51 348.58,41.57 350.58,48.11 352.59,39.59 354.59,42.03 356.59,36.30 358.60,72.27 360.60,45.13 362.60,46.73 364.61,47.37 366.61,63.97 368.61,61.31 370.62,69.20 372.62,65.50 374.62,76.61 376.63,63.83 378.63,114.97 380.63,83.87 382.64,99.10 384.64,120.06 386.64,104.35 388.65,155.19 390.65,121.92 392.65,142.46 394.66,121.72 396.66,126.64 398.66,161.35 400.67,197.15 402.67,188.89 404.67,190.64 406.68,173.18 408.68,178.46 410.68,203.84 412.69,203.02 414.69,202.45 416.69,203.66 418.70,196.44 420.70,195.26 422.70,203.61 424.71,194.66 426.71,181.41 428.71,200.53 430.72,195.57 432.72,203.03 434.72,202.95 436.73,174.48 438.73,171.85 440.73,201.83 442.74,191.22 444.74,174.49 446.74,137.57 448.75,151.78 450.75,195.15 452.75,152.32 454.76,149.80 456.76,117.39 458.76,124.54 460.77,113.66 462.77,131.31 464.77,121.13 466.78,101.39 468.78,126.70 470.78,90.74 472.79,94.34 474.79,117.33 476.79,89.38 478.80,39.12 480.80,89.73 482.80,42.86 484.81,44.12 486.81,36.35 488.81,65.40 490.82,37.81 492.82,57.89 494.82,50.64 496.83,50.42 498.83,43.33 500.83,48.33 502.84,36.00 504.84,50.10 506.84,36.55 508.85,37.95 510.85,37.44 512.85,41.35 514.86,37.96 516.86,36.95 518.86,90.67 520.87,37.34 522.87,63.28 524.87,137.66 526.88,109.15 528.88,81.58 530.88,96.42 532.89,158.39 534.89,117.47 536.89,90.07 538.90,107.46 540.90,90.15 542.90,140.45 544.91,124.35 546.91,185.66 548.91,170.24 550.92,159.08 552.92,151.57 554.92,148.68 556.93,197.11 558.93,180.69 560.93,128.71 562.94,177.70 564.94,203.99 566.94,163.06 568.95,203.39 570.95,201.10 572.95,198.28 574.96,203.19 576.96,187.94 578.96,181.31 580.97,203.97 582.97,174.74 584.97,202.61 586.98,174.97 588.98,187.87 590.98,135.45 592.99,200.96 594.99,199.60 596.99,184.32 599.00,191.95 601.00,113.57 603.01,198.07 605.01,198.46 607.01,96.00 609.02,152.26 611.02,161.72 613.02,190.75 615.03,130.08 617.03,138.89 619.03,145.59 621.04,149.23 623.04,126.45 625.04,74.10 627.05,81.64 629.05,52.82 631.05,135.05 633.06,53.61 635.06,36.57 637.06,114.09 639.07,67.70 641.07,42.54 643.07,54.43 645.08,106.39 647.08,92.37 649.08,42.12 651.09,36.73 653.09,40.36 655.09,36.44 657.10,36.12 659.10,71.56 661.10,37.65 663.11,49.76 665.11,42.74 667.11,44.21 669.12,76.18 671.12,40.90 673.12,60.49 675.13,37.16 677.13,126.02 679.13,96.21 681.14,39.06 683.14,91.95 685.14,173.26 687.15,110.83 689.15,107.99 691.15,123.16 693.16,188.67 695.16,75.53 697.16,53.51 699.17,188.83 701.17,168.26 703.17,161.03 705.18,195.23 707.18,121.13 709.18,182.29 711.19,171.72 713.19,134.56 715.19,151.62 717.20,190.77 719.20,198.98 721.20,138.86 723.21,191.75 725.21,200.91 727.21,177.21 729.22,174.67 731.22,202.57 733.22,164.50 735.23,194.73 737.23,168.80 739.23,188.93 741.24,183.47 743.24,197.89 745.24,193.47 747.25,196.21 749.25,202.80 751.25,168.83 753.26,203.17 755.26,192.09 757.26,80.49 759.27,197.55 761.27,118.70 763.27,193.46 765.28,77.48 767.28,141.23 769.28,131.51 771.29,84.57 773.29,45.97 775.29,91.07 777.30,42.11 779.30,69.59 781.30,110.57 783.31,70.76 785.31,50.86 787.31,100.34 789.32,89.05 791.32,50.96 793.32,55.63 795.33,40.11 797.33,76.36 799.33,65.90 801.34,40.23 803.34,102.22 805.34,58.73 807.35,42.38 809.35,36.07 811.35,40.79 813.36,48.03 815.36,96.29 817.36,41.61 819.37,81.19 821.37,41.21 823.37,38.11 825.38,67.39 827.38,41.88 829.38,87.74 831.39,104.51 833.39,101.04 835.39,119.93 837.40,51.48 839.40,176.62 841.40,80.78 843.41,38.04 845.41,136.03 847.41,158.16 849.42,102.82 851.42,190.57 853.42,203.17 855.43,124.60 857.43,193.78 859.43,99.10 861.44,104.84 863.44,106.21 865.44,90.62 867.45,203.93 869.45,203.60 871.45,203.44 873.46,195.05 875.46,109.10 877.46,193.72 879.47,164.44 881.47,168.14 883.47,195.00 885.48,203.88 887.48,180.28 889.48,176.34 891.49,127.40 893.49,175.10 895.49,166.10 897.50,195.08 899.50,133.99 901.50,202.78 903.51,137.23 905.51,86.52 907.51,164.86 909.52,108.39 911.52,189.95 913.52,168.20 915.53,89.68 917.53,62.84 919.53,97.06 921.54,152.35 923.54,182.65 925.54,196.17 927.55,66.18 929.55,37.04 931.55,38.05 933.56,106.52 935.56,62.88 937.56,42.32 939.57,160.58 941.57,128.81 943.57,36.81 945.58,38.30 947.58,50.49 949.58,100.41 951.59,68.93 953.59,70.88 955.59,38.61 957.60,38.15 959.60,39.22 961.60,109.18 963.61,98.04 965.61,39.30 967.61,63.51 969.62,49.92 971.62,58.52 973.62,123.98 975.63,95.08 977.63,78.14 979.63,36.00 981.64,44.08 983.64,39.61 985.64,75.33 987.65,172.17 989.65,41.68 991.65,43.28 993.66,156.94 995.66,94.02 997.66,111.53 999.67,36.09 1001.67,157.40 1003.67,88.91 1005.68,141.68 1007.68,202.61 1009.68,67.12 1011.69,202.79 1013.69,46.60 1015.69,202.80 1017.70,193.14 1019.70,199.85 1021.70,168.31 1023.71,92.29 1025.71,203.45 1027.71,176.29 1029.72,105.78 1031.72,172.67 1033.72,173.08 1035.73,202.23 1037.73,200.21 1039.73,178.74 1041.74,123.98 1043.74,139.39 1045.74,98.93 1047.75,135.92 1049.75,194.04 1051.75,184.99 1053.76,200.84 1055.76,184.24 1057.76,200.75 1059.77,201.46 1061.77,131.63 1063.77,191.36 1065.78,62.35 1067.78,90.45 1069.78,109.59 1071.79,203.94 1073.79,195.68 1075.79,53.83 1077.80,108.19 1079.80,36.15 1081.80,197.98 1083.81,185.55 1085.81,199.28 1087.81,38.62 1089.82,193.86 1091.82,47.18 1093.82,188.96 1095.83,75.01 1097.83,39.47 1099.83,48.43 1101.84,93.92 1103.84,36.00 1105.84,70.67 1107.85,47.85 1109.85,82.88 1111.85,36.62 1113.86,36.97 1115.86,48.25 1117.86,53.44 1119.87,82.74 1121.87,46.52 1123.87,51.51 1125.88,37.31 1127.88,73.12 1129.88,155.27 1131.89,120.74 1133.89,88.93 1135.89,88.88 1137.90,121.46 1139.90,98.57 1141.90,58.61 1143.91,181.85 1145.91,188.95 1147.91,189.61 1149.92,51.52 1151.92,203.07 1153.92,91.89 1155.93,203.77 1157.93,135.79 1159.93,197.86 1161.94,202.62 1163.94,190.57 1165.94,203.64 1167.95,85.65 1169.95,90.82 1171.95,149.34 1173.96,60.20 1175.96,77.89 1177.96,122.59 1179.97,186.36 1181.97,76.02 1183.97,133.83 1185.98,202.68 1187.98,105.17 1189.98,114.74 1191.99,138.12 1193.99,170.91 1195.99,196.30 1198.00,141.76 1200.00,170.84" fill="none" stroke="black" stroke-width="3" stroke-linecap="round" stroke-linejoin="round"/></svg>