<svg xmlns="http://www.w3.org/2000/svg" viewBox="0 0 1200 240" width="1200" height="240"><rect width="1200" height="240" fill="white"/><polyline points="0.00,120.00 2.00,113.25 4.01,106.19 6.01,99.54 8.01,92.14 10.02,85.75 12.02,79.51 14.02,75.63 16.03,69.61 18.03,64.82 20.03,58.14 22.04,55.12 24.04,49.23 26.04,47.31 28.05,44.11 30.05,42.14 32.05,39.52 34.06,37.92 36.06,36.46 38.06,36.00 40.07,36.46 42.07,37.42 44.07,38.04 46.08,40.89 48.08,42.14 50.08,45.05 52.09,51.07 54.09,55.82 56.09,53.31 58.10,65.15 60.10,64.24 62.10,67.95 64.11,76.97 66.11,80.59 68.11,86.16 70.12,103.84 72.12,107.10 74.12,118.07 76.13,117.36 78.13,128.72 80.13,136.67 82.14,133.31 84.14,141.28 86.14,145.97 88.15,161.28 90.15,166.44 92.15,173.14 94.16,170.65 96.16,186.09 98.16,183.68 100.17,181.64 102.17,196.02 104.17,192.49 106.18,197.12 108.18,202.93 110.18,203.43 112.19,203.93 114.19,203.97 116.19,203.41 118.20,202.73 120.20,203.98 122.20,200.38 124.21,202.57 126.21,195.51 128.21,187.88 130.22,195.50 132.22,188.65 134.22,184.31 136.23,186.87 138.23,163.87 140.23,178.36 142.24,153.78 144.24,159.80 146.24,132.82 148.25,133.48 150.25,126.79 152.25,109.44 154.26,121.67 156.26,106.70 158.26,107.26 160.27,109.82 162.27,74.85 164.27,69.12 166.28,80.60 168.28,81.33 170.28,65.81 172.29,67.65 174.29,75.28 176.29,60.44 178.30,43.45 180.30,46.14 182.30,39.56 184.31,46.55 186.31,45.77 188.31,38.50 190.32,36.07 192.32,37.47 194.32,40.68 196.33,42.73 198.33,36.43 200.33,39.65 202.34,36.89 204.34,53.12 206.34,65.17 208.35,65.83 210.35,49.94 212.35,81.37 214.36,79.02 216.36,86.69 218.36,72.69 220.37,98.78 222.37,71.30 224.37,71.05 226.38,96.60 228.38,87.61 230.38,136.71 232.39,150.95 234.39,159.11 236.39,115.21 238.40,155.03 240.40,164.65 242.40,134.46 244.41,182.98 246.41,148.08 248.41,186.12 250.42,179.96 252.42,196.66 254.42,176.79 256.43,201.97 258.43,202.18 260.43,192.15 262.44,201.74 264.44,194.63 266.44,202.97 268.45,200.90 270.45,204.00 272.45,203.03 274.46,190.88 276.46,203.44 278.46,187.92 280.47,192.70 282.47,202.33 284.47,167.05 286.48,183.65 288.48,194.80 290.48,192.16 292.49,167.32 294.49,172.41 296.49,136.56 298.50,134.48 300.50,155.10 302.50,167.02 304.51,108.34 306.51,141.22 308.51,93.60 310.52,74.83 312.52,77.83 314.52,114.88 316.53,129.56 318.53,89.55 320.53,68.95 322.54,77.64 324.54,63.43 326.54,46.02 328.55,50.40 330.55,86.25 332.55,76.62 334.56,53.42 336.56,36.86 338.56,54.89 340.57,36.15 342.57,45.29 344.57,36.27 346.58,44.70 348.58,37.18 350.58,37.68 352.59,47.19 354.59,36.64 356.59,61.11 358.60,50.85 360.60,72.87 362.60,36.76 364.61,70.90 366.61,73.95 368.61,75.21 370.62,66.30 372.62,84.41 374.62,111.21 376.63,77.59 378.63,107.59 380.63,106.50 382.64,152.97 384.64,142.39 386.64,127.14 388.65,160.37 390.65,163.91 392.65,153.67 394.66,104.24 396.66,144.57 398.66,189.48 400.67,176.03 402.67,186.99 404.67,178.15 406.68,169.51 408.68,159.41 410.68,201.74 412.69,164.42 414.69,199.08 416.69,201.80 418.70,202.94 420.70,200.37 422.70,190.05 424.71,200.70 426.71,204.00 428.71,199.87 430.72,203.31 432.72,201.03 434.72,163.96 436.73,189.71 438.73,155.06 440.73,183.45 442.74,156.25 444.74,124.43 446.74,119.01 448.75,161.74 450.75,137.78 452.75,167.57 454.76,177.01 456.76,90.21 458.76,90.18 460.77,100.73 462.77,137.64 464.77,86.28 466.78,93.41 468.78,147.63 470.78,73.34 472.79,66.97 474.79,45.09 476.79,103.40 478.80,85.53 480.80,50.27 482.80,68.60 484.81,36.05 486.81,67.79 488.81,38.84 490.82,40.38 492.82,38.01 494.82,71.02 496.83,36.01 498.83,36.11 500.83,41.18 502.84,54.46 504.84,47.75 506.84,37.84 508.85,40.21 510.85,36.12 512.85,65.27 514.86,60.77 516.86,49.86 518.86,57.09 520.87,118.81 522.87,43.40 524.87,38.14 526.88,52.98 528.88,148.43 530.88,67.56 532.89,67.84 534.89,107.42 536.89,126.54 538.90,147.68 540.90,182.09 542.90,132.84 544.91,129.93 546.91,133.31 548.91,157.34 550.92,176.72 552.92,149.30 554.92,190.84 556.93,189.28 558.93,193.23 560.93,144.08 562.94,203.82 564.94,179.63 566.94,169.46 568.95,194.22 570.95,193.76 572.95,198.02 574.96,198.15 576.96,192.61 578.96,204.00 580.97,202.85 582.97,180.94 584.97,165.11 586.98,151.93 588.98,200.47 590.98,203.38 592.99,199.94 594.99,202.80 596.99,198.42 599.00,134.10 601.00,180.23 603.01,115.17 605.01,186.40 607.01,188.51 609.02,142.48 611.02,184.23 613.02,183.70 615.03,60.15 617.03,86.94 619.03,67.91 621.04,60.73 623.04,58.66 625.04,143.66 627.05,139.97 629.05,63.22 631.05,47.14 633.06,39.86 635.06,36.02 637.06,109.69 639.07,41.12 641.07,37.55 643.07,41.98 645.08,51.56 647.08,79.68 649.08,37.34 651.09,81.75 653.09,42.91 655.09,38.35 657.10,50.35 659.10,82.63 661.10,37.65 663.11,75.27 665.11,92.77 667.11,36.07 669.12,103.29 671.12,40.68 673.12,129.29 675.13,111.09 677.13,49.04 679.13,36.02 681.14,41.35 683.14,57.55 685.14,62.16 687.15,73.21 689.15,126.63 691.15,57.79 693.16,102.42 695.16,172.17 697.16,175.45 699.17,105.07 701.17,196.43 703.17,173.60 705.18,184.26 707.18,141.11 709.18,146.70 711.19,121.57 713.19,154.67 715.19,202.97 717.20,201.98 719.20,197.68 721.20,197.46 723.21,161.33 725.21,191.79 727.21,196.66 729.22,202.47 731.22,187.51 733.22,164.59 735.23,190.14 737.23,180.96 739.23,174.64 741.24,158.88 743.24,203.67 745.24,195.83 747.25,199.38 749.25,184.06 751.25,193.45 753.26,199.32 755.26,203.80 757.26,147.46 759.27,96.87 761.27,106.80 763.27,199.38 765.28,155.21 767.28,150.54 769.28,113.65 771.29,57.40 773.29,163.26 775.29,155.05 777.30,173.87 779.30,48.72 781.30,146.12 783.31,36.95 785.31,88.42 787.31,144.45 789.32,56.10 791.32,52.63 793.32,140.21 795.33,36.07 797.33,48.04 799.33,126.00 801.34,101.56 803.34,62.25 805.34,63.06 807.35,37.81 809.35,86.31 811.35,97.74 813.36,45.45 815.36,60.44 817.36,40.01 819.37,53.59 821.37,38.99 823.37,38.81 825.38,102.54 827.38,103.99 829.38,38.14 831.39,39.78 833.39,93.79 835.39,37.55 837.40,90.05 839.40,123.99 841.40,151.98 843.41,187.10 845.41,188.58 847.41,81.82 849.42,194.34 851.42,121.25 853.42,112.84 855.43,166.76 857.43,71.50 859.43,82.29 861.44,183.39 863.44,200.48 865.44,203.64 867.45,188.28 869.45,192.91 871.45,197.59 873.46,178.79 875.46,158.00 877.46,172.67 879.47,168.05 881.47,202.84 883.47,185.39 885.48,200.11 887.48,192.82 889.48,194.42 891.49,131.50 893.49,146.90 895.49,199.56 897.50,203.97 899.50,200.54 901.50,203.67 903.51,192.33 905.51,108.66 907.51,139.16 909.52,153.42 911.52,79.46 913.52,164.08 915.53,52.71 917.53,85.37 919.53,43.91 921.54,121.50 923.54,42.86 925.54,116.32 927.55,71.38 929.55,198.27 931.55,166.06 933.56,36.25 935.56,47.30 937.56,67.19 939.57,92.50 941.57,40.07 943.57,38.74 945.58,47.48 947.58,68.22 949.58,50.24 951.59,68.96 953.59,43.77 955.59,103.32 957.60,64.52 959.60,68.41 961.60,96.13 963.61,67.03 965.61,78.43 967.61,38.66 969.62,41.45 971.62,64.02 973.62,98.89 975.63,115.47 977.63,161.84 979.63,76.81 981.64,159.27 983.64,50.92 985.64,63.57 987.65,89.86 989.65,155.96 991.65,111.29 993.66,135.68 995.66,53.64 997.66,55.60 999.67,150.94 1001.67,95.28 1003.67,55.29 1005.68,202.80 1007.68,188.05 1009.68,49.83 1011.69,197.12 1013.69,202.89 1015.69,149.69 1017.70,113.83 1019.70,110.90 1021.70,200.10 1023.71,119.34 1025.71,163.57 1027.71,86.61 1029.72,192.96 1031.72,180.41 1033.72,175.65 1035.73,148.19 1037.73,188.03 1039.73,139.33 1041.74,199.54 1043.74,142.89 1045.74,201.91 1047.75,201.98 1049.75,152.98 1051.75,203.94 1053.76,202.15 1055.76,203.21 1057.76,121.81 1059.77,201.42 1061.77,187.02 1063.77,102.89 1065.78,173.30 1067.78,156.17 1069.78,196.34 1071.79,101.79 1073.79,148.53 1075.79,193.44 1077.80,192.31 1079.80,174.44 1081.80,203.84 1083.81,107.72 1085.81,182.84 1087.81,158.20 1089.82,195.51 1091.82,104.35 1093.82,61.67 1095.83,163.06 1097.83,149.99 1099.83,136.27 1101.84,65.47 1103.84,49.11 1105.84,37.88 1107.85,70.26 1109.85,52.81 1111.85,47.76 1113.86,85.05 1115.86,54.27 1117.86,86.08 1119.87,122.92 1121.87,77.10 1123.87,86.58 1125.88,56.70 1127.88,74.73 1129.88,144.01 1131.89,72.81 1133.89,176.45 1135.89,72.86 1137.90,40.80 1139.90,145.49 1141.90,188.42 1143.91,74.88 1145.91,130.97 1147.91,42.28 1149.92,199.08 1151.92,69.77 1153.92,151.69 1155.93,193.16 1157.93,52.29 1159.93,114.20 1161.94,195.50 1163.94,162.85 1165.94,60.21 1167.95,76.06 1169.95,203.77 1171.95,110.69 1173.96,180.28 1175.96,202.25 1177.96,175.42 1179.97,187.17 1181.97,157.43 1183.97,102.74 1185.98,125.56 1187.98,86.44 1189.98,158.48 1191.99,158.07 1193.99,179.24 1195.99,107.56 1198.00,94.18 1200.00,143.30" fill="none" stroke="black" stroke-width="3" stroke-linecap="round" stroke-linejoin="round"/></svg>