<svg xmlns="http://www.w3.org/2000/svg" viewBox="0 0 1200 240" width="1200" height="240"><rect width="1200" height="240" fill="white"/><polyline points="0.00,120.00 2.00,117.89 4.01,115.78 6.01,113.67 8.01,111.57 10.02,109.47 12.02,107.38 14.02,105.30 16.03,103.22 18.03,101.16 20.03,99.11 22.04,97.07 24.04,95.05 26.04,93.04 28.05,91.05 30.05,89.08 32.05,87.12 34.06,85.19 36.06,83.28 38.06,81.39 40.07,79.53 42.07,77.69 44.07,75.88 46.08,74.10 48.08,72.35 50.08,70.62 52.09,68.93 54.09,67.27 56.09,65.64 58.10,64.05 60.10,62.49 62.10,60.97 64.11,59.49 66.11,58.04 68.11,56.64 70.12,55.27 72.12,53.95 74.12,52.66 76.13,51.42 78.13,50.22 80.13,49.07 82.14,47.96 84.14,46.90 86.14,45.88 88.15,44.91 90.15,43.99 92.15,43.11 94.16,42.29 96.16,41.51 98.16,40.78 100.17,40.10 102.17,39.48 104.17,38.90 106.18,38.38 108.18,37.90 110.18,37.48 112.19,37.11 114.19,36.79 116.19,36.53 118.20,36.32 120.20,36.16 122.20,36.05 124.21,36.00 126.21,36.00 128.21,36.05 130.22,36.16 132.22,36.32 134.22,36.53 136.23,36.79 138.23,37.11 140.23,37.48 142.24,37.90 144.24,38.38 146.24,38.90 148.25,39.48 150.25,40.10 152.25,40.78 154.26,41.51 156.26,42.29 158.26,43.11 160.27,43.99 162.27,44.91 164.27,45.88 166.28,46.90 168.28,47.96 170.28,49.07 172.29,50.22 174.29,51.42 176.29,52.66 178.30,53.95 180.30,55.27 182.30,56.64 184.31,58.04 186.31,59.49 188.31,60.97 190.32,62.49 192.32,64.05 194.32,65.64 196.33,67.27 198.33,68.93 200.33,70.62 202.34,72.35 204.34,74.10 206.34,75.88 208.35,77.69 210.35,79.53 212.35,81.39 214.36,83.28 216.36,85.19 218.36,87.12 220.37,89.08 222.37,91.05 224.37,93.04 226.38,95.05 228.38,97.07 230.38,99.11 232.39,101.16 234.39,103.22 236.39,105.30 238.40,107.38 240.40,109.47 242.40,111.57 244.41,113.67 246.41,115.78 248.41,117.89 250.42,120.00 252.42,122.11 254.42,124.22 256.43,126.33 258.43,128.43 260.43,130.53 262.44,132.62 264.44,134.70 266.44,136.78 268.45,138.84 270.45,140.89 272.45,142.93 274.46,144.95 276.46,146.96 278.46,148.95 280.47,150.92 282.47,152.88 284.47,154.81 286.48,156.72 288.48,158.61 290.48,160.47 292.49,162.31 294.49,164.12 296.49,165.90 298.50,167.65 300.50,169.38 302.50,171.07 304.51,172.73 306.51,174.36 308.51,175.95 310.52,177.51 312.52,179.03 314.52,180.51 316.53,181.96 318.53,183.36 320.53,184.73 322.54,186.05 324.54,187.34 326.54,188.58 328.55,189.78 330.55,190.93 332.55,192.04 334.56,193.10 336.56,194.12 338.56,195.09 340.57,196.01 342.57,196.89 344.57,197.71 346.58,198.49 348.58,199.22 350.58,199.90 352.59,200.52 354.59,201.10 356.59,201.62 358.60,202.10 360.60,202.52 362.60,202.89 364.61,203.21 366.61,203.47 368.61,203.68 370.62,203.84 372.62,203.95 374.62,204.00 376.63,204.00 378.63,203.95 380.63,203.84 382.64,203.68 384.64,203.47 386.64,203.21 388.65,202.89 390.65,202.52 392.65,202.10 394.66,201.62 396.66,201.10 398.66,200.52 400.67,199.90 402.67,199.22 404.67,198.49 406.68,197.71 408.68,196.89 410.68,196.01 412.69,195.09 414.69,194.12 416.69,193.10 418.70,192.04 420.70,190.93 422.70,189.78 424.71,188.58 426.71,187.34 428.71,186.05 430.72,184.73 432.72,183.36 434.72,181.96 436.73,180.51 438.73,179.03 440.73,177.51 442.74,175.95 444.74,174.36 446.74,172.73 448.75,171.07 450.75,169.38 452.75,167.65 454.76,165.90 456.76,164.12 458.76,162.31 460.77,160.47 462.77,158.61 464.77,156.72 466.78,154.81 468.78,152.88 470.78,150.92 472.79,148.95 474.79,146.96 476.79,144.95 478.80,142.93 480.80,140.89 482.80,138.84 484.81,136.78 486.81,134.70 488.81,132.62 490.82,130.53 492.82,128.43 494.82,126.33 496.83,124.22 498.83,122.11 500.83,120.00 502.84,117.89 504.84,115.78 506.84,113.67 508.85,111.57 510.85,109.47 512.85,107.38 514.86,105.30 516.86,103.22 518.86,101.16 520.87,99.11 522.87,97.07 524.87,95.05 526.88,93.04 528.88,91.05 530.88,89.08 532.89,87.12 534.89,85.19 536.89,83.28 538.90,81.39 540.90,79.53 542.90,77.69 544.91,75.88 546.91,74.10 548.91,72.35 550.92,70.62 552.92,68.93 554.92,67.27 556.93,65.64 558.93,64.05 560.93,62.49 562.94,60.97 564.94,59.49 566.94,58.04 568.95,56.64 570.95,55.27 572.95,53.95 574.96,52.66 576.96,51.42 578.96,50.22 580.97,49.07 582.97,47.96 584.97,46.90 586.98,45.88 588.98,44.91 590.98,43.99 592.99,43.11 594.99,42.29 596.99,41.51 599.00,40.78 601.00,40.10 603.01,39.48 605.01,38.90 607.01,38.38 609.02,37.90 611.02,37.48 613.02,37.11 615.03,36.79 617.03,36.53 619.03,36.32 621.04,36.16 623.04,36.05 625.04,36.00 627.05,36.00 629.05,36.05 631.05,36.16 633.06,36.32 635.06,36.53 637.06,36.79 639.07,37.11 641.07,37.48 643.07,37.90 645.08,38.38 647.08,38.90 649.08,39.48 651.09,40.10 653.09,40.78 655.09,41.51 657.10,42.29 659.10,43.11 661.10,43.99 663.11,44.91 665.11,45.88 667.11,46.90 669.12,47.96 671.12,49.07 673.12,50.22 675.13,51.42 677.13,52.66 679.13,53.95 681.14,55.27 683.14,56.64 685.14,58.04 687.15,59.49 689.15,60.97 691.15,62.49 693.16,64.05 695.16,65.64 697.16,67.27 699.17,68.93 701.17,70.62 703.17,72.35 705.18,74.10 707.18,75.88 709.18,77.69 711.19,79.53 713.19,81.39 715.19,83.28 717.20,85.19 719.20,87.12 721.20,89.08 723.21,91.05 725.21,93.04 727.21,95.05 729.22,97.07 731.22,99.11 733.22,101.16 735.23,103.22 737.23,105.30 739.23,107.38 741.24,109.47 743.24,111.57 745.24,113.67 747.25,115.78 749.25,117.89 751.25,120.00 753.26,122.11 755.26,124.22 757.26,126.33 759.27,128.43 761.27,130.53 763.27,132.62 765.28,134.70 767.28,136.78 769.28,138.84 771.29,140.89 773.29,142.93 775.29,144.95 777.30,146.96 779.30,148.95 781.30,150.92 783.31,152.88 785.31,154.81 787.31,156.72 789.32,158.61 791.32,160.47 793.32,162.31 795.33,164.12 797.33,165.90 799.33,167.65 801.34,169.38 803.34,171.07 805.34,172.73 807.35,174.36 809.35,175.95 811.35,177.51 813.36,179.03 815.36,180.51 817.36,181.96 819.37,183.36 821.37,184.73 823.37,186.05 825.38,187.34 827.38,188.58 829.38,189.78 831.39,190.93 833.39,192.04 835.39,193.10 837.40,194.12 839.40,195.09 841.40,196.01 843.41,196.89 845.41,197.71 847.41,198.49 849.42,199.22 851.42,199.90 853.42,200.52 855.43,201.10 857.43,201.62 859.43,202.10 861.44,202.52 863.44,202.89 865.44,203.21 867.45,203.47 869.45,203.68 871.45,203.84 873.46,203.95 875.46,204.00 877.46,204.00 879.47,203.95 881.47,203.84 883.47,203.68 885.48,203.47 887.48,203.21 889.48,202.89 891.49,202.52 893.49,202.10 895.49,201.62 897.50,201.10 899.50,200.52 901.50,199.90 903.51,199.22 905.51,198.49 907.51,197.71 909.52,196.89 911.52,196.01 913.52,195.09 915.53,194.12 917.53,193.10 919.53,192.04 921.54,190.93 923.54,189.78 925.54,188.58 927.55,187.34 929.55,186.05 931.55,184.73 933.56,183.36 935.56,181.96 937.56,180.51 939.57,179.03 941.57,177.51 943.57,175.95 945.58,174.36 947.58,172.73 949.58,171.07 951.59,169.38 953.59,167.65 955.59,165.90 957.60,164.12 959.60,162.31 961.60,160.47 963.61,158.61 965.61,156.72 967.61,154.81 969.62,152.88 971.62,150.92 973.62,148.95 975.63,146.96 977.63,144.95 979.63,142.93 981.64,140.89 983.64,138.84 985.64,136.78 987.65,134.70 989.65,132.62 991.65,130.53 993.66,128.43 995.66,126.33 997.66,124.22 999.67,122.11 1001.67,120.00 1003.67,117.89 1005.68,115.78 1007.68,113.67 1009.68,111.57 1011.69,109.47 1013.69,107.38 1015.69,105.30 1017.70,103.22 1019.70,101.16 1021.70,99.11 1023.71,97.07 1025.71,95.05 1027.71,93.04 1029.72,91.05 1031.72,89.08 1033.72,87.12 1035.73,85.19 1037.73,83.28 1039.73,81.39 1041.74,79.53 1043.74,77.69 1045.74,75.88 1047.75,74.10 1049.75,72.35 1051.75,70.62 1053.76,68.93 1055.76,67.27 1057.76,65.64 1059.77,64.05 1061.77,62.49 1063.77,60.97 1065.78,59.49 1067.78,58.04 1069.78,56.64 1071.79,55.27 1073.79,53.95 1075.79,52.66 1077.80,51.42 1079.80,50.22 1081.80,49.07 1083.81,47.96 1085.81,46.90 1087.81,45.88 1089.82,44.91 1091.82,43.99 1093.82,43.11 1095.83,42.29 1097.83,41.51 1099.83,40.78 1101.84,40.10 1103.84,39.48 1105.84,38.90 1107.85,38.38 1109.85,37.90 1111.85,37.48 1113.86,37.11 1115.86,36.79 1117.86,36.53 1119.87,36.32 1121.87,36.16 1123.87,36.05 1125.88,36.00 1127.88,36.00 1129.88,36.05 1131.89,36.16 1133.89,36.32 1135.89,36.53 1137.90,36.79 1139.90,37.11 1141.90,37.48 1143.91,37.90 1145.91,38.38 1147.91,38.90 1149.92,39.48 1151.92,40.10 1153.92,40.78 1155.93,41.51 1157.93,42.29 1159.93,43.11 1161.94,43.99 1163.94,44.91 1165.94,45.88 1167.95,46.90 1169.95,47.96 1171.95,49.07 1173.96,50.22 1175.96,51.42 1177.96,52.66 1179.97,53.95 1181.97,55.27 1183.97,56.64 1185.98,58.04 1187.98,59.49 1189.98,60.97 1191.99,62.49 1193.99,64.05 1195.99,65.64 1198.00,67.27 1200.00,68.93" fill="none" stroke="black" stroke-width="3" stroke-linecap="round" stroke-linejoin="round"/></svg>