<svg xmlns="http://www.w3.org/2000/svg" viewBox="0 0 1200 240" width="1200" height="240"><rect width="1200" height="240" fill="white"/><polyline points="0.00,120.00 2.00,113.27 4.01,106.24 6.01,99.77 8.01,93.42 10.02,87.06 12.02,80.81 14.02,73.46 16.03,68.39 18.03,64.72 20.03,57.96 22.04,53.11 24.04,49.62 26.04,48.13 28.05,45.07 30.05,40.32 32.05,38.73 34.06,37.47 36.06,36.40 38.06,36.20 40.07,36.28 42.07,36.60 44.07,37.13 46.08,39.26 48.08,41.90 50.08,43.82 52.09,48.46 54.09,53.58 56.09,55.34 58.10,66.14 60.10,70.23 62.10,77.68 64.11,73.55 66.11,80.89 68.11,82.19 70.12,92.63 72.12,99.08 74.12,102.57 76.13,111.85 78.13,117.36 80.13,129.12 82.14,132.64 84.14,134.56 86.14,141.07 88.15,166.60 90.15,171.63 92.15,168.94 94.16,167.00 96.16,181.15 98.16,185.40 100.17,190.82 102.17,186.59 104.17,193.81 106.18,198.97 108.18,197.31 110.18,197.88 112.19,201.02 114.19,203.57 116.19,202.37 118.20,203.89 120.20,198.49 122.20,198.80 124.21,202.59 126.21,196.17 128.21,187.28 130.22,181.01 132.22,173.61 134.22,168.49 136.23,181.08 138.23,180.39 140.23,159.72 142.24,173.91 144.24,151.59 146.24,145.98 148.25,123.28 150.25,134.40 152.25,119.17 154.26,104.28 156.26,112.65 158.26,87.49 160.27,80.71 162.27,107.58 164.27,97.62 166.28,91.37 168.28,77.92 170.28,64.98 172.29,80.74 174.29,56.49 176.29,59.66 178.30,64.55 180.30,54.39 182.30,56.00 184.31,38.42 186.31,40.15 188.31,36.57 190.32,36.92 192.32,36.34 194.32,36.69 196.33,38.41 198.33,41.37 200.33,37.57 202.34,37.42 204.34,48.86 206.34,51.23 208.35,56.55 210.35,44.96 212.35,70.07 214.36,87.12 216.36,56.89 218.36,78.27 220.37,97.94 222.37,98.11 224.37,117.36 226.38,99.00 228.38,95.92 230.38,90.05 232.39,147.08 234.39,110.32 236.39,141.51 238.40,156.86 240.40,171.03 242.40,157.20 244.41,168.10 246.41,177.83 248.41,160.12 250.42,184.48 252.42,175.94 254.42,190.28 256.43,196.32 258.43,181.31 260.43,192.19 262.44,203.99 264.44,203.10 266.44,203.48 268.45,202.61 270.45,203.98 272.45,203.51 274.46,203.18 276.46,196.18 278.46,190.46 280.47,197.94 282.47,201.09 284.47,171.69 286.48,195.44 288.48,157.71 290.48,160.55 292.49,180.21 294.49,188.77 296.49,160.81 298.50,180.45 300.50,162.05 302.50,127.47 304.51,99.38 306.51,158.14 308.51,110.13 310.52,123.33 312.52,81.32 314.52,64.70 316.53,82.98 318.53,109.06 320.53,78.37 322.54,70.01 324.54,90.39 326.54,48.62 328.55,83.76 330.55,75.16 332.55,39.44 334.56,65.08 336.56,36.16 338.56,47.99 340.57,36.54 342.57,36.01 344.57,36.61 346.58,36.16 348.58,43.35 350.58,38.40 352.59,37.24 354.59,60.70 356.59,57.27 358.60,47.31 360.60,36.02 362.60,41.43 364.61,68.19 366.61,55.77 368.61,50.00 370.62,54.68 372.62,63.39 374.62,57.84 376.63,87.22 378.63,101.60 380.63,84.39 382.64,97.73 384.64,85.66 386.64,92.04 388.65,175.96 390.65,164.11 392.65,175.36 394.66,182.07 396.66,115.37 398.66,156.87 400.67,142.06 402.67,153.05 404.67,199.71 406.68,188.71 408.68,202.21 410.68,182.01 412.69,202.25 414.69,188.61 416.69,199.78 418.70,202.06 420.70,201.64 422.70,201.70 424.71,199.89 426.71,192.29 428.71,197.71 430.72,184.88 432.72,204.00 434.72,196.32 436.73,203.92 438.73,169.77 440.73,148.15 442.74,136.67 444.74,183.81 446.74,169.32 448.75,113.68 450.75,145.41 452.75,184.07 454.76,170.39 456.76,156.33 458.76,169.34 460.77,88.42 462.77,158.43 464.77,126.81 466.78,119.83 468.78,52.78 470.78,144.10 472.79,55.50 474.79,100.10 476.79,47.82 478.80,76.53 480.80,77.24 482.80,93.83 484.81,73.37 486.81,36.02 488.81,54.21 490.82,47.27 492.82,43.21 494.82,59.47 496.83,37.34 498.83,46.55 500.83,36.45 502.84,42.28 504.84,40.39 506.84,39.59 508.85,48.13 510.85,38.66 512.85,66.48 514.86,47.44 516.86,41.54 518.86,93.18 520.87,92.41 522.87,44.00 524.87,41.42 526.88,78.81 528.88,69.69 530.88,44.87 532.89,46.08 534.89,70.54 536.89,69.29 538.90,74.18 540.90,111.23 542.90,93.77 544.91,149.39 546.91,179.65 548.91,179.70 550.92,88.27 552.92,176.30 554.92,154.75 556.93,151.29 558.93,203.99 560.93,134.26 562.94,174.51 564.94,200.68 566.94,198.61 568.95,183.64 570.95,165.96 572.95,194.20 574.96,196.97 576.96,200.18 578.96,192.48 580.97,201.97 582.97,190.87 584.97,198.49 586.98,182.05 588.98,197.23 590.98,176.25 592.99,166.34 594.99,203.23 596.99,204.00 599.00,181.10 601.00,109.66 603.01,186.84 605.01,187.06 607.01,104.90 609.02,198.43 611.02,153.43 613.02,177.51 615.03,77.35 617.03,139.85 619.03,134.77 621.04,139.10 623.04,94.46 625.04,157.47 627.05,115.01 629.05,46.44 631.05,51.99 633.06,83.42 635.06,37.15 637.06,45.11 639.07,42.41 641.07,81.52 643.07,36.21 645.08,89.25 647.08,40.96 649.08,36.09 651.09,83.99 653.09,80.15 655.09,58.51 657.10,42.06 659.10,37.31 661.10,36.54 663.11,61.17 665.11,107.32 667.11,103.02 669.12,95.36 671.12,36.86 673.12,101.28 675.13,107.71 677.13,96.02 679.13,36.00 681.14,104.55 683.14,48.33 685.14,63.68 687.15,54.69 689.15,61.15 691.15,49.90 693.16,47.88 695.16,78.72 697.16,83.52 699.17,71.25 701.17,105.52 703.17,99.93 705.18,139.24 707.18,154.64 709.18,121.11 711.19,200.54 713.19,97.47 715.19,169.33 717.20,169.13 719.20,203.98 721.20,176.24 723.21,194.72 725.21,146.89 727.21,155.46 729.22,197.82 731.22,203.27 733.22,168.39 735.23,169.69 737.23,196.08 739.23,203.28 741.24,134.29 743.24,187.45 745.24,148.20 747.25,119.94 749.25,200.34 751.25,101.97 753.26,114.07 755.26,87.71 757.26,142.66 759.27,71.12 761.27,89.49 763.27,155.01 765.28,65.56 767.28,197.83 769.28,197.97 771.29,82.09 773.29,61.75 775.29,188.05 777.30,97.94 779.30,43.48 781.30,63.60 783.31,94.48 785.31,121.64 787.31,147.93 789.32,108.94 791.32,41.13 793.32,136.82 795.33,36.02 797.33,109.60 799.33,51.02 801.34,106.09 803.34,45.53 805.34,36.59 807.35,56.84 809.35,79.64 811.35,45.49 813.36,54.72 815.36,54.59 817.36,106.92 819.37,76.63 821.37,40.14 823.37,77.30 825.38,69.33 827.38,36.01 829.38,37.05 831.39,39.86 833.39,97.70 835.39,180.09 837.40,147.94 839.40,183.90 841.40,144.11 843.41,132.57 845.41,192.37 847.41,38.95 849.42,132.14 851.42,187.66 853.42,203.92 855.43,173.73 857.43,201.46 859.43,203.28 861.44,203.10 863.44,113.29 865.44,107.74 867.45,140.36 869.45,186.69 871.45,97.81 873.46,131.56 875.46,122.14 877.46,202.52 879.47,162.38 881.47,202.89 883.47,197.92 885.48,174.79 887.48,154.91 889.48,198.90 891.49,130.63 893.49,192.71 895.49,201.35 897.50,203.54 899.50,122.10 901.50,158.67 903.51,186.87 905.51,74.97 907.51,196.85 909.52,167.28 911.52,101.17 913.52,201.12 915.53,98.93 917.53,163.58 919.53,186.68 921.54,196.78 923.54,52.34 925.54,60.17 927.55,200.01 929.55,167.68 931.55,152.57 933.56,123.98 935.56,61.65 937.56,68.64 939.57,39.69 941.57,47.17 943.57,165.12 945.58,80.68 947.58,45.49 949.58,131.12 951.59,143.42 953.59,85.43 955.59,48.13 957.60,46.63 959.60,77.58 961.60,37.98 963.61,39.39 965.61,71.94 967.61,103.00 969.62,53.44 971.62,44.38 973.62,36.01 975.63,66.92 977.63,135.98 979.63,51.21 981.64,57.43 983.64,50.99 985.64,122.65 987.65,47.83 989.65,42.81 991.65,36.01 993.66,79.56 995.66,37.83 997.66,38.55 999.67,82.08 1001.67,160.97 1003.67,50.69 1005.68,195.30 1007.68,40.98 1009.68,148.24 1011.69,136.42 1013.69,62.94 1015.69,202.22 1017.70,180.91 1019.70,186.19 1021.70,126.32 1023.71,171.18 1025.71,170.41 1027.71,179.02 1029.72,172.12 1031.72,197.46 1033.72,185.68 1035.73,168.17 1037.73,168.94 1039.73,203.91 1041.74,112.07 1043.74,164.56 1045.74,187.68 1047.75,179.33 1049.75,185.68 1051.75,159.24 1053.76,201.71 1055.76,197.86 1057.76,80.40 1059.77,98.08 1061.77,190.47 1063.77,201.86 1065.78,203.33 1067.78,119.03 1069.78,194.98 1071.79,41.16 1073.79,166.12 1075.79,203.62 1077.80,139.14 1079.80,118.06 1081.80,164.36 1083.81,122.54 1085.81,38.52 1087.81,188.13 1089.82,40.76 1091.82,157.57 1093.82,57.20 1095.83,54.65 1097.83,38.91 1099.83,99.62 1101.84,161.10 1103.84,133.14 1105.84,49.23 1107.85,39.36 1109.85,95.74 1111.85,90.01 1113.86,119.02 1115.86,77.64 1117.86,64.51 1119.87,97.57 1121.87,129.41 1123.87,61.66 1125.88,101.81 1127.88,70.74 1129.88,49.14 1131.89,83.70 1133.89,96.95 1135.89,139.92 1137.90,61.82 1139.90,50.03 1141.90,196.77 1143.91,58.84 1145.91,45.35 1147.91,157.48 1149.92,63.38 1151.92,41.02 1153.92,146.84 1155.93,154.45 1157.93,116.49 1159.93,36.01 1161.94,195.81 1163.94,202.55 1165.94,65.77 1167.95,144.15 1169.95,118.04 1171.95,95.95 1173.96,203.42 1175.96,186.81 1177.96,191.06 1179.97,59.55 1181.97,170.69 1183.97,185.03 1185.98,189.93 1187.98,187.59 1189.98,203.42 1191.99,192.91 1193.99,130.08 1195.99,139.74 1198.00,136.03 1200.00,203.52" fill="none" stroke="black" stroke-width="3" stroke-linecap="round" stroke-linejoin="round"/></svg>