<svg xmlns="http://www.w3.org/2000/svg" viewBox="0 0 1200 240" width="1200" height="240"><rect width="1200" height="240" fill="white"/><polyline points="0.00,120.00 2.00,110.35 4.01,101.31 6.01,93.40 8.01,87.06 10.02,82.57 12.02,80.04 14.02,79.39 16.03,80.35 18.03,82.51 20.03,85.36 22.04,88.33 24.04,90.82 26.04,92.34 28.05,92.45 30.05,90.90 32.05,87.62 34.06,82.69 36.06,76.39 38.06,69.15 40.07,61.51 42.07,54.06 44.07,47.38 46.08,42.02 48.08,38.39 50.08,36.76 52.09,37.24 54.09,39.73 56.09,43.97 58.10,49.52 60.10,55.87 62.10,62.42 64.11,68.59 66.11,73.85 68.11,77.76 70.12,80.07 72.12,80.67 74.12,79.64 76.13,77.26 78.13,73.94 80.13,70.19 82.14,66.61 84.14,63.76 86.14,62.18 88.15,62.26 90.15,64.27 92.15,68.30 94.16,74.24 96.16,81.82 98.16,90.59 100.17,100.03 102.17,109.52 104.17,118.49 106.18,126.38 108.18,132.76 110.18,137.36 112.19,140.07 114.19,140.96 116.19,140.31 118.20,138.50 120.20,136.08 122.20,133.60 124.21,131.64 126.21,130.73 128.21,131.26 130.22,133.51 132.22,137.55 134.22,143.28 136.23,150.43 138.23,158.55 140.23,167.12 142.24,175.54 144.24,183.21 146.24,189.60 148.25,194.29 150.25,196.99 152.25,197.60 154.26,196.23 156.26,193.12 158.26,188.70 160.27,183.49 162.27,178.09 164.27,173.06 166.28,168.94 168.28,166.15 170.28,164.96 172.29,165.46 174.29,167.57 176.29,171.00 178.30,175.36 180.30,180.10 182.30,184.65 184.31,188.43 186.31,190.91 188.31,191.68 190.32,190.47 192.32,187.20 194.32,181.97 196.33,175.05 198.33,166.88 200.33,157.99 202.34,148.99 204.34,140.45 206.34,132.93 208.35,126.86 210.35,122.50 212.35,119.98 214.36,119.20 216.36,119.92 218.36,121.71 220.37,124.06 222.37,126.40 224.37,128.15 226.38,128.80 228.38,127.93 230.38,125.29 232.39,120.80 234.39,114.56 236.39,106.85 238.40,98.10 240.40,88.86 242.40,79.72 244.41,71.27 246.41,64.05 248.41,58.51 250.42,54.90 252.42,53.34 254.42,53.74 256.43,55.83 258.43,59.21 260.43,63.36 262.44,67.68 264.44,71.60 266.44,74.60 268.45,76.26 270.45,76.31 272.45,74.66 274.46,71.42 276.46,66.84 278.46,61.35 280.47,55.49 282.47,49.83 284.47,44.96 286.48,41.41 288.48,39.60 290.48,39.79 292.49,42.07 294.49,46.35 296.49,52.35 298.50,59.65 300.50,67.71 302.50,75.93 304.51,83.73 306.51,90.56 308.51,96.00 310.52,99.77 312.52,101.77 314.52,102.09 316.53,100.97 318.53,98.84 320.53,96.20 322.54,93.65 324.54,91.74 326.54,91.00 328.55,91.85 330.55,94.52 332.55,99.12 334.56,105.53 336.56,113.47 338.56,122.51 340.57,132.11 342.57,141.67 344.57,150.60 346.58,158.35 348.58,164.49 350.58,168.74 352.59,171.00 354.59,171.35 356.59,170.05 358.60,167.51 360.60,164.25 362.60,160.85 364.61,157.89 366.61,155.88 368.61,155.25 370.62,156.25 372.62,158.97 374.62,163.31 376.63,169.00 378.63,175.61 380.63,182.61 382.64,189.41 384.64,195.42 386.64,200.11 388.65,203.06 390.65,204.00 392.65,202.83 394.66,199.65 396.66,194.74 398.66,188.50 400.67,181.48 402.67,174.26 404.67,167.43 406.68,161.53 408.68,156.99 410.68,154.07 412.69,152.88 414.69,153.33 416.69,155.16 418.70,157.96 420.70,161.20 422.70,164.31 424.71,166.72 426.71,167.89 428.71,167.43 430.72,165.06 432.72,160.72 434.72,154.50 436.73,146.69 438.73,137.71 440.73,128.10 442.74,118.47 444.74,109.41 446.74,101.47 448.75,95.07 450.75,90.50 452.75,87.85 454.76,87.06 456.76,87.86 458.76,89.83 460.77,92.48 462.77,95.21 464.77,97.45 466.78,98.69 468.78,98.50 470.78,96.64 472.79,93.02 474.79,87.74 476.79,81.08 478.80,73.46 480.80,65.42 482.80,57.56 484.81,50.46 486.81,44.67 488.81,40.60 490.82,38.53 492.82,38.56 494.82,40.60 496.83,44.37 498.83,49.47 500.83,55.36 502.84,61.46 504.84,67.17 506.84,71.98 508.85,75.45 510.85,77.32 512.85,77.49 514.86,76.05 516.86,73.26 518.86,69.54 520.87,65.42 522.87,61.48 524.87,58.28 526.88,56.37 528.88,56.14 530.88,57.86 532.89,61.62 534.89,67.31 536.89,74.65 538.90,83.22 540.90,92.48 542.90,101.82 544.91,110.65 546.91,118.44 548.91,124.74 550.92,129.28 552.92,131.96 554.92,132.85 556.93,132.21 558.93,130.46 560.93,128.10 562.94,125.72 564.94,123.89 566.94,123.12 568.95,123.83 570.95,126.28 572.95,130.54 574.96,136.51 576.96,143.92 578.96,152.33 580.97,161.20 582.97,169.94 584.97,177.96 586.98,184.71 588.98,189.77 590.98,192.85 592.99,193.87 594.99,192.91 596.99,190.23 599.00,186.24 601.00,181.48 603.01,176.51 605.01,171.94 607.01,168.28 609.02,165.95 611.02,165.22 613.02,166.18 615.03,168.74 617.03,172.63 619.03,177.43 621.04,182.61 623.04,187.59 625.04,191.79 627.05,194.68 629.05,195.85 631.05,195.03 633.06,192.13 635.06,187.26 637.06,180.68 639.07,172.83 641.07,164.25 643.07,155.52 645.08,147.25 647.08,139.97 649.08,134.11 651.09,129.95 653.09,127.60 655.09,126.97 657.10,127.80 659.10,129.69 661.10,132.11 663.11,134.50 665.11,136.27 667.11,136.91 669.12,136.01 671.12,133.31 673.12,128.73 675.13,122.38 677.13,114.54 679.13,105.63 681.14,96.20 683.14,86.85 685.14,78.18 687.15,70.71 689.15,64.89 691.15,60.99 693.16,59.12 695.16,59.18 697.16,60.93 699.17,63.94 701.17,67.71 703.17,71.63 705.18,75.15 707.18,77.73 709.18,78.96 711.19,78.57 713.19,76.48 715.19,72.79 717.20,67.76 719.20,61.81 721.20,55.49 723.21,49.37 725.21,44.04 727.21,40.04 729.22,37.78 731.22,37.52 733.22,39.37 735.23,43.22 737.23,48.80 739.23,55.69 741.24,63.36 743.24,71.20 745.24,78.63 747.25,85.11 749.25,90.23 751.25,93.68 753.26,95.39 755.26,95.43 757.26,94.06 759.27,91.70 761.27,88.86 763.27,86.12 765.28,84.05 767.28,83.18 769.28,83.91 771.29,86.51 773.29,91.04 775.29,97.42 777.30,105.35 779.30,114.41 781.30,124.06 783.31,133.69 785.31,142.71 787.31,150.58 789.32,156.87 791.32,161.29 793.32,163.74 795.33,164.31 797.33,163.25 799.33,160.97 801.34,157.99 803.34,154.90 805.34,152.26 807.35,150.59 809.35,150.31 811.35,151.68 813.36,154.79 815.36,159.53 817.36,165.63 819.37,172.67 821.37,180.10 823.37,187.34 825.38,193.80 827.38,198.94 829.38,202.35 831.39,203.75 833.39,203.04 835.39,200.32 837.40,195.85 839.40,190.07 841.40,183.49 843.41,176.72 845.41,170.32 847.41,164.85 849.42,160.72 851.42,158.20 853.42,157.40 855.43,158.23 857.43,160.41 859.43,163.55 861.44,167.12 863.44,170.54 865.44,173.22 867.45,174.66 869.45,174.44 871.45,172.30 873.46,168.15 875.46,162.10 877.46,154.44 879.47,145.58 881.47,136.08 883.47,126.52 885.48,117.51 887.48,109.59 889.48,103.18 891.49,98.58 893.49,95.88 895.49,95.00 897.50,95.69 899.50,97.54 901.50,100.03 903.51,102.57 905.51,104.61 907.51,105.62 909.52,105.19 911.52,103.06 913.52,99.15 915.53,93.55 917.53,86.56 919.53,78.59 921.54,70.19 923.54,61.95 925.54,54.46 927.55,48.26 929.55,43.78 931.55,41.28 933.56,40.88 935.56,42.47 937.56,45.80 939.57,50.44 941.57,55.87 943.57,61.51 945.58,66.76 947.58,71.11 949.58,74.13 951.59,75.55 953.59,75.27 955.59,73.39 957.60,70.18 959.60,66.04 961.60,61.51 963.61,57.17 965.61,53.59 967.61,51.31 969.62,50.73 971.62,52.12 973.62,55.56 975.63,60.96 977.63,68.03 979.63,76.34 981.64,85.36 983.64,94.50 985.64,103.14 987.65,110.76 989.65,116.93 991.65,121.36 993.66,123.95 995.66,124.78 997.66,124.10 999.67,122.34 1001.67,120.00 1003.67,117.66 1005.68,115.90 1007.68,115.22 1009.68,116.05 1011.69,118.64 1013.69,123.07 1015.69,129.24 1017.70,136.86 1019.70,145.50 1021.70,154.64 1023.71,163.66 1025.71,171.97 1027.71,179.04 1029.72,184.44 1031.72,187.88 1033.72,189.27 1035.73,188.69 1037.73,186.41 1039.73,182.83 1041.74,178.49 1043.74,173.96 1045.74,169.82 1047.75,166.61 1049.75,164.73 1051.75,164.45 1053.76,165.87 1055.76,168.89 1057.76,173.24 1059.77,178.49 1061.77,184.13 1063.77,189.56 1065.78,194.20 1067.78,197.53 1069.78,199.12 1071.79,198.72 1073.79,196.22 1075.79,191.74 1077.80,185.54 1079.80,178.05 1081.80,169.81 1083.81,161.41 1085.81,153.44 1087.81,146.45 1089.82,140.85 1091.82,136.94 1093.82,134.81 1095.83,134.38 1097.83,135.39 1099.83,137.43 1101.84,139.97 1103.84,142.46 1105.84,144.31 1107.85,145.00 1109.85,144.12 1111.85,141.42 1113.86,136.82 1115.86,130.41 1117.86,122.49 1119.87,113.48 1121.87,103.92 1123.87,94.42 1125.88,85.56 1127.88,77.90 1129.88,71.85 1131.89,67.70 1133.89,65.56 1135.89,65.34 1137.90,66.78 1139.90,69.46 1141.90,72.88 1143.91,76.45 1145.91,79.59 1147.91,81.77 1149.92,82.60 1151.92,81.80 1153.92,79.28 1155.93,75.15 1157.93,69.68 1159.93,63.28 1161.94,56.51 1163.94,49.93 1165.94,44.15 1167.95,39.68 1169.95,36.96 1171.95,36.25 1173.96,37.65 1175.96,41.06 1177.96,46.20 1179.97,52.66 1181.97,59.90 1183.97,67.33 1185.98,74.37 1187.98,80.47 1189.98,85.21 1191.99,88.32 1193.99,89.69 1195.99,89.41 1198.00,87.74 1200.00,85.10" fill="none" stroke="black" stroke-width="3" stroke-linecap="round" stroke-linejoin="round"/></svg>