<svg xmlns="http://www.w3.org/2000/svg" viewBox="0 0 1200 240" width="1200" height="240"><rect width="1200" height="240" fill="white"/><polyline points="0.00,120.97 2.00,94.17 4.01,52.91 6.01,98.99 8.01,38.44 10.02,169.18 12.02,109.67 14.02,151.73 16.03,49.28 18.03,130.60 20.03,143.16 22.04,143.50 24.04,83.29 26.04,167.72 28.05,76.79 30.05,127.78 32.05,113.12 34.06,126.73 36.06,189.37 38.06,69.45 40.07,62.52 42.07,165.83 44.07,46.17 46.08,55.68 48.08,115.82 50.08,66.77 52.09,201.09 54.09,40.45 56.09,165.27 58.10,62.39 60.10,79.60 62.10,177.21 64.11,36.43 66.11,164.05 68.11,55.64 70.12,97.41 72.12,130.59 74.12,77.74 76.13,174.23 78.13,52.59 80.13,38.42 82.14,109.79 84.14,109.33 86.14,105.89 88.15,91.90 90.15,161.95 92.15,117.74 94.16,125.96 96.16,138.56 98.16,64.66 100.17,117.92 102.17,183.93 104.17,54.49 106.18,191.65 108.18,134.05 110.18,70.06 112.19,90.05 114.19,128.17 116.19,133.65 118.20,68.05 120.20,202.65 122.20,191.31 124.21,87.89 126.21,58.51 128.21,171.54 130.22,54.35 132.22,103.38 134.22,127.84 136.23,44.91 138.23,179.92 140.23,196.08 142.24,37.36 144.24,90.69 146.24,136.24 148.25,94.65 150.25,88.69 152.25,48.86 154.26,40.06 156.26,150.00 158.26,100.30 160.27,189.02 162.27,148.46 164.27,50.81 166.28,169.37 168.28,116.89 170.28,139.61 172.29,175.55 174.29,104.17 176.29,148.80 178.30,143.69 180.30,153.59 182.30,148.00 184.31,127.54 186.31,166.34 188.31,112.31 190.32,81.93 192.32,48.21 194.32,139.77 196.33,155.55 198.33,86.78 200.33,189.19 202.34,95.73 204.34,134.21 206.34,170.76 208.35,43.74 210.35,162.44 212.35,47.20 214.36,42.57 216.36,101.85 218.36,171.13 220.37,100.06 222.37,171.96 224.37,103.67 226.38,112.35 228.38,65.14 230.38,83.44 232.39,150.62 234.39,122.70 236.39,49.54 238.40,70.26 240.40,116.22 242.40,86.59 244.41,119.28 246.41,124.56 248.41,147.08 250.42,152.69 252.42,90.83 254.42,184.37 256.43,188.73 258.43,164.10 260.43,55.31 262.44,59.24 264.44,94.78 266.44,176.45 268.45,184.09 270.45,65.97 272.45,149.32 274.46,136.12 276.46,95.12 278.46,99.96 280.47,49.21 282.47,141.18 284.47,202.31 286.48,61.19 288.48,178.63 290.48,166.06 292.49,123.13 294.49,74.78 296.49,70.21 298.50,141.75 300.50,64.87 302.50,180.24 304.51,197.53 306.51,128.85 308.51,54.69 310.52,149.78 312.52,144.98 314.52,203.01 316.53,191.78 318.53,49.15 320.53,90.98 322.54,90.85 324.54,81.92 326.54,92.71 328.55,124.29 330.55,176.15 332.55,112.23 334.56,57.55 336.56,194.41 338.56,144.12 340.57,170.64 342.57,60.58 344.57,184.89 346.58,178.42 348.58,132.05 350.58,191.42 352.59,135.19 354.59,90.01 356.59,185.97 358.60,52.82 360.60,196.90 362.60,38.70 364.61,58.67 366.61,201.92 368.61,89.36 370.62,123.08 372.62,172.60 374.62,77.98 376.63,171.77 378.63,180.25 380.63,102.92 382.64,127.44 384.64,196.62 386.64,38.30 388.65,94.11 390.65,77.10 392.65,74.53 394.66,164.80 396.66,196.21 398.66,176.94 400.67,118.55 402.67,165.16 404.67,84.68 406.68,53.54 408.68,127.67 410.68,39.46 412.69,42.87 414.69,58.12 416.69,138.80 418.70,181.43 420.70,202.51 422.70,138.64 424.71,59.18 426.71,58.66 428.71,194.25 430.72,163.69 432.72,131.56 434.72,148.49 436.73,186.21 438.73,137.08 440.73,147.86 442.74,145.43 444.74,73.85 446.74,132.45 448.75,53.37 450.75,97.06 452.75,119.35 454.76,68.31 456.76,78.55 458.76,91.97 460.77,140.03 462.77,39.90 464.77,148.78 466.78,132.82 468.78,65.69 470.78,105.19 472.79,90.69 474.79,91.79 476.79,59.82 478.80,74.57 480.80,68.14 482.80,92.65 484.81,107.08 486.81,176.21 488.81,143.56 490.82,68.20 492.82,193.11 494.82,67.88 496.83,134.88 498.83,74.23 500.83,110.50 502.84,64.41 504.84,55.52 506.84,50.83 508.85,163.51 510.85,113.15 512.85,99.91 514.86,146.44 516.86,135.34 518.86,155.28 520.87,171.94 522.87,48.67 524.87,180.48 526.88,191.05 528.88,193.54 530.88,131.15 532.89,124.10 534.89,108.75 536.89,181.77 538.90,190.30 540.90,142.36 542.90,139.09 544.91,128.05 546.91,154.86 548.91,177.60 550.92,203.81 552.92,76.30 554.92,38.83 556.93,40.77 558.93,65.76 560.93,68.02 562.94,61.81 564.94,36.73 566.94,97.18 568.95,131.74 570.95,114.95 572.95,127.00 574.96,195.63 576.96,113.85 578.96,69.76 580.97,110.68 582.97,93.40 584.97,65.76 586.98,170.51 588.98,180.73 590.98,72.56 592.99,161.23 594.99,99.34 596.99,152.94 599.00,67.84 601.00,122.86 603.01,67.17 605.01,164.11 607.01,82.75 609.02,36.00 611.02,130.65 613.02,187.25 615.03,64.56 617.03,135.42 619.03,97.39 621.04,149.35 623.04,36.74 625.04,89.33 627.05,138.47 629.05,102.27 631.05,91.12 633.06,67.83 635.06,194.65 637.06,76.05 639.07,63.67 641.07,151.67 643.07,137.92 645.08,171.69 647.08,106.74 649.08,176.68 651.09,160.27 653.09,160.28 655.09,133.99 657.10,153.18 659.10,76.35 661.10,128.58 663.11,59.34 665.11,45.20 667.11,152.90 669.12,103.28 671.12,96.75 673.12,66.74 675.13,56.08 677.13,188.15 679.13,88.60 681.14,47.42 683.14,197.67 685.14,45.22 687.15,194.74 689.15,105.48 691.15,87.52 693.16,92.78 695.16,43.01 697.16,131.33 699.17,45.20 701.17,180.71 703.17,107.13 705.18,158.37 707.18,52.73 709.18,200.31 711.19,111.96 713.19,37.98 715.19,137.49 717.20,52.92 719.20,91.82 721.20,129.57 723.21,179.94 725.21,141.69 727.21,162.00 729.22,135.15 731.22,120.45 733.22,117.78 735.23,109.91 737.23,59.98 739.23,176.47 741.24,39.20 743.24,195.49 745.24,116.97 747.25,174.90 749.25,74.64 751.25,165.84 753.26,165.58 755.26,114.75 757.26,77.96 759.27,203.30 761.27,176.56 763.27,182.74 765.28,87.87 767.28,108.18 769.28,179.80 771.29,123.37 773.29,87.39 775.29,129.35 777.30,118.66 779.30,163.63 781.30,97.46 783.31,74.29 785.31,39.24 787.31,49.63 789.32,167.57 791.32,43.63 793.32,178.07 795.33,133.47 797.33,197.99 799.33,99.41 801.34,185.25 803.34,161.17 805.34,156.10 807.35,161.10 809.35,41.54 811.35,38.66 813.36,120.43 815.36,97.08 817.36,65.07 819.37,66.39 821.37,190.35 823.37,148.16 825.38,93.66 827.38,74.51 829.38,75.31 831.39,143.32 833.39,144.01 835.39,125.30 837.40,100.03 839.40,187.66 841.40,62.20 843.41,200.94 845.41,53.68 847.41,56.39 849.42,65.30 851.42,166.87 853.42,142.75 855.43,189.90 857.43,202.66 859.43,178.23 861.44,66.52 863.44,126.08 865.44,73.04 867.45,145.10 869.45,140.77 871.45,198.56 873.46,67.74 875.46,154.18 877.46,36.63 879.47,133.05 881.47,122.74 883.47,46.51 885.48,145.69 887.48,83.58 889.48,46.06 891.49,94.08 893.49,104.51 895.49,61.57 897.50,188.60 899.50,74.87 901.50,181.75 903.51,74.66 905.51,113.15 907.51,126.62 909.52,193.03 911.52,53.63 913.52,69.87 915.53,51.76 917.53,144.33 919.53,164.76 921.54,127.38 923.54,153.04 925.54,83.69 927.55,87.36 929.55,196.85 931.55,127.20 933.56,83.23 935.56,202.37 937.56,129.47 939.57,187.49 941.57,196.14 943.57,120.94 945.58,135.49 947.58,86.35 949.58,120.27 951.59,72.46 953.59,145.28 955.59,133.96 957.60,114.89 959.60,42.31 961.60,116.50 963.61,104.63 965.61,171.63 967.61,55.36 969.62,63.13 971.62,72.41 973.62,101.12 975.63,192.43 977.63,95.61 979.63,163.10 981.64,156.82 983.64,114.45 985.64,100.43 987.65,98.18 989.65,155.29 991.65,106.86 993.66,106.93 995.66,144.90 997.66,113.21 999.67,81.65 1001.67,148.49 1003.67,141.12 1005.68,103.12 1007.68,195.47 1009.68,115.22 1011.69,80.50 1013.69,47.83 1015.69,157.08 1017.70,177.98 1019.70,63.30 1021.70,140.90 1023.71,56.38 1025.71,41.51 1027.71,43.37 1029.72,120.73 1031.72,139.89 1033.72,194.05 1035.73,62.90 1037.73,37.88 1039.73,155.58 1041.74,77.04 1043.74,63.91 1045.74,150.36 1047.75,103.71 1049.75,86.37 1051.75,192.64 1053.76,141.31 1055.76,40.30 1057.76,187.64 1059.77,53.81 1061.77,88.87 1063.77,179.74 1065.78,110.18 1067.78,68.30 1069.78,42.38 1071.79,49.13 1073.79,169.12 1075.79,150.73 1077.80,118.16 1079.80,95.57 1081.80,79.21 1083.81,139.38 1085.81,158.12 1087.81,43.88 1089.82,38.31 1091.82,141.80 1093.82,53.19 1095.83,94.79 1097.83,162.97 1099.83,158.67 1101.84,162.76 1103.84,53.83 1105.84,51.68 1107.85,89.07 1109.85,177.22 1111.85,71.94 1113.86,39.77 1115.86,183.39 1117.86,104.51 1119.87,186.12 1121.87,166.50 1123.87,58.59 1125.88,115.77 1127.88,97.75 1129.88,77.86 1131.89,64.83 1133.89,133.51 1135.89,97.60 1137.90,69.14 1139.90,95.50 1141.90,122.93 1143.91,98.06 1145.91,201.87 1147.91,68.28 1149.92,72.71 1151.92,169.91 1153.92,70.11 1155.93,97.14 1157.93,165.16 1159.93,165.69 1161.94,70.20 1163.94,164.99 1165.94,85.70 1167.95,173.61 1169.95,156.96 1171.95,97.78 1173.96,83.53 1175.96,201.86 1177.96,131.33 1179.97,171.96 1181.97,45.69 1183.97,80.81 1185.98,108.20 1187.98,124.22 1189.98,175.68 1191.99,143.16 1193.99,177.38 1195.99,170.43 1198.00,99.58 1200.00,59.02" fill="none" stroke="black" stroke-width="3" stroke-linecap="round" stroke-linejoin="round"/></svg>