<svg xmlns="http://www.w3.org/2000/svg" viewBox="0 0 1200 240" width="1200" height="240"><rect width="1200" height="240" fill="white"/><polyline points="0.00,85.64 2.00,147.49 4.01,56.23 6.01,199.45 8.01,201.36 10.02,184.85 12.02,53.75 14.02,71.01 16.03,61.51 18.03,196.01 20.03,38.99 22.04,53.46 24.04,101.63 26.04,61.04 28.05,43.21 30.05,135.96 32.05,113.87 34.06,46.47 36.06,79.83 38.06,71.28 40.07,188.40 42.07,123.23 44.07,83.10 46.08,55.23 48.08,108.65 50.08,124.20 52.09,42.53 54.09,122.42 56.09,159.10 58.10,198.22 60.10,172.07 62.10,90.26 64.11,151.16 66.11,183.84 68.11,42.26 70.12,181.54 72.12,89.38 74.12,70.57 76.13,167.46 78.13,79.27 80.13,110.99 82.14,164.15 84.14,94.21 86.14,36.95 88.15,78.25 90.15,74.95 92.15,60.79 94.16,109.52 96.16,197.08 98.16,42.96 100.17,143.50 102.17,74.45 104.17,173.92 106.18,50.16 108.18,195.31 110.18,126.76 112.19,117.29 114.19,74.58 116.19,163.15 118.20,140.31 120.20,47.47 122.20,117.71 124.21,190.65 126.21,152.26 128.21,129.78 130.22,180.61 132.22,76.54 134.22,198.69 136.23,101.77 138.23,158.73 140.23,169.65 142.24,160.60 144.24,160.08 146.24,170.27 148.25,115.87 150.25,67.68 152.25,120.51 154.26,150.97 156.26,121.87 158.26,73.20 160.27,132.02 162.27,189.54 164.27,180.73 166.28,112.42 168.28,159.32 170.28,160.33 172.29,94.92 174.29,176.76 176.29,128.32 178.30,197.52 180.30,73.98 182.30,113.21 184.31,72.60 186.31,99.06 188.31,121.57 190.32,38.24 192.32,163.69 194.32,87.19 196.33,119.27 198.33,121.62 200.33,81.64 202.34,97.46 204.34,176.33 206.34,114.79 208.35,149.88 210.35,86.37 212.35,40.23 214.36,162.69 216.36,79.95 218.36,80.70 220.37,92.49 222.37,120.70 224.37,200.85 226.38,85.23 228.38,45.62 230.38,153.58 232.39,39.24 234.39,117.27 236.39,181.88 238.40,146.62 240.40,202.56 242.40,185.64 244.41,99.34 246.41,156.97 248.41,70.97 250.42,178.32 252.42,95.44 254.42,181.20 256.43,60.20 258.43,49.93 260.43,194.33 262.44,57.12 264.44,184.98 266.44,82.02 268.45,190.96 270.45,127.33 272.45,87.84 274.46,58.17 276.46,39.26 278.46,142.25 280.47,129.88 282.47,79.39 284.47,127.35 286.48,83.89 288.48,101.27 290.48,191.87 292.49,185.73 294.49,62.00 296.49,108.41 298.50,40.48 300.50,38.60 302.50,162.29 304.51,155.47 306.51,200.87 308.51,66.35 310.52,73.39 312.52,137.66 314.52,198.84 316.53,113.11 318.53,95.23 320.53,52.87 322.54,86.82 324.54,133.63 326.54,167.98 328.55,76.32 330.55,46.11 332.55,165.32 334.56,38.98 336.56,123.25 338.56,177.80 340.57,59.55 342.57,149.04 344.57,159.74 346.58,147.70 348.58,131.50 350.58,153.86 352.59,195.60 354.59,134.05 356.59,49.11 358.60,144.66 360.60,147.28 362.60,73.19 364.61,42.15 366.61,97.71 368.61,37.38 370.62,140.08 372.62,106.47 374.62,105.11 376.63,169.73 378.63,150.55 380.63,147.05 382.64,203.60 384.64,176.44 386.64,170.23 388.65,181.62 390.65,110.23 392.65,64.30 394.66,171.14 396.66,202.44 398.66,200.04 400.67,169.79 402.67,88.89 404.67,65.25 406.68,78.85 408.68,160.94 410.68,137.69 412.69,183.90 414.69,142.93 416.69,121.60 418.70,83.47 420.70,192.69 422.70,81.80 424.71,38.85 426.71,60.51 428.71,49.54 430.72,172.45 432.72,57.87 434.72,80.99 436.73,89.30 438.73,60.05 440.73,73.63 442.74,38.24 444.74,193.38 446.74,150.11 448.75,121.99 450.75,180.88 452.75,198.36 454.76,40.73 456.76,198.71 458.76,176.66 460.77,188.77 462.77,113.53 464.77,161.34 466.78,189.92 468.78,117.81 470.78,158.20 472.79,155.55 474.79,156.95 476.79,47.18 478.80,47.04 480.80,168.29 482.80,182.76 484.81,94.62 486.81,157.56 488.81,80.65 490.82,131.07 492.82,170.45 494.82,201.77 496.83,143.20 498.83,170.97 500.83,123.61 502.84,117.87 504.84,132.07 506.84,196.45 508.85,76.52 510.85,126.55 512.85,117.14 514.86,62.87 516.86,122.30 518.86,197.96 520.87,50.75 522.87,65.03 524.87,66.75 526.88,189.56 528.88,177.54 530.88,138.60 532.89,152.73 534.89,56.02 536.89,154.09 538.90,63.59 540.90,65.05 542.90,112.75 544.91,64.94 546.91,126.16 548.91,136.32 550.92,166.07 552.92,76.76 554.92,144.86 556.93,59.95 558.93,42.99 560.93,75.33 562.94,155.69 564.94,95.01 566.94,146.44 568.95,197.04 570.95,101.90 572.95,194.92 574.96,181.82 576.96,161.89 578.96,170.53 580.97,86.33 582.97,76.94 584.97,187.76 586.98,92.90 588.98,80.58 590.98,176.81 592.99,56.31 594.99,81.99 596.99,173.01 599.00,188.06 601.00,108.43 603.01,89.08 605.01,126.34 607.01,79.27 609.02,100.92 611.02,84.60 613.02,128.20 615.03,87.45 617.03,188.95 619.03,58.81 621.04,174.10 623.04,83.92 625.04,78.89 627.05,43.43 629.05,192.93 631.05,37.94 633.06,85.16 635.06,92.54 637.06,143.16 639.07,202.63 641.07,62.70 643.07,83.81 645.08,60.11 647.08,91.87 649.08,107.38 651.09,63.73 653.09,151.93 655.09,54.78 657.10,159.14 659.10,92.09 661.10,145.66 663.11,125.73 665.11,192.14 667.11,44.10 669.12,139.88 671.12,41.61 673.12,154.50 675.13,64.11 677.13,135.81 679.13,176.63 681.14,98.73 683.14,102.21 685.14,130.78 687.15,40.36 689.15,60.52 691.15,45.74 693.16,125.77 695.16,182.06 697.16,77.89 699.17,102.26 701.17,167.24 703.17,191.77 705.18,50.52 707.18,42.49 709.18,97.77 711.19,185.83 713.19,201.38 715.19,114.19 717.20,106.52 719.20,201.54 721.20,48.87 723.21,155.06 725.21,143.74 727.21,142.62 729.22,52.04 731.22,73.88 733.22,201.30 735.23,145.73 737.23,51.55 739.23,178.72 741.24,179.61 743.24,61.87 745.24,109.64 747.25,39.52 749.25,199.20 751.25,136.21 753.26,122.98 755.26,46.46 757.26,114.09 759.27,42.02 761.27,167.41 763.27,187.17 765.28,192.54 767.28,93.30 769.28,111.21 771.29,187.72 773.29,168.78 775.29,148.19 777.30,62.77 779.30,76.78 781.30,134.21 783.31,129.11 785.31,71.90 787.31,112.10 789.32,69.04 791.32,108.09 793.32,159.36 795.33,73.12 797.33,165.82 799.33,180.90 801.34,162.47 803.34,95.38 805.34,70.84 807.35,52.29 809.35,45.42 811.35,83.66 813.36,73.40 815.36,173.98 817.36,52.09 819.37,144.71 821.37,65.05 823.37,90.56 825.38,53.25 827.38,91.18 829.38,154.65 831.39,137.94 833.39,60.13 835.39,137.48 837.40,116.34 839.40,147.07 841.40,109.55 843.41,48.21 845.41,84.53 847.41,197.12 849.42,183.94 851.42,181.50 853.42,43.85 855.43,186.88 857.43,51.92 859.43,44.75 861.44,168.93 863.44,70.82 865.44,99.49 867.45,144.73 869.45,185.37 871.45,204.00 873.46,86.09 875.46,170.62 877.46,66.54 879.47,50.38 881.47,152.80 883.47,198.85 885.48,157.84 887.48,197.44 889.48,50.92 891.49,120.38 893.49,166.69 895.49,70.62 897.50,157.09 899.50,186.03 901.50,151.90 903.51,111.05 905.51,87.35 907.51,143.23 909.52,113.40 911.52,92.91 913.52,48.59 915.53,184.14 917.53,150.53 919.53,38.42 921.54,42.81 923.54,108.09 925.54,190.96 927.55,147.05 929.55,88.81 931.55,112.24 933.56,55.02 935.56,143.41 937.56,83.36 939.57,128.50 941.57,194.25 943.57,196.35 945.58,69.97 947.58,141.14 949.58,172.41 951.59,152.09 953.59,42.51 955.59,142.84 957.60,159.10 959.60,135.33 961.60,49.26 963.61,199.42 965.61,47.19 967.61,75.49 969.62,89.81 971.62,198.35 973.62,67.76 975.63,82.98 977.63,108.13 979.63,143.74 981.64,103.80 983.64,46.05 985.64,125.71 987.65,113.02 989.65,166.51 991.65,73.05 993.66,159.49 995.66,78.47 997.66,197.36 999.67,150.34 1001.67,107.24 1003.67,175.85 1005.68,169.55 1007.68,86.30 1009.68,145.48 1011.69,140.19 1013.69,74.34 1015.69,112.76 1017.70,101.36 1019.70,99.05 1021.70,66.28 1023.71,59.64 1025.71,154.65 1027.71,98.38 1029.72,144.50 1031.72,121.78 1033.72,142.66 1035.73,107.17 1037.73,56.13 1039.73,60.13 1041.74,146.92 1043.74,123.57 1045.74,92.30 1047.75,130.80 1049.75,117.06 1051.75,80.24 1053.76,51.41 1055.76,175.90 1057.76,172.10 1059.77,162.56 1061.77,189.44 1063.77,188.44 1065.78,52.97 1067.78,67.07 1069.78,160.28 1071.79,141.51 1073.79,104.89 1075.79,120.86 1077.80,152.78 1079.80,62.97 1081.80,51.11 1083.81,163.65 1085.81,106.20 1087.81,163.90 1089.82,185.26 1091.82,105.90 1093.82,50.07 1095.83,123.77 1097.83,164.52 1099.83,145.16 1101.84,146.32 1103.84,137.94 1105.84,36.03 1107.85,185.08 1109.85,82.71 1111.85,82.81 1113.86,155.98 1115.86,56.46 1117.86,44.84 1119.87,110.92 1121.87,107.34 1123.87,68.18 1125.88,189.84 1127.88,112.54 1129.88,138.62 1131.89,172.11 1133.89,83.32 1135.89,91.17 1137.90,179.48 1139.90,82.03 1141.90,69.00 1143.91,44.62 1145.91,67.83 1147.91,111.97 1149.92,36.96 1151.92,89.52 1153.92,150.21 1155.93,159.19 1157.93,97.36 1159.93,122.86 1161.94,73.74 1163.94,123.85 1165.94,181.11 1167.95,136.20 1169.95,82.69 1171.95,118.34 1173.96,52.56 1175.96,132.38 1177.96,101.28 1179.97,99.45 1181.97,148.84 1183.97,109.90 1185.98,44.67 1187.98,88.94 1189.98,143.38 1191.99,105.41 1193.99,42.49 1195.99,141.31 1198.00,135.67 1200.00,84.92" fill="none" stroke="black" stroke-width="3" stroke-linecap="round" stroke-linejoin="round"/></svg>