<svg xmlns="http://www.w3.org/2000/svg" viewBox="0 0 1200 240" width="1200" height="240"><rect width="1200" height="240" fill="white"/><polyline points="0.00,120.00 2.00,113.28 4.01,106.09 6.01,99.76 8.01,93.32 10.02,86.07 12.02,80.95 14.02,74.10 16.03,68.93 18.03,62.99 20.03,57.63 22.04,53.50 24.04,49.16 26.04,45.19 28.05,43.58 30.05,40.79 32.05,38.92 34.06,37.09 36.06,36.09 38.06,36.21 40.07,36.57 42.07,36.92 44.07,37.70 46.08,39.78 48.08,42.01 50.08,43.72 52.09,47.04 54.09,48.49 56.09,54.63 58.10,58.83 60.10,69.73 62.10,72.93 64.11,84.56 66.11,80.04 68.11,92.05 70.12,97.55 72.12,111.25 74.12,105.14 76.13,124.19 78.13,115.04 80.13,131.97 82.14,127.01 84.14,154.17 86.14,155.44 88.15,151.71 90.15,167.95 92.15,175.41 94.16,165.20 96.16,169.38 98.16,181.19 100.17,180.56 102.17,193.19 104.17,194.94 106.18,195.80 108.18,202.09 110.18,203.50 112.19,202.87 114.19,203.91 116.19,203.63 118.20,203.85 120.20,203.16 122.20,195.56 124.21,201.65 126.21,197.24 128.21,188.56 130.22,196.16 132.22,193.70 134.22,182.30 136.23,175.61 138.23,174.10 140.23,172.47 142.24,156.43 144.24,139.12 146.24,146.44 148.25,141.79 150.25,139.03 152.25,123.07 154.26,101.90 156.26,131.71 158.26,118.23 160.27,117.98 162.27,85.01 164.27,81.30 166.28,89.37 168.28,87.68 170.28,81.65 172.29,77.15 174.29,58.07 176.29,44.04 178.30,42.63 180.30,38.30 182.30,52.42 184.31,48.48 186.31,36.12 188.31,41.91 190.32,36.05 192.32,37.08 194.32,36.60 196.33,36.49 198.33,37.43 200.33,51.39 202.34,48.22 204.34,48.84 206.34,46.59 208.35,55.56 210.35,60.30 212.35,57.46 214.36,65.45 216.36,55.18 218.36,65.94 220.37,87.05 222.37,111.16 224.37,84.28 226.38,125.11 228.38,81.87 230.38,145.63 232.39,99.17 234.39,130.38 236.39,142.22 238.40,157.21 240.40,168.89 242.40,159.99 244.41,153.40 246.41,164.57 248.41,164.85 250.42,195.68 252.42,193.25 254.42,166.14 256.43,191.54 258.43,202.01 260.43,190.23 262.44,184.79 264.44,203.99 266.44,203.21 268.45,204.00 270.45,198.74 272.45,197.58 274.46,201.79 276.46,186.43 278.46,184.94 280.47,174.41 282.47,203.69 284.47,164.61 286.48,184.73 288.48,161.36 290.48,195.84 292.49,177.99 294.49,131.30 296.49,163.74 298.50,163.49 300.50,155.00 302.50,146.36 304.51,107.89 306.51,157.93 308.51,152.81 310.52,93.56 312.52,115.06 314.52,108.70 316.53,87.38 318.53,58.26 320.53,57.59 322.54,86.94 324.54,71.03 326.54,99.80 328.55,80.51 330.55,63.55 332.55,70.94 334.56,38.90 336.56,52.93 338.56,36.37 340.57,42.95 342.57,41.62 344.57,39.47 346.58,37.68 348.58,36.34 350.58,40.44 352.59,53.91 354.59,37.97 356.59,36.26 358.60,43.43 360.60,48.38 362.60,68.93 364.61,38.67 366.61,39.87 368.61,82.14 370.62,65.36 372.62,52.63 374.62,131.81 376.63,58.42 378.63,79.52 380.63,131.03 382.64,119.72 384.64,163.76 386.64,155.39 388.65,90.11 390.65,126.57 392.65,94.23 394.66,174.40 396.66,153.52 398.66,151.38 400.67,175.00 402.67,181.19 404.67,171.42 406.68,203.58 408.68,161.40 410.68,163.82 412.69,181.03 414.69,194.11 416.69,194.62 418.70,177.63 420.70,203.83 422.70,203.42 424.71,203.99 426.71,184.40 428.71,199.01 430.72,201.22 432.72,200.90 434.72,204.00 436.73,180.45 438.73,193.39 440.73,200.34 442.74,176.30 444.74,127.34 446.74,118.44 448.75,124.04 450.75,176.46 452.75,121.97 454.76,146.62 456.76,102.44 458.76,148.33 460.77,130.88 462.77,115.47 464.77,166.40 466.78,106.15 468.78,72.34 470.78,50.14 472.79,44.50 474.79,41.58 476.79,122.62 478.80,85.89 480.80,71.22 482.80,51.80 484.81,36.10 486.81,37.76 488.81,92.21 490.82,36.79 492.82,68.00 494.82,45.26 496.83,41.53 498.83,38.79 500.83,41.65 502.84,36.46 504.84,37.40 506.84,42.70 508.85,67.47 510.85,36.80 512.85,36.09 514.86,64.77 516.86,96.48 518.86,75.89 520.87,82.28 522.87,36.92 524.87,77.40 526.88,50.82 528.88,140.85 530.88,74.92 532.89,70.79 534.89,52.95 536.89,102.79 538.90,81.97 540.90,97.04 542.90,185.78 544.91,159.13 546.91,168.78 548.91,178.85 550.92,142.31 552.92,96.07 554.92,192.26 556.93,196.31 558.93,187.00 560.93,200.98 562.94,203.99 564.94,174.48 566.94,199.77 568.95,199.32 570.95,179.35 572.95,190.89 574.96,203.04 576.96,182.89 578.96,203.95 580.97,195.79 582.97,186.50 584.97,182.99 586.98,200.77 588.98,160.18 590.98,203.95 592.99,167.47 594.99,186.50 596.99,203.99 599.00,121.08 601.00,120.80 603.01,123.78 605.01,181.84 607.01,94.24 609.02,198.61 611.02,155.37 613.02,151.94 615.03,80.25 617.03,178.05 619.03,69.54 621.04,150.70 623.04,77.07 625.04,130.65 627.05,127.07 629.05,36.31 631.05,81.98 633.06,54.45 635.06,47.31 637.06,128.53 639.07,46.61 641.07,36.36 643.07,84.86 645.08,36.87 647.08,78.31 649.08,36.04 651.09,74.08 653.09,38.45 655.09,68.58 657.10,36.13 659.10,82.79 661.10,37.91 663.11,44.00 665.11,55.94 667.11,60.21 669.12,122.75 671.12,92.38 673.12,47.95 675.13,142.21 677.13,59.01 679.13,122.96 681.14,36.70 683.14,39.66 685.14,95.35 687.15,155.47 689.15,136.23 691.15,177.77 693.16,193.71 695.16,191.92 697.16,172.06 699.17,165.23 701.17,201.61 703.17,75.08 705.18,204.00 707.18,154.14 709.18,188.11 711.19,171.89 713.19,198.45 715.19,177.19 717.20,193.97 719.20,160.88 721.20,202.48 723.21,190.29 725.21,201.56 727.21,198.96 729.22,177.79 731.22,191.27 733.22,170.61 735.23,204.00 737.23,203.18 739.23,169.40 741.24,170.85 743.24,202.85 745.24,202.63 747.25,193.44 749.25,125.50 751.25,173.47 753.26,203.76 755.26,154.08 757.26,76.84 759.27,109.95 761.27,85.59 763.27,157.79 765.28,163.93 767.28,81.65 769.28,132.22 771.29,117.15 773.29,184.53 775.29,166.02 777.30,56.50 779.30,156.29 781.30,82.05 783.31,43.66 785.31,75.24 787.31,157.11 789.32,64.44 791.32,36.98 793.32,36.31 795.33,114.26 797.33,37.61 799.33,50.34 801.34,70.44 803.34,60.83 805.34,81.90 807.35,39.09 809.35,41.84 811.35,62.82 813.36,44.86 815.36,100.03 817.36,36.28 819.37,63.77 821.37,127.61 823.37,114.49 825.38,47.86 827.38,78.01 829.38,36.12 831.39,56.79 833.39,153.01 835.39,103.68 837.40,36.01 839.40,36.01 841.40,177.60 843.41,36.58 845.41,153.96 847.41,44.02 849.42,197.39 851.42,124.49 853.42,109.24 855.43,106.96 857.43,203.97 859.43,112.02 861.44,203.84 863.44,201.68 865.44,146.41 867.45,203.49 869.45,146.55 871.45,108.60 873.46,149.88 875.46,134.31 877.46,202.11 879.47,198.72 881.47,190.41 883.47,201.41 885.48,195.42 887.48,140.94 889.48,170.40 891.49,167.68 893.49,126.02 895.49,199.03 897.50,123.17 899.50,202.95 901.50,95.63 903.51,203.97 905.51,118.55 907.51,124.66 909.52,201.59 911.52,145.89 913.52,88.34 915.53,89.48 917.53,188.82 919.53,193.01 921.54,154.09 923.54,95.31 925.54,88.80 927.55,157.29 929.55,108.82 931.55,36.32 933.56,75.10 935.56,120.41 937.56,36.34 939.57,41.63 941.57,53.26 943.57,106.32 945.58,133.67 947.58,67.87 949.58,73.60 951.59,36.09 953.59,36.69 955.59,43.32 957.60,41.01 959.60,88.14 961.60,102.63 963.61,44.03 965.61,92.83 967.61,39.77 969.62,84.06 971.62,129.56 973.62,54.70 975.63,71.43 977.63,159.69 979.63,77.86 981.64,124.64 983.64,104.90 985.64,119.34 987.65,185.35 989.65,191.02 991.65,109.86 993.66,49.46 995.66,70.24 997.66,46.69 999.67,71.27 1001.67,131.60 1003.67,40.77 1005.68,61.47 1007.68,200.84 1009.68,112.93 1011.69,203.24 1013.69,186.33 1015.69,198.44 1017.70,188.87 1019.70,138.81 1021.70,99.93 1023.71,202.50 1025.71,176.35 1027.71,143.30 1029.72,188.62 1031.72,202.55 1033.72,199.94 1035.73,163.34 1037.73,168.21 1039.73,203.48 1041.74,145.96 1043.74,197.08 1045.74,201.35 1047.75,166.68 1049.75,203.92 1051.75,201.33 1053.76,133.89 1055.76,189.81 1057.76,72.13 1059.77,102.45 1061.77,191.33 1063.77,93.16 1065.78,199.63 1067.78,44.58 1069.78,135.72 1071.79,144.29 1073.79,203.16 1075.79,37.57 1077.80,126.30 1079.80,36.65 1081.80,73.70 1083.81,191.69 1085.81,69.37 1087.81,41.01 1089.82,166.22 1091.82,89.28 1093.82,171.29 1095.83,38.69 1097.83,51.33 1099.83,45.75 1101.84,58.78 1103.84,36.10 1105.84,47.15 1107.85,147.36 1109.85,36.33 1111.85,42.81 1113.86,36.37 1115.86,137.46 1117.86,104.02 1119.87,132.68 1121.87,107.03 1123.87,39.12 1125.88,45.13 1127.88,121.57 1129.88,66.13 1131.89,139.09 1133.89,52.37 1135.89,114.83 1137.90,69.92 1139.90,36.57 1141.90,99.93 1143.91,52.34 1145.91,54.26 1147.91,56.24 1149.92,195.78 1151.92,104.22 1153.92,62.81 1155.93,36.88 1157.93,203.58 1159.93,41.11 1161.94,203.65 1163.94,94.89 1165.94,188.66 1167.95,41.86 1169.95,56.80 1171.95,190.96 1173.96,115.65 1175.96,162.46 1177.96,202.25 1179.97,203.09 1181.97,113.36 1183.97,100.59 1185.98,202.49 1187.98,95.70 1189.98,134.41 1191.99,198.33 1193.99,203.77 1195.99,189.66 1198.00,202.06 1200.00,118.89" fill="none" stroke="black" stroke-width="3" stroke-linecap="round" stroke-linejoin="round"/></svg>