<svg xmlns="http://www.w3.org/2000/svg" viewBox="0 0 1200 240" width="1200" height="240"><rect width="1200" height="240" fill="white"/><polyline points="0.00,120.00 2.00,114.20 4.01,108.43 6.01,102.71 8.01,97.07 10.02,91.55 12.02,86.16 14.02,80.93 16.03,75.89 18.03,71.05 20.03,66.46 22.04,62.11 24.04,58.05 26.04,54.28 28.05,50.82 30.05,47.70 32.05,44.92 34.06,42.50 36.06,40.44 38.06,38.77 40.07,37.49 42.07,36.60 44.07,36.11 46.08,36.01 48.08,36.32 50.08,37.03 52.09,38.14 54.09,39.64 56.09,41.52 58.10,43.77 60.10,46.39 62.10,49.36 64.11,52.67 66.11,56.30 68.11,60.23 70.12,64.45 72.12,68.93 74.12,73.66 76.13,78.61 78.13,83.76 80.13,89.08 82.14,94.55 84.14,100.13 86.14,105.82 88.15,111.57 90.15,117.36 92.15,123.17 94.16,128.96 96.16,134.70 98.16,140.38 100.17,145.96 102.17,151.41 104.17,156.72 106.18,161.85 108.18,166.78 110.18,171.48 112.19,175.94 114.19,180.14 116.19,184.05 118.20,187.65 120.20,190.92 122.20,193.86 124.21,196.45 126.21,198.67 128.21,200.52 130.22,201.98 132.22,203.05 134.22,203.72 136.23,203.99 138.23,203.87 140.23,203.34 142.24,202.41 144.24,201.09 146.24,199.39 148.25,197.30 150.25,194.84 152.25,192.03 154.26,188.88 156.26,185.39 158.26,181.59 160.27,177.50 162.27,173.14 164.27,168.52 166.28,163.66 168.28,158.60 170.28,153.36 172.29,147.96 174.29,142.42 176.29,136.78 178.30,131.05 180.30,125.27 182.30,119.47 184.31,113.67 186.31,107.90 188.31,102.19 190.32,96.56 192.32,91.05 194.32,85.67 196.33,80.46 198.33,75.44 200.33,70.63 202.34,66.05 204.34,61.73 206.34,57.69 208.35,53.95 210.35,50.53 212.35,47.43 214.36,44.68 216.36,42.29 218.36,40.28 220.37,38.64 222.37,37.39 224.37,36.54 226.38,36.08 228.38,36.03 230.38,36.37 232.39,37.12 234.39,38.26 236.39,39.79 238.40,41.71 240.40,43.99 242.40,46.65 244.41,49.65 246.41,52.99 248.41,56.64 250.42,60.60 252.42,64.85 254.42,69.35 256.43,74.10 258.43,79.07 260.43,84.23 262.44,89.57 264.44,95.05 266.44,100.65 268.45,106.34 270.45,112.09 272.45,117.89 274.46,123.69 276.46,129.48 278.46,135.22 280.47,140.89 282.47,146.46 284.47,151.90 286.48,157.19 288.48,162.30 290.48,167.22 292.49,171.90 294.49,176.34 296.49,180.51 298.50,184.39 300.50,187.96 302.50,191.20 304.51,194.11 306.51,196.67 308.51,198.85 310.52,200.66 312.52,202.09 314.52,203.12 316.53,203.76 318.53,204.00 320.53,203.83 322.54,203.27 324.54,202.31 326.54,200.95 328.55,199.21 330.55,197.09 332.55,194.60 334.56,191.76 336.56,188.57 338.56,185.06 340.57,181.23 342.57,177.12 344.57,172.73 346.58,168.08 348.58,163.21 350.58,158.14 352.59,152.88 354.59,147.46 356.59,141.91 358.60,136.26 360.60,130.53 362.60,124.75 364.61,118.94 366.61,113.15 368.61,107.38 370.62,101.68 372.62,96.06 374.62,90.56 376.63,85.19 378.63,80.00 380.63,74.99 382.64,70.20 384.64,65.65 386.64,61.35 388.65,57.34 390.65,53.63 392.65,50.23 394.66,47.17 396.66,44.45 398.66,42.09 400.67,40.11 402.67,38.51 404.67,37.30 406.68,36.48 408.68,36.06 410.68,36.04 412.69,36.42 414.69,37.21 416.69,38.38 418.70,39.95 420.70,41.90 422.70,44.22 424.71,46.90 426.71,49.94 428.71,53.30 430.72,56.99 432.72,60.98 434.72,65.25 436.73,69.78 438.73,74.55 440.73,79.53 442.74,84.71 444.74,90.06 446.74,95.55 448.75,101.16 450.75,106.86 452.75,112.62 454.76,118.42 456.76,124.22 458.76,130.00 460.77,135.74 462.77,141.40 464.77,146.96 466.78,152.39 468.78,157.66 470.78,162.76 472.79,167.65 474.79,172.31 476.79,176.73 478.80,180.87 480.80,184.72 482.80,188.27 484.81,191.48 486.81,194.36 488.81,196.88 490.82,199.03 492.82,200.81 494.82,202.20 496.83,203.20 498.83,203.80 500.83,204.00 502.84,203.80 504.84,203.20 506.84,202.20 508.85,200.81 510.85,199.03 512.85,196.88 514.86,194.36 516.86,191.48 518.86,188.27 520.87,184.72 522.87,180.87 524.87,176.73 526.88,172.31 528.88,167.65 530.88,162.76 532.89,157.66 534.89,152.39 536.89,146.96 538.90,141.40 540.90,135.74 542.90,130.00 544.91,124.22 546.91,118.42 548.91,112.62 550.92,106.86 552.92,101.16 554.92,95.55 556.93,90.06 558.93,84.71 560.93,79.53 562.94,74.55 564.94,69.78 566.94,65.25 568.95,60.98 570.95,56.99 572.95,53.30 574.96,49.94 576.96,46.90 578.96,44.22 580.97,41.90 582.97,39.95 584.97,38.38 586.98,37.21 588.98,36.42 590.98,36.04 592.99,36.06 594.99,36.48 596.99,37.30 599.00,38.51 601.00,40.11 603.01,42.09 605.01,44.45 607.01,47.17 609.02,50.23 611.02,53.63 613.02,57.34 615.03,61.35 617.03,65.65 619.03,70.20 621.04,74.99 623.04,80.00 625.04,85.19 627.05,90.56 629.05,96.06 631.05,101.68 633.06,107.38 635.06,113.15 637.06,118.94 639.07,124.75 641.07,130.53 643.07,136.26 645.08,141.91 647.08,147.46 649.08,152.88 651.09,158.14 653.09,163.21 655.09,168.08 657.10,172.73 659.10,177.12 661.10,181.23 663.11,185.06 665.11,188.57 667.11,191.76 669.12,194.60 671.12,197.09 673.12,199.21 675.13,200.95 677.13,202.31 679.13,203.27 681.14,203.83 683.14,204.00 685.14,203.76 687.15,203.12 689.15,202.09 691.15,200.66 693.16,198.85 695.16,196.67 697.16,194.11 699.17,191.20 701.17,187.96 703.17,184.39 705.18,180.51 707.18,176.34 709.18,171.90 711.19,167.22 713.19,162.30 715.19,157.19 717.20,151.90 719.20,146.46 721.20,140.89 723.21,135.22 725.21,129.48 727.21,123.69 729.22,117.89 731.22,112.09 733.22,106.34 735.23,100.65 737.23,95.05 739.23,89.57 741.24,84.23 743.24,79.07 745.24,74.10 747.25,69.35 749.25,64.85 751.25,60.60 753.26,56.64 755.26,52.99 757.26,49.65 759.27,46.65 761.27,43.99 763.27,41.71 765.28,39.79 767.28,38.26 769.28,37.12 771.29,36.37 773.29,36.03 775.29,36.08 777.30,36.54 779.30,37.39 781.30,38.64 783.31,40.28 785.31,42.29 787.31,44.68 789.32,47.43 791.32,50.53 793.32,53.95 795.33,57.69 797.33,61.73 799.33,66.05 801.34,70.63 803.34,75.44 805.34,80.46 807.35,85.67 809.35,91.05 811.35,96.56 813.36,102.19 815.36,107.90 817.36,113.67 819.37,119.47 821.37,125.27 823.37,131.05 825.38,136.78 827.38,142.42 829.38,147.96 831.39,153.36 833.39,158.60 835.39,163.66 837.40,168.52 839.40,173.14 841.40,177.50 843.41,181.59 845.41,185.39 847.41,188.88 849.42,192.03 851.42,194.84 853.42,197.30 855.43,199.39 857.43,201.09 859.43,202.41 861.44,203.34 863.44,203.87 865.44,203.99 867.45,203.72 869.45,203.05 871.45,201.98 873.46,200.52 875.46,198.67 877.46,196.45 879.47,193.86 881.47,190.92 883.47,187.65 885.48,184.05 887.48,180.14 889.48,175.94 891.49,171.48 893.49,166.78 895.49,161.85 897.50,156.72 899.50,151.41 901.50,145.96 903.51,140.38 905.51,134.70 907.51,128.96 909.52,123.17 911.52,117.36 913.52,111.57 915.53,105.82 917.53,100.13 919.53,94.55 921.54,89.08 923.54,83.76 925.54,78.61 927.55,73.66 929.55,68.93 931.55,64.45 933.56,60.23 935.56,56.30 937.56,52.67 939.57,49.36 941.57,46.39 943.57,43.77 945.58,41.52 947.58,39.64 949.58,38.14 951.59,37.03 953.59,36.32 955.59,36.01 957.60,36.11 959.60,36.60 961.60,37.49 963.61,38.77 965.61,40.44 967.61,42.50 969.62,44.92 971.62,47.70 973.62,50.82 975.63,54.28 977.63,58.05 979.63,62.11 981.64,66.46 983.64,71.05 985.64,75.89 987.65,80.93 989.65,86.16 991.65,91.55 993.66,97.07 995.66,102.71 997.66,108.43 999.67,114.20 1001.67,120.00 1003.67,125.80 1005.68,131.57 1007.68,137.29 1009.68,142.93 1011.69,148.45 1013.69,153.84 1015.69,159.07 1017.70,164.11 1019.70,168.95 1021.70,173.54 1023.71,177.89 1025.71,181.95 1027.71,185.72 1029.72,189.18 1031.72,192.30 1033.72,195.08 1035.73,197.50 1037.73,199.56 1039.73,201.23 1041.74,202.51 1043.74,203.40 1045.74,203.89 1047.75,203.99 1049.75,203.68 1051.75,202.97 1053.76,201.86 1055.76,200.36 1057.76,198.48 1059.77,196.23 1061.77,193.61 1063.77,190.64 1065.78,187.33 1067.78,183.70 1069.78,179.77 1071.79,175.55 1073.79,171.07 1075.79,166.34 1077.80,161.39 1079.80,156.24 1081.80,150.92 1083.81,145.45 1085.81,139.87 1087.81,134.18 1089.82,128.43 1091.82,122.64 1093.82,116.83 1095.83,111.04 1097.83,105.30 1099.83,99.62 1101.84,94.04 1103.84,88.59 1105.84,83.28 1107.85,78.15 1109.85,73.22 1111.85,68.52 1113.86,64.06 1115.86,59.86 1117.86,55.95 1119.87,52.35 1121.87,49.08 1123.87,46.14 1125.88,43.55 1127.88,41.33 1129.88,39.48 1131.89,38.02 1133.89,36.95 1135.89,36.28 1137.90,36.01 1139.90,36.13 1141.90,36.66 1143.91,37.59 1145.91,38.91 1147.91,40.61 1149.92,42.70 1151.92,45.16 1153.92,47.97 1155.93,51.12 1157.93,54.61 1159.93,58.41 1161.94,62.50 1163.94,66.86 1165.94,71.48 1167.95,76.34 1169.95,81.40 1171.95,86.64 1173.96,92.04 1175.96,97.58 1177.96,103.22 1179.97,108.95 1181.97,114.73 1183.97,120.53 1185.98,126.33 1187.98,132.10 1189.98,137.81 1191.99,143.44 1193.99,148.95 1195.99,154.33 1198.00,159.54 1200.00,164.56" fill="none" stroke="black" stroke-width="3" stroke-linecap="round" stroke-linejoin="round"/></svg>