<svg xmlns="http://www.w3.org/2000/svg" viewBox="0 0 1200 240" width="1200" height="240"><rect width="1200" height="240" fill="white"/><polyline points="0.00,120.00 2.00,111.61 4.01,103.55 6.01,96.15 8.01,89.67 10.02,84.34 12.02,80.31 14.02,77.64 16.03,76.32 18.03,76.26 20.03,77.28 22.04,79.16 24.04,81.61 26.04,84.31 28.05,86.95 30.05,89.20 32.05,90.79 34.06,91.47 36.06,91.08 38.06,89.51 40.07,86.76 42.07,82.89 44.07,78.04 46.08,72.43 48.08,66.33 50.08,60.05 52.09,53.92 54.09,48.28 56.09,43.42 58.10,39.63 60.10,37.11 62.10,36.00 64.11,36.37 66.11,38.20 68.11,41.38 70.12,45.73 72.12,51.02 74.12,56.95 76.13,63.19 78.13,69.42 80.13,75.31 82.14,80.57 84.14,84.96 86.14,88.28 88.15,90.44 90.15,91.41 92.15,91.25 94.16,90.09 96.16,88.14 98.16,85.66 100.17,82.95 102.17,80.33 104.17,78.13 106.18,76.65 108.18,76.14 110.18,76.81 112.19,78.80 114.19,82.16 116.19,86.85 118.20,92.78 120.20,99.75 122.20,107.52 124.21,115.78 126.21,124.22 128.21,132.48 130.22,140.25 132.22,147.22 134.22,153.15 136.23,157.84 138.23,161.20 140.23,163.19 142.24,163.86 144.24,163.35 146.24,161.87 148.25,159.67 150.25,157.05 152.25,154.34 154.26,151.86 156.26,149.91 158.26,148.75 160.27,148.59 162.27,149.56 164.27,151.72 166.28,155.04 168.28,159.43 170.28,164.69 172.29,170.58 174.29,176.81 176.29,183.05 178.30,188.98 180.30,194.27 182.30,198.62 184.31,201.80 186.31,203.63 188.31,204.00 190.32,202.89 192.32,200.37 194.32,196.58 196.33,191.72 198.33,186.08 200.33,179.95 202.34,173.67 204.34,167.57 206.34,161.96 208.35,157.11 210.35,153.24 212.35,150.49 214.36,148.92 216.36,148.53 218.36,149.21 220.37,150.80 222.37,153.05 224.37,155.69 226.38,158.39 228.38,160.84 230.38,162.72 232.39,163.74 234.39,163.68 236.39,162.36 238.40,159.69 240.40,155.66 242.40,150.33 244.41,143.85 246.41,136.45 248.41,128.39 250.42,120.00 252.42,111.61 254.42,103.55 256.43,96.15 258.43,89.67 260.43,84.34 262.44,80.31 264.44,77.64 266.44,76.32 268.45,76.26 270.45,77.28 272.45,79.16 274.46,81.61 276.46,84.31 278.46,86.95 280.47,89.20 282.47,90.79 284.47,91.47 286.48,91.08 288.48,89.51 290.48,86.76 292.49,82.89 294.49,78.04 296.49,72.43 298.50,66.33 300.50,60.05 302.50,53.92 304.51,48.28 306.51,43.42 308.51,39.63 310.52,37.11 312.52,36.00 314.52,36.37 316.53,38.20 318.53,41.38 320.53,45.73 322.54,51.02 324.54,56.95 326.54,63.19 328.55,69.42 330.55,75.31 332.55,80.57 334.56,84.96 336.56,88.28 338.56,90.44 340.57,91.41 342.57,91.25 344.57,90.09 346.58,88.14 348.58,85.66 350.58,82.95 352.59,80.33 354.59,78.13 356.59,76.65 358.60,76.14 360.60,76.81 362.60,78.80 364.61,82.16 366.61,86.85 368.61,92.78 370.62,99.75 372.62,107.52 374.62,115.78 376.63,124.22 378.63,132.48 380.63,140.25 382.64,147.22 384.64,153.15 386.64,157.84 388.65,161.20 390.65,163.19 392.65,163.86 394.66,163.35 396.66,161.87 398.66,159.67 400.67,157.05 402.67,154.34 404.67,151.86 406.68,149.91 408.68,148.75 410.68,148.59 412.69,149.56 414.69,151.72 416.69,155.04 418.70,159.43 420.70,164.69 422.70,170.58 424.71,176.81 426.71,183.05 428.71,188.98 430.72,194.27 432.72,198.62 434.72,201.80 436.73,203.63 438.73,204.00 440.73,202.89 442.74,200.37 444.74,196.58 446.74,191.72 448.75,186.08 450.75,179.95 452.75,173.67 454.76,167.57 456.76,161.96 458.76,157.11 460.77,153.24 462.77,150.49 464.77,148.92 466.78,148.53 468.78,149.21 470.78,150.80 472.79,153.05 474.79,155.69 476.79,158.39 478.80,160.84 480.80,162.72 482.80,163.74 484.81,163.68 486.81,162.36 488.81,159.69 490.82,155.66 492.82,150.33 494.82,143.85 496.83,136.45 498.83,128.39 500.83,120.00 502.84,111.61 504.84,103.55 506.84,96.15 508.85,89.67 510.85,84.34 512.85,80.31 514.86,77.64 516.86,76.32 518.86,76.26 520.87,77.28 522.87,79.16 524.87,81.61 526.88,84.31 528.88,86.95 530.88,89.20 532.89,90.79 534.89,91.47 536.89,91.08 538.90,89.51 540.90,86.76 542.90,82.89 544.91,78.04 546.91,72.43 548.91,66.33 550.92,60.05 552.92,53.92 554.92,48.28 556.93,43.42 558.93,39.63 560.93,37.11 562.94,36.00 564.94,36.37 566.94,38.20 568.95,41.38 570.95,45.73 572.95,51.02 574.96,56.95 576.96,63.19 578.96,69.42 580.97,75.31 582.97,80.57 584.97,84.96 586.98,88.28 588.98,90.44 590.98,91.41 592.99,91.25 594.99,90.09 596.99,88.14 599.00,85.66 601.00,82.95 603.01,80.33 605.01,78.13 607.01,76.65 609.02,76.14 611.02,76.81 613.02,78.80 615.03,82.16 617.03,86.85 619.03,92.78 621.04,99.75 623.04,107.52 625.04,115.78 627.05,124.22 629.05,132.48 631.05,140.25 633.06,147.22 635.06,153.15 637.06,157.84 639.07,161.20 641.07,163.19 643.07,163.86 645.08,163.35 647.08,161.87 649.08,159.67 651.09,157.05 653.09,154.34 655.09,151.86 657.10,149.91 659.10,148.75 661.10,148.59 663.11,149.56 665.11,151.72 667.11,155.04 669.12,159.43 671.12,164.69 673.12,170.58 675.13,176.81 677.13,183.05 679.13,188.98 681.14,194.27 683.14,198.62 685.14,201.80 687.15,203.63 689.15,204.00 691.15,202.89 693.16,200.37 695.16,196.58 697.16,191.72 699.17,186.08 701.17,179.95 703.17,173.67 705.18,167.57 707.18,161.96 709.18,157.11 711.19,153.24 713.19,150.49 715.19,148.92 717.20,148.53 719.20,149.21 721.20,150.80 723.21,153.05 725.21,155.69 727.21,158.39 729.22,160.84 731.22,162.72 733.22,163.74 735.23,163.68 737.23,162.36 739.23,159.69 741.24,155.66 743.24,150.33 745.24,143.85 747.25,136.45 749.25,128.39 751.25,120.00 753.26,111.61 755.26,103.55 757.26,96.15 759.27,89.67 761.27,84.34 763.27,80.31 765.28,77.64 767.28,76.32 769.28,76.26 771.29,77.28 773.29,79.16 775.29,81.61 777.30,84.31 779.30,86.95 781.30,89.20 783.31,90.79 785.31,91.47 787.31,91.08 789.32,89.51 791.32,86.76 793.32,82.89 795.33,78.04 797.33,72.43 799.33,66.33 801.34,60.05 803.34,53.92 805.34,48.28 807.35,43.42 809.35,39.63 811.35,37.11 813.36,36.00 815.36,36.37 817.36,38.20 819.37,41.38 821.37,45.73 823.37,51.02 825.38,56.95 827.38,63.19 829.38,69.42 831.39,75.31 833.39,80.57 835.39,84.96 837.40,88.28 839.40,90.44 841.40,91.41 843.41,91.25 845.41,90.09 847.41,88.14 849.42,85.66 851.42,82.95 853.42,80.33 855.43,78.13 857.43,76.65 859.43,76.14 861.44,76.81 863.44,78.80 865.44,82.16 867.45,86.85 869.45,92.78 871.45,99.75 873.46,107.52 875.46,115.78 877.46,124.22 879.47,132.48 881.47,140.25 883.47,147.22 885.48,153.15 887.48,157.84 889.48,161.20 891.49,163.19 893.49,163.86 895.49,163.35 897.50,161.87 899.50,159.67 901.50,157.05 903.51,154.34 905.51,151.86 907.51,149.91 909.52,148.75 911.52,148.59 913.52,149.56 915.53,151.72 917.53,155.04 919.53,159.43 921.54,164.69 923.54,170.58 925.54,176.81 927.55,183.05 929.55,188.98 931.55,194.27 933.56,198.62 935.56,201.80 937.56,203.63 939.57,204.00 941.57,202.89 943.57,200.37 945.58,196.58 947.58,191.72 949.58,186.08 951.59,179.95 953.59,173.67 955.59,167.57 957.60,161.96 959.60,157.11 961.60,153.24 963.61,150.49 965.61,148.92 967.61,148.53 969.62,149.21 971.62,150.80 973.62,153.05 975.63,155.69 977.63,158.39 979.63,160.84 981.64,162.72 983.64,163.74 985.64,163.68 987.65,162.36 989.65,159.69 991.65,155.66 993.66,150.33 995.66,143.85 997.66,136.45 999.67,128.39 1001.67,120.00 1003.67,111.61 1005.68,103.55 1007.68,96.15 1009.68,89.67 1011.69,84.34 1013.69,80.31 1015.69,77.64 1017.70,76.32 1019.70,76.26 1021.70,77.28 1023.71,79.16 1025.71,81.61 1027.71,84.31 1029.72,86.95 1031.72,89.20 1033.72,90.79 1035.73,91.47 1037.73,91.08 1039.73,89.51 1041.74,86.76 1043.74,82.89 1045.74,78.04 1047.75,72.43 1049.75,66.33 1051.75,60.05 1053.76,53.92 1055.76,48.28 1057.76,43.42 1059.77,39.63 1061.77,37.11 1063.77,36.00 1065.78,36.37 1067.78,38.20 1069.78,41.38 1071.79,45.73 1073.79,51.02 1075.79,56.95 1077.80,63.19 1079.80,69.42 1081.80,75.31 1083.81,80.57 1085.81,84.96 1087.81,88.28 1089.82,90.44 1091.82,91.41 1093.82,91.25 1095.83,90.09 1097.83,88.14 1099.83,85.66 1101.84,82.95 1103.84,80.33 1105.84,78.13 1107.85,76.65 1109.85,76.14 1111.85,76.81 1113.86,78.80 1115.86,82.16 1117.86,86.85 1119.87,92.78 1121.87,99.75 1123.87,107.52 1125.88,115.78 1127.88,124.22 1129.88,132.48 1131.89,140.25 1133.89,147.22 1135.89,153.15 1137.90,157.84 1139.90,161.20 1141.90,163.19 1143.91,163.86 1145.91,163.35 1147.91,161.87 1149.92,159.67 1151.92,157.05 1153.92,154.34 1155.93,151.86 1157.93,149.91 1159.93,148.75 1161.94,148.59 1163.94,149.56 1165.94,151.72 1167.95,155.04 1169.95,159.43 1171.95,164.69 1173.96,170.58 1175.96,176.81 1177.96,183.05 1179.97,188.98 1181.97,194.27 1183.97,198.62 1185.98,201.80 1187.98,203.63 1189.98,204.00 1191.99,202.89 1193.99,200.37 1195.99,196.58 1198.00,191.72 1200.00,186.08" fill="none" stroke="black" stroke-width="3" stroke-linecap="round" stroke-linejoin="round"/></svg>