<svg xmlns="http://www.w3.org/2000/svg" viewBox="0 0 1200 240" width="1200" height="240"><rect width="1200" height="240" fill="white"/><polyline points="0.00,120.00 2.00,108.95 4.01,98.09 6.01,87.61 8.01,77.70 10.02,68.52 12.02,60.23 14.02,52.99 16.03,46.90 18.03,42.09 20.03,38.64 22.04,36.60 24.04,36.01 26.04,36.88 28.05,39.19 30.05,42.91 32.05,47.97 34.06,54.28 36.06,61.73 38.06,70.20 40.07,79.53 42.07,89.57 44.07,100.13 46.08,111.04 48.08,122.11 50.08,133.14 52.09,143.94 54.09,154.33 56.09,164.11 58.10,173.14 60.10,181.23 62.10,188.27 64.11,194.11 66.11,198.67 68.11,201.86 70.12,203.63 72.12,203.94 74.12,202.79 76.13,200.21 78.13,196.23 80.13,190.92 82.14,184.39 84.14,176.73 86.14,168.08 88.15,158.60 90.15,148.45 92.15,137.81 94.16,126.85 96.16,115.78 98.16,104.78 100.17,94.04 102.17,83.76 104.17,74.10 106.18,65.25 108.18,57.34 110.18,50.53 112.19,44.92 114.19,40.61 116.19,37.69 118.20,36.20 120.20,36.17 122.20,37.59 124.21,40.44 126.21,44.68 128.21,50.23 130.22,56.99 132.22,64.85 134.22,73.66 136.23,83.28 138.23,93.54 140.23,104.26 142.24,115.25 144.24,126.33 146.24,137.29 148.25,147.96 150.25,158.14 152.25,167.65 154.26,176.34 156.26,184.05 158.26,190.64 160.27,196.01 162.27,200.05 164.27,202.70 166.28,203.92 168.28,203.68 170.28,201.98 172.29,198.85 174.29,194.36 176.29,188.57 178.30,181.59 180.30,173.54 182.30,164.56 184.31,154.81 186.31,144.45 188.31,133.66 190.32,122.64 192.32,111.57 194.32,100.65 196.33,90.06 198.33,80.00 200.33,70.63 202.34,62.11 204.34,54.61 206.34,48.24 208.35,43.12 210.35,39.34 212.35,36.95 214.36,36.01 216.36,36.54 218.36,38.51 220.37,41.90 222.37,46.65 224.37,52.67 226.38,59.86 228.38,68.10 230.38,77.24 232.39,87.12 234.39,97.58 236.39,108.43 238.40,119.47 240.40,130.53 242.40,141.40 244.41,151.90 246.41,161.85 248.41,171.07 250.42,179.40 252.42,186.70 254.42,192.83 256.43,197.71 258.43,201.23 260.43,203.34 262.44,204.00 264.44,203.20 266.44,200.95 268.45,197.30 270.45,192.30 272.45,186.05 274.46,178.65 276.46,170.22 278.46,160.93 280.47,150.92 282.47,140.38 284.47,129.48 286.48,118.42 288.48,107.38 290.48,96.56 292.49,86.16 294.49,76.34 296.49,67.27 298.50,59.13 300.50,52.04 302.50,46.14 304.51,41.52 306.51,38.26 308.51,36.42 310.52,36.04 312.52,37.12 314.52,39.64 316.53,43.55 318.53,48.80 320.53,55.28 322.54,62.88 324.54,71.48 326.54,80.93 328.55,91.05 330.55,101.68 332.55,112.62 334.56,123.69 336.56,134.70 338.56,145.45 340.57,155.77 342.57,165.45 344.57,174.35 346.58,182.31 348.58,189.18 350.58,194.84 352.59,199.21 354.59,202.20 356.59,203.76 358.60,203.87 360.60,202.51 362.60,199.72 364.61,195.55 366.61,190.06 368.61,183.36 370.62,175.55 372.62,166.78 374.62,157.19 376.63,146.96 378.63,136.26 380.63,125.27 382.64,114.20 384.64,103.22 386.64,92.54 388.65,82.34 390.65,72.78 392.65,64.06 394.66,56.30 396.66,49.65 398.66,44.22 400.67,40.11 402.67,37.39 404.67,36.11 406.68,36.28 408.68,37.91 410.68,40.97 412.69,45.40 414.69,51.12 416.69,58.05 418.70,66.05 420.70,74.99 422.70,84.71 424.71,95.05 426.71,105.82 428.71,116.83 430.72,127.91 432.72,138.84 434.72,149.44 436.73,159.54 438.73,168.95 440.73,177.50 442.74,185.06 444.74,191.48 446.74,196.67 448.75,200.52 450.75,202.97 452.75,203.97 454.76,203.52 456.76,201.62 458.76,198.29 460.77,193.61 462.77,187.65 464.77,180.51 466.78,172.31 468.78,163.21 470.78,153.36 472.79,142.93 474.79,132.10 476.79,121.06 478.80,110.00 480.80,99.11 482.80,88.59 484.81,78.61 486.81,69.35 488.81,60.98 490.82,53.63 492.82,47.43 494.82,42.50 496.83,38.91 498.83,36.73 500.83,36.00 502.84,36.73 504.84,38.91 506.84,42.50 508.85,47.43 510.85,53.63 512.85,60.98 514.86,69.35 516.86,78.61 518.86,88.59 520.87,99.11 522.87,110.00 524.87,121.06 526.88,132.10 528.88,142.93 530.88,153.36 532.89,163.21 534.89,172.31 536.89,180.51 538.90,187.65 540.90,193.61 542.90,198.29 544.91,201.62 546.91,203.52 548.91,203.97 550.92,202.97 552.92,200.52 554.92,196.67 556.93,191.48 558.93,185.06 560.93,177.50 562.94,168.95 564.94,159.54 566.94,149.44 568.95,138.84 570.95,127.91 572.95,116.83 574.96,105.82 576.96,95.05 578.96,84.71 580.97,74.99 582.97,66.05 584.97,58.05 586.98,51.12 588.98,45.40 590.98,40.97 592.99,37.91 594.99,36.28 596.99,36.11 599.00,37.39 601.00,40.11 603.01,44.22 605.01,49.65 607.01,56.30 609.02,64.06 611.02,72.78 613.02,82.34 615.03,92.54 617.03,103.22 619.03,114.20 621.04,125.27 623.04,136.26 625.04,146.96 627.05,157.19 629.05,166.78 631.05,175.55 633.06,183.36 635.06,190.06 637.06,195.55 639.07,199.72 641.07,202.51 643.07,203.87 645.08,203.76 647.08,202.20 649.08,199.21 651.09,194.84 653.09,189.18 655.09,182.31 657.10,174.35 659.10,165.45 661.10,155.77 663.11,145.45 665.11,134.70 667.11,123.69 669.12,112.62 671.12,101.68 673.12,91.05 675.13,80.93 677.13,71.48 679.13,62.88 681.14,55.28 683.14,48.80 685.14,43.55 687.15,39.64 689.15,37.12 691.15,36.04 693.16,36.42 695.16,38.26 697.16,41.52 699.17,46.14 701.17,52.04 703.17,59.13 705.18,67.27 707.18,76.34 709.18,86.16 711.19,96.56 713.19,107.38 715.19,118.42 717.20,129.48 719.20,140.38 721.20,150.92 723.21,160.93 725.21,170.22 727.21,178.65 729.22,186.05 731.22,192.30 733.22,197.30 735.23,200.95 737.23,203.20 739.23,204.00 741.24,203.34 743.24,201.23 745.24,197.71 747.25,192.83 749.25,186.70 751.25,179.40 753.26,171.07 755.26,161.85 757.26,151.90 759.27,141.40 761.27,130.53 763.27,119.47 765.28,108.43 767.28,97.58 769.28,87.12 771.29,77.24 773.29,68.10 775.29,59.86 777.30,52.67 779.30,46.65 781.30,41.90 783.31,38.51 785.31,36.54 787.31,36.01 789.32,36.95 791.32,39.34 793.32,43.12 795.33,48.24 797.33,54.61 799.33,62.11 801.34,70.63 803.34,80.00 805.34,90.06 807.35,100.65 809.35,111.57 811.35,122.64 813.36,133.66 815.36,144.45 817.36,154.81 819.37,164.56 821.37,173.54 823.37,181.59 825.38,188.57 827.38,194.36 829.38,198.85 831.39,201.98 833.39,203.68 835.39,203.92 837.40,202.70 839.40,200.05 841.40,196.01 843.41,190.64 845.41,184.05 847.41,176.34 849.42,167.65 851.42,158.14 853.42,147.96 855.43,137.29 857.43,126.33 859.43,115.25 861.44,104.26 863.44,93.54 865.44,83.28 867.45,73.66 869.45,64.85 871.45,56.99 873.46,50.23 875.46,44.68 877.46,40.44 879.47,37.59 881.47,36.17 883.47,36.20 885.48,37.69 887.48,40.61 889.48,44.92 891.49,50.53 893.49,57.34 895.49,65.25 897.50,74.10 899.50,83.76 901.50,94.04 903.51,104.78 905.51,115.78 907.51,126.85 909.52,137.81 911.52,148.45 913.52,158.60 915.53,168.08 917.53,176.73 919.53,184.39 921.54,190.92 923.54,196.23 925.54,200.21 927.55,202.79 929.55,203.94 931.55,203.63 933.56,201.86 935.56,198.67 937.56,194.11 939.57,188.27 941.57,181.23 943.57,173.14 945.58,164.11 947.58,154.33 949.58,143.94 951.59,133.14 953.59,122.11 955.59,111.04 957.60,100.13 959.60,89.57 961.60,79.53 963.61,70.20 965.61,61.73 967.61,54.28 969.62,47.97 971.62,42.91 973.62,39.19 975.63,36.88 977.63,36.01 979.63,36.60 981.64,38.64 983.64,42.09 985.64,46.90 987.65,52.99 989.65,60.23 991.65,68.52 993.66,77.70 995.66,87.61 997.66,98.09 999.67,108.95 1001.67,120.00 1003.67,131.05 1005.68,141.91 1007.68,152.39 1009.68,162.30 1011.69,171.48 1013.69,179.77 1015.69,187.01 1017.70,193.10 1019.70,197.91 1021.70,201.36 1023.71,203.40 1025.71,203.99 1027.71,203.12 1029.72,200.81 1031.72,197.09 1033.72,192.03 1035.73,185.72 1037.73,178.27 1039.73,169.80 1041.74,160.47 1043.74,150.43 1045.74,139.87 1047.75,128.96 1049.75,117.89 1051.75,106.86 1053.76,96.06 1055.76,85.67 1057.76,75.89 1059.77,66.86 1061.77,58.77 1063.77,51.73 1065.78,45.89 1067.78,41.33 1069.78,38.14 1071.79,36.37 1073.79,36.06 1075.79,37.21 1077.80,39.79 1079.80,43.77 1081.80,49.08 1083.81,55.61 1085.81,63.27 1087.81,71.92 1089.82,81.40 1091.82,91.55 1093.82,102.19 1095.83,113.15 1097.83,124.22 1099.83,135.22 1101.84,145.96 1103.84,156.24 1105.84,165.90 1107.85,174.75 1109.85,182.66 1111.85,189.47 1113.86,195.08 1115.86,199.39 1117.86,202.31 1119.87,203.80 1121.87,203.83 1123.87,202.41 1125.88,199.56 1127.88,195.32 1129.88,189.77 1131.89,183.01 1133.89,175.15 1135.89,166.34 1137.90,156.72 1139.90,146.46 1141.90,135.74 1143.91,124.75 1145.91,113.67 1147.91,102.71 1149.92,92.04 1151.92,81.86 1153.92,72.35 1155.93,63.66 1157.93,55.95 1159.93,49.36 1161.94,43.99 1163.94,39.95 1165.94,37.30 1167.95,36.08 1169.95,36.32 1171.95,38.02 1173.96,41.15 1175.96,45.64 1177.96,51.43 1179.97,58.41 1181.97,66.46 1183.97,75.44 1185.98,85.19 1187.98,95.55 1189.98,106.34 1191.99,117.36 1193.99,128.43 1195.99,139.35 1198.00,149.94 1200.00,160.00" fill="none" stroke="black" stroke-width="3" stroke-linecap="round" stroke-linejoin="round"/></svg>