<svg xmlns="http://www.w3.org/2000/svg" viewBox="0 0 1200 240" width="1200" height="240"><rect width="1200" height="240" fill="white"/><polyline points="0.00,120.00 2.00,113.24 4.01,105.93 6.01,99.05 8.01,92.61 10.02,86.12 12.02,80.87 14.02,73.38 16.03,68.71 18.03,64.25 20.03,59.35 22.04,53.41 24.04,50.41 26.04,45.13 28.05,42.36 30.05,42.13 32.05,38.86 34.06,38.32 36.06,36.20 38.06,36.00 40.07,36.03 42.07,36.58 44.07,38.09 46.08,40.36 48.08,40.47 50.08,43.40 52.09,48.07 54.09,56.80 56.09,52.30 58.10,63.52 60.10,66.04 62.10,76.72 64.11,81.32 66.11,78.98 68.11,82.60 70.12,97.57 72.12,98.59 74.12,113.73 76.13,120.49 78.13,123.74 80.13,132.98 82.14,136.25 84.14,136.62 86.14,160.25 88.15,159.54 90.15,165.30 92.15,176.68 94.16,182.21 96.16,177.72 98.16,191.10 100.17,193.80 102.17,197.20 104.17,198.34 106.18,197.49 108.18,199.78 110.18,199.54 112.19,203.96 114.19,202.36 116.19,204.00 118.20,202.16 120.20,203.96 122.20,200.79 124.21,201.80 126.21,188.97 128.21,194.64 130.22,182.38 132.22,192.03 134.22,189.67 136.23,169.82 138.23,157.63 140.23,168.44 142.24,147.33 144.24,148.60 146.24,133.24 148.25,130.62 150.25,118.10 152.25,116.77 154.26,131.41 156.26,121.69 158.26,98.11 160.27,81.04 162.27,93.50 164.27,98.83 166.28,76.11 168.28,60.55 170.28,58.68 172.29,55.73 174.29,52.18 176.29,59.52 178.30,55.09 180.30,47.02 182.30,51.64 184.31,44.61 186.31,44.25 188.31,36.01 190.32,36.00 192.32,38.14 194.32,36.20 196.33,36.22 198.33,36.09 200.33,37.53 202.34,48.27 204.34,45.58 206.34,61.15 208.35,56.92 210.35,45.29 212.35,64.77 214.36,79.18 216.36,59.23 218.36,81.62 220.37,74.07 222.37,118.92 224.37,84.78 226.38,79.15 228.38,85.69 230.38,104.54 232.39,143.41 234.39,119.37 236.39,155.66 238.40,155.23 240.40,153.20 242.40,127.62 244.41,148.86 246.41,141.38 248.41,150.80 250.42,196.44 252.42,198.98 254.42,201.65 256.43,198.77 258.43,200.86 260.43,200.24 262.44,203.89 264.44,200.12 266.44,203.20 268.45,201.72 270.45,196.52 272.45,202.55 274.46,194.45 276.46,203.20 278.46,203.77 280.47,202.46 282.47,196.48 284.47,201.39 286.48,162.76 288.48,191.83 290.48,151.85 292.49,179.29 294.49,141.52 296.49,174.90 298.50,134.58 300.50,144.15 302.50,160.63 304.51,120.69 306.51,142.40 308.51,90.21 310.52,81.76 312.52,85.86 314.52,137.43 316.53,94.76 318.53,54.78 320.53,77.75 322.54,79.20 324.54,82.77 326.54,74.54 328.55,39.62 330.55,62.85 332.55,74.68 334.56,37.73 336.56,47.33 338.56,36.14 340.57,45.22 342.57,52.91 344.57,38.85 346.58,38.69 348.58,42.45 350.58,36.72 352.59,40.07 354.59,56.13 356.59,36.31 358.60,75.77 360.60,51.11 362.60,83.57 364.61,62.09 366.61,84.16 368.61,41.42 370.62,76.78 372.62,95.80 374.62,123.56 376.63,55.52 378.63,104.40 380.63,143.37 382.64,124.09 384.64,164.43 386.64,141.93 388.65,171.19 390.65,102.03 392.65,156.58 394.66,188.63 396.66,113.46 398.66,130.17 400.67,172.42 402.67,186.08 404.67,143.78 406.68,166.83 408.68,203.74 410.68,174.58 412.69,203.79 414.69,201.74 416.69,200.04 418.70,195.70 420.70,200.18 422.70,185.61 424.71,195.32 426.71,199.00 428.71,203.75 430.72,192.78 432.72,164.07 434.72,161.45 436.73,201.90 438.73,146.19 440.73,189.16 442.74,197.15 444.74,161.47 446.74,144.33 448.75,145.70 450.75,115.38 452.75,112.45 454.76,93.24 456.76,95.07 458.76,149.57 460.77,98.96 462.77,112.56 464.77,166.81 466.78,139.80 468.78,74.77 470.78,63.43 472.79,52.67 474.79,110.54 476.79,110.89 478.80,41.47 480.80,64.94 482.80,36.59 484.81,46.26 486.81,96.03 488.81,54.16 490.82,45.72 492.82,76.99 494.82,49.48 496.83,50.75 498.83,37.23 500.83,57.64 502.84,36.09 504.84,39.43 506.84,38.90 508.85,40.74 510.85,84.72 512.85,37.34 514.86,57.28 516.86,45.25 518.86,55.53 520.87,119.68 522.87,64.07 524.87,53.17 526.88,104.87 528.88,76.41 530.88,63.16 532.89,45.30 534.89,122.77 536.89,114.76 538.90,127.00 540.90,90.53 542.90,85.75 544.91,189.26 546.91,151.39 548.91,105.02 550.92,107.89 552.92,198.22 554.92,164.62 556.93,193.68 558.93,203.78 560.93,199.67 562.94,185.37 564.94,153.45 566.94,188.50 568.95,201.80 570.95,186.43 572.95,201.67 574.96,202.05 576.96,198.16 578.96,202.79 580.97,193.09 582.97,200.43 584.97,186.08 586.98,197.37 588.98,203.95 590.98,203.70 592.99,158.31 594.99,146.63 596.99,150.71 599.00,177.83 601.00,155.73 603.01,159.23 605.01,196.25 607.01,119.56 609.02,174.10 611.02,70.89 613.02,110.09 615.03,122.64 617.03,181.24 619.03,175.15 621.04,47.49 623.04,155.00 625.04,113.45 627.05,70.14 629.05,37.29 631.05,44.89 633.06,70.07 635.06,104.38 637.06,37.53 639.07,56.52 641.07,37.28 643.07,97.35 645.08,38.35 647.08,50.96 649.08,44.28 651.09,52.52 653.09,64.05 655.09,38.26 657.10,39.29 659.10,36.21 661.10,72.78 663.11,84.27 665.11,38.69 667.11,36.13 669.12,91.57 671.12,41.58 673.12,37.88 675.13,131.61 677.13,67.58 679.13,111.16 681.14,47.72 683.14,72.39 685.14,63.32 687.15,82.55 689.15,98.89 691.15,117.33 693.16,105.77 695.16,119.76 697.16,101.57 699.17,63.72 701.17,186.88 703.17,202.19 705.18,174.37 707.18,76.36 709.18,134.47 711.19,192.49 713.19,193.18 715.19,135.27 717.20,203.80 719.20,194.21 721.20,203.93 723.21,196.61 725.21,172.59 727.21,189.98 729.22,204.00 731.22,198.22 733.22,182.39 735.23,184.71 737.23,172.20 739.23,134.39 741.24,124.62 743.24,164.64 745.24,201.91 747.25,187.77 749.25,194.17 751.25,131.22 753.26,124.64 755.26,125.06 757.26,75.25 759.27,141.21 761.27,82.06 763.27,72.24 765.28,106.44 767.28,198.73 769.28,183.66 771.29,195.34 773.29,57.23 775.29,38.32 777.30,159.92 779.30,148.06 781.30,165.91 783.31,173.66 785.31,38.28 787.31,156.80 789.32,144.43 791.32,79.10 793.32,96.05 795.33,42.33 797.33,43.52 799.33,97.26 801.34,36.99 803.34,40.55 805.34,76.65 807.35,56.41 809.35,84.24 811.35,43.23 813.36,54.86 815.36,88.85 817.36,45.69 819.37,47.10 821.37,36.03 823.37,55.26 825.38,150.22 827.38,52.86 829.38,109.02 831.39,137.00 833.39,158.54 835.39,60.51 837.40,149.71 839.40,96.12 841.40,46.90 843.41,148.62 845.41,190.13 847.41,181.92 849.42,62.55 851.42,94.00 853.42,124.74 855.43,69.00 857.43,175.73 859.43,203.87 861.44,182.30 863.44,172.21 865.44,121.49 867.45,104.65 869.45,132.58 871.45,203.43 873.46,171.13 875.46,190.76 877.46,190.69 879.47,182.44 881.47,198.08 883.47,181.22 885.48,204.00 887.48,193.06 889.48,203.97 891.49,169.71 893.49,129.22 895.49,118.06 897.50,202.28 899.50,100.21 901.50,191.63 903.51,149.23 905.51,124.26 907.51,197.13 909.52,97.29 911.52,99.30 913.52,203.74 915.53,156.09 917.53,198.98 919.53,168.10 921.54,104.41 923.54,104.65 925.54,136.93 927.55,103.62 929.55,173.30 931.55,159.88 933.56,77.24 935.56,73.64 937.56,63.36 939.57,37.90 941.57,40.00 943.57,128.87 945.58,37.69 947.58,36.22 949.58,70.70 951.59,142.18 953.59,110.03 955.59,53.81 957.60,71.32 959.60,62.98 961.60,40.19 963.61,46.24 965.61,52.58 967.61,77.06 969.62,40.21 971.62,117.37 973.62,74.85 975.63,58.97 977.63,39.91 979.63,127.02 981.64,36.27 983.64,149.73 985.64,53.10 987.65,120.99 989.65,190.42 991.65,124.69 993.66,39.32 995.66,185.76 997.66,179.95 999.67,103.60 1001.67,150.54 1003.67,203.97 1005.68,79.71 1007.68,165.25 1009.68,100.91 1011.69,148.66 1013.69,187.61 1015.69,199.57 1017.70,183.74 1019.70,117.96 1021.70,92.75 1023.71,108.89 1025.71,155.14 1027.71,147.45 1029.72,113.80 1031.72,192.33 1033.72,200.98 1035.73,156.95 1037.73,202.92 1039.73,177.83 1041.74,178.28 1043.74,165.41 1045.74,178.98 1047.75,192.12 1049.75,201.72 1051.75,174.37 1053.76,174.03 1055.76,94.63 1057.76,78.00 1059.77,140.25 1061.77,67.98 1063.77,157.70 1065.78,163.72 1067.78,101.04 1069.78,97.45 1071.79,145.38 1073.79,203.15 1075.79,202.30 1077.80,150.57 1079.80,179.05 1081.80,76.61 1083.81,194.18 1085.81,70.63 1087.81,42.46 1089.82,47.57 1091.82,181.52 1093.82,47.70 1095.83,91.08 1097.83,83.69 1099.83,176.78 1101.84,160.98 1103.84,91.39 1105.84,36.59 1107.85,53.85 1109.85,39.33 1111.85,36.00 1113.86,81.25 1115.86,51.12 1117.86,128.68 1119.87,135.17 1121.87,36.10 1123.87,139.52 1125.88,52.39 1127.88,36.58 1129.88,45.17 1131.89,55.09 1133.89,119.92 1135.89,106.01 1137.90,49.11 1139.90,109.89 1141.90,45.84 1143.91,56.04 1145.91,38.86 1147.91,89.94 1149.92,84.72 1151.92,45.24 1153.92,198.60 1155.93,36.01 1157.93,48.44 1159.93,198.37 1161.94,203.98 1163.94,80.99 1165.94,95.42 1167.95,78.75 1169.95,83.42 1171.95,70.35 1173.96,203.43 1175.96,152.86 1177.96,173.83 1179.97,155.75 1181.97,115.87 1183.97,187.63 1185.98,172.97 1187.98,94.33 1189.98,203.95 1191.99,161.49 1193.99,186.31 1195.99,140.37 1198.00,120.64 1200.00,175.43" fill="none" stroke="black" stroke-width="3" stroke-linecap="round" stroke-linejoin="round"/></svg>