<svg xmlns="http://www.w3.org/2000/svg" viewBox="0 0 1200 240" width="1200" height="240"><rect width="1200" height="240" fill="white"/><polyline points="0.00,120.00 2.00,113.33 4.01,106.13 6.01,99.06 8.01,92.09 10.02,86.03 12.02,81.49 14.02,74.66 16.03,69.16 18.03,63.41 20.03,58.87 22.04,52.70 24.04,49.89 26.04,46.99 28.05,43.25 30.05,40.95 32.05,37.98 34.06,37.63 36.06,36.36 38.06,36.02 40.07,36.00 42.07,36.82 44.07,37.30 46.08,39.44 48.08,44.67 50.08,46.27 52.09,51.02 54.09,55.77 56.09,59.14 58.10,64.47 60.10,62.24 62.10,73.08 64.11,71.73 66.11,78.91 68.11,89.47 70.12,96.14 72.12,110.67 74.12,107.05 76.13,125.59 78.13,130.85 80.13,127.75 82.14,135.89 84.14,151.80 86.14,156.38 88.15,156.83 90.15,154.34 92.15,176.32 94.16,175.47 96.16,183.93 98.16,179.81 100.17,183.46 102.17,193.72 104.17,197.53 106.18,198.68 108.18,198.51 110.18,200.58 112.19,201.14 114.19,202.67 116.19,202.95 118.20,203.90 120.20,200.30 122.20,195.97 124.21,200.59 126.21,192.32 128.21,198.88 130.22,186.36 132.22,181.60 134.22,184.12 136.23,171.94 138.23,167.86 140.23,160.82 142.24,172.26 144.24,167.38 146.24,161.69 148.25,155.60 150.25,118.56 152.25,131.23 154.26,133.83 156.26,122.65 158.26,111.86 160.27,110.58 162.27,101.91 164.27,77.95 166.28,99.55 168.28,77.23 170.28,60.76 172.29,81.24 174.29,46.60 176.29,56.54 178.30,48.60 180.30,39.80 182.30,39.10 184.31,41.09 186.31,36.66 188.31,36.09 190.32,38.90 192.32,36.01 194.32,38.27 196.33,36.01 198.33,39.47 200.33,49.60 202.34,42.54 204.34,54.73 206.34,40.51 208.35,41.51 210.35,42.76 212.35,84.46 214.36,59.31 216.36,97.87 218.36,58.71 220.37,87.42 222.37,97.36 224.37,122.00 226.38,132.17 228.38,121.52 230.38,124.11 232.39,139.03 234.39,122.38 236.39,115.71 238.40,146.14 240.40,174.65 242.40,166.08 244.41,136.90 246.41,144.19 248.41,166.50 250.42,155.41 252.42,173.61 254.42,199.47 256.43,184.61 258.43,203.78 260.43,203.88 262.44,187.38 264.44,203.39 266.44,193.08 268.45,201.82 270.45,199.29 272.45,200.40 274.46,201.82 276.46,200.83 278.46,202.32 280.47,174.88 282.47,198.74 284.47,168.99 286.48,191.22 288.48,177.44 290.48,164.27 292.49,193.08 294.49,132.55 296.49,128.18 298.50,133.51 300.50,177.84 302.50,113.69 304.51,140.54 306.51,111.93 308.51,151.16 310.52,129.85 312.52,120.30 314.52,85.38 316.53,114.69 318.53,82.57 320.53,102.30 322.54,78.67 324.54,47.63 326.54,89.58 328.55,50.28 330.55,41.24 332.55,74.57 334.56,52.18 336.56,44.75 338.56,36.06 340.57,38.79 342.57,45.93 344.57,45.17 346.58,37.49 348.58,36.01 350.58,38.87 352.59,41.67 354.59,43.07 356.59,36.24 358.60,58.86 360.60,36.21 362.60,42.78 364.61,61.58 366.61,44.93 368.61,54.39 370.62,48.61 372.62,80.48 374.62,78.68 376.63,53.85 378.63,103.05 380.63,141.64 382.64,156.30 384.64,77.16 386.64,121.55 388.65,129.93 390.65,99.07 392.65,150.99 394.66,189.91 396.66,184.48 398.66,190.84 400.67,170.53 402.67,138.06 404.67,174.95 406.68,203.71 408.68,202.13 410.68,189.14 412.69,199.27 414.69,203.34 416.69,201.70 418.70,204.00 420.70,189.32 422.70,203.65 424.71,203.64 426.71,201.68 428.71,188.21 430.72,198.73 432.72,203.77 434.72,203.98 436.73,204.00 438.73,153.79 440.73,196.18 442.74,169.87 444.74,149.96 446.74,123.71 448.75,172.83 450.75,128.88 452.75,186.20 454.76,175.60 456.76,187.28 458.76,181.94 460.77,107.78 462.77,95.83 464.77,63.09 466.78,75.56 468.78,86.87 470.78,68.96 472.79,115.79 474.79,55.86 476.79,101.42 478.80,55.24 480.80,56.77 482.80,92.71 484.81,42.19 486.81,42.98 488.81,56.21 490.82,48.12 492.82,38.62 494.82,39.45 496.83,39.89 498.83,45.68 500.83,37.55 502.84,52.02 504.84,36.41 506.84,62.05 508.85,36.71 510.85,39.80 512.85,71.57 514.86,58.87 516.86,90.02 518.86,97.37 520.87,80.90 522.87,42.02 524.87,122.85 526.88,128.16 528.88,142.32 530.88,139.17 532.89,67.88 534.89,156.83 536.89,158.88 538.90,156.66 540.90,101.58 542.90,169.77 544.91,84.87 546.91,178.15 548.91,133.68 550.92,181.11 552.92,117.62 554.92,174.38 556.93,160.69 558.93,200.52 560.93,202.58 562.94,201.03 564.94,184.56 566.94,203.65 568.95,193.38 570.95,186.34 572.95,195.50 574.96,182.12 576.96,198.26 578.96,196.04 580.97,185.27 582.97,165.74 584.97,197.12 586.98,203.65 588.98,139.38 590.98,192.84 592.99,189.90 594.99,117.68 596.99,161.67 599.00,172.69 601.00,102.14 603.01,196.76 605.01,90.90 607.01,200.33 609.02,190.15 611.02,72.13 613.02,191.40 615.03,106.45 617.03,64.17 619.03,146.50 621.04,126.93 623.04,158.98 625.04,104.65 627.05,143.26 629.05,112.38 631.05,64.81 633.06,37.05 635.06,99.42 637.06,71.27 639.07,46.83 641.07,104.09 643.07,46.95 645.08,36.37 647.08,86.54 649.08,46.84 651.09,84.48 653.09,54.56 655.09,65.76 657.10,44.47 659.10,45.38 661.10,37.17 663.11,40.68 665.11,61.45 667.11,85.35 669.12,37.32 671.12,40.00 673.12,36.75 675.13,59.91 677.13,40.72 679.13,103.24 681.14,36.21 683.14,62.69 685.14,128.63 687.15,46.16 689.15,169.18 691.15,103.61 693.16,46.15 695.16,186.89 697.16,134.47 699.17,66.51 701.17,167.25 703.17,150.87 705.18,122.47 707.18,108.10 709.18,201.51 711.19,138.85 713.19,159.73 715.19,195.84 717.20,203.90 719.20,122.57 721.20,187.56 723.21,168.50 725.21,203.46 727.21,203.28 729.22,158.70 731.22,192.23 733.22,203.19 735.23,203.89 737.23,176.28 739.23,148.86 741.24,201.98 743.24,203.86 745.24,114.34 747.25,118.17 749.25,202.60 751.25,196.43 753.26,200.62 755.26,196.03 757.26,181.84 759.27,133.30 761.27,124.89 763.27,158.76 765.28,90.51 767.28,159.67 769.28,91.89 771.29,65.31 773.29,46.60 775.29,68.51 777.30,58.42 779.30,140.83 781.30,73.64 783.31,36.39 785.31,162.92 787.31,36.50 789.32,133.96 791.32,42.47 793.32,121.16 795.33,51.34 797.33,64.54 799.33,115.50 801.34,51.89 803.34,49.16 805.34,38.53 807.35,36.63 809.35,71.36 811.35,68.37 813.36,48.10 815.36,47.00 817.36,99.41 819.37,72.03 821.37,47.21 823.37,58.90 825.38,80.57 827.38,36.21 829.38,36.02 831.39,132.89 833.39,98.51 835.39,125.08 837.40,52.17 839.40,63.46 841.40,124.30 843.41,173.01 845.41,196.57 847.41,79.87 849.42,163.02 851.42,194.53 853.42,162.62 855.43,71.94 857.43,202.42 859.43,125.10 861.44,149.99 863.44,197.75 865.44,196.62 867.45,203.94 869.45,203.76 871.45,201.95 873.46,175.67 875.46,203.54 877.46,177.92 879.47,192.72 881.47,193.48 883.47,169.07 885.48,169.66 887.48,179.25 889.48,203.69 891.49,189.98 893.49,197.63 895.49,201.08 897.50,185.32 899.50,155.11 901.50,111.67 903.51,88.45 905.51,161.73 907.51,196.02 909.52,135.34 911.52,56.20 913.52,78.70 915.53,96.55 917.53,196.11 919.53,172.58 921.54,201.73 923.54,198.36 925.54,47.20 927.55,199.30 929.55,36.01 931.55,127.69 933.56,52.12 935.56,42.51 937.56,117.21 939.57,139.73 941.57,62.76 943.57,134.71 945.58,167.30 947.58,36.17 949.58,52.25 951.59,136.04 953.59,63.50 955.59,40.35 957.60,87.24 959.60,97.37 961.60,44.15 963.61,67.09 965.61,36.12 967.61,78.45 969.62,135.92 971.62,36.04 973.62,37.27 975.63,45.26 977.63,152.10 979.63,48.34 981.64,36.03 983.64,55.95 985.64,184.62 987.65,46.96 989.65,146.81 991.65,36.05 993.66,45.20 995.66,91.75 997.66,136.94 999.67,38.03 1001.67,188.29 1003.67,86.00 1005.68,177.17 1007.68,90.65 1009.68,161.54 1011.69,173.53 1013.69,201.76 1015.69,61.85 1017.70,66.65 1019.70,66.67 1021.70,192.47 1023.71,106.70 1025.71,124.41 1027.71,115.26 1029.72,199.48 1031.72,183.46 1033.72,193.75 1035.73,171.85 1037.73,186.92 1039.73,194.81 1041.74,112.04 1043.74,159.28 1045.74,197.49 1047.75,180.55 1049.75,197.32 1051.75,195.05 1053.76,158.05 1055.76,125.97 1057.76,202.24 1059.77,185.44 1061.77,172.33 1063.77,48.47 1065.78,200.77 1067.78,200.43 1069.78,88.41 1071.79,49.07 1073.79,202.25 1075.79,146.81 1077.80,95.20 1079.80,60.92 1081.80,36.93 1083.81,89.33 1085.81,122.88 1087.81,163.29 1089.82,99.57 1091.82,38.52 1093.82,85.51 1095.83,174.69 1097.83,55.83 1099.83,94.38 1101.84,47.04 1103.84,36.06 1105.84,48.26 1107.85,66.55 1109.85,39.87 1111.85,100.81 1113.86,51.53 1115.86,97.62 1117.86,65.58 1119.87,52.62 1121.87,60.65 1123.87,52.59 1125.88,36.67 1127.88,46.39 1129.88,145.51 1131.89,143.28 1133.89,43.43 1135.89,149.04 1137.90,129.18 1139.90,107.49 1141.90,44.71 1143.91,81.02 1145.91,44.66 1147.91,203.65 1149.92,194.43 1151.92,60.65 1153.92,202.64 1155.93,36.35 1157.93,201.30 1159.93,51.63 1161.94,197.75 1163.94,130.17 1165.94,195.08 1167.95,86.80 1169.95,137.23 1171.95,194.11 1173.96,76.42 1175.96,102.75 1177.96,71.02 1179.97,196.09 1181.97,147.79 1183.97,161.16 1185.98,199.45 1187.98,203.15 1189.98,94.36 1191.99,177.26 1193.99,203.58 1195.99,162.77 1198.00,123.51 1200.00,130.08" fill="none" stroke="black" stroke-width="3" stroke-linecap="round" stroke-linejoin="round"/></svg>