<svg xmlns="http://www.w3.org/2000/svg" viewBox="0 0 1200 240" width="1200" height="240"><rect width="1200" height="240" fill="white"/><polyline points="0.00,120.00 2.00,113.13 4.01,106.82 6.01,99.56 8.01,92.73 10.02,87.40 12.02,79.90 14.02,73.68 16.03,69.48 18.03,63.16 20.03,58.48 22.04,53.82 24.04,50.46 26.04,48.21 28.05,44.25 30.05,42.06 32.05,39.37 34.06,38.25 36.06,36.41 38.06,36.03 40.07,36.00 42.07,36.49 44.07,37.86 46.08,38.71 48.08,44.43 50.08,43.99 52.09,48.01 54.09,54.88 56.09,52.74 58.10,59.76 60.10,61.69 62.10,69.28 64.11,82.82 66.11,76.69 68.11,98.50 70.12,105.19 72.12,111.91 74.12,102.40 76.13,109.75 78.13,114.01 80.13,138.01 82.14,128.77 84.14,152.03 86.14,147.15 88.15,150.03 90.15,168.08 92.15,171.02 94.16,168.55 96.16,179.39 98.16,183.98 100.17,188.53 102.17,196.67 104.17,198.15 106.18,200.77 108.18,198.12 110.18,202.59 112.19,202.62 114.19,203.97 116.19,203.85 118.20,203.82 120.20,203.48 122.20,203.47 124.21,200.66 126.21,200.36 128.21,193.62 130.22,194.06 132.22,184.50 134.22,188.71 136.23,164.10 138.23,183.39 140.23,169.22 142.24,152.43 144.24,137.51 146.24,137.43 148.25,130.61 150.25,130.32 152.25,110.70 154.26,136.57 156.26,113.81 158.26,98.26 160.27,89.10 162.27,91.96 164.27,91.05 166.28,98.55 168.28,89.31 170.28,73.24 172.29,60.71 174.29,63.70 176.29,42.63 178.30,45.94 180.30,53.66 182.30,43.75 184.31,36.89 186.31,37.24 188.31,36.25 190.32,36.18 192.32,36.24 194.32,36.72 196.33,43.86 198.33,37.89 200.33,36.20 202.34,38.67 204.34,41.52 206.34,65.39 208.35,55.38 210.35,48.88 212.35,49.44 214.36,79.02 216.36,55.15 218.36,85.03 220.37,91.68 222.37,67.44 224.37,91.84 226.38,121.85 228.38,125.12 230.38,113.39 232.39,133.45 234.39,159.63 236.39,147.01 238.40,121.58 240.40,134.32 242.40,158.72 244.41,157.39 246.41,189.14 248.41,176.03 250.42,193.21 252.42,185.28 254.42,165.25 256.43,202.85 258.43,198.86 260.43,199.10 262.44,192.16 264.44,200.35 266.44,203.72 268.45,201.26 270.45,203.39 272.45,202.63 274.46,203.99 276.46,203.98 278.46,194.86 280.47,188.44 282.47,169.44 284.47,201.22 286.48,195.82 288.48,187.95 290.48,155.41 292.49,151.39 294.49,136.28 296.49,125.61 298.50,123.36 300.50,174.96 302.50,172.52 304.51,154.30 306.51,129.07 308.51,115.28 310.52,74.38 312.52,94.50 314.52,103.16 316.53,109.47 318.53,86.21 320.53,84.75 322.54,95.47 324.54,48.10 326.54,43.87 328.55,59.96 330.55,69.56 332.55,38.00 334.56,51.41 336.56,36.11 338.56,41.60 340.57,54.92 342.57,53.63 344.57,40.71 346.58,36.49 348.58,47.21 350.58,38.88 352.59,47.12 354.59,39.43 356.59,39.82 358.60,43.61 360.60,56.89 362.60,78.85 364.61,68.98 366.61,46.74 368.61,76.13 370.62,95.83 372.62,82.29 374.62,116.61 376.63,55.62 378.63,91.29 380.63,91.94 382.64,85.12 384.64,110.10 386.64,160.59 388.65,165.19 390.65,181.35 392.65,133.66 394.66,171.14 396.66,169.80 398.66,193.26 400.67,149.92 402.67,171.24 404.67,177.03 406.68,182.06 408.68,194.73 410.68,199.36 412.69,202.91 414.69,185.42 416.69,200.39 418.70,203.87 420.70,192.58 422.70,197.71 424.71,200.55 426.71,195.99 428.71,200.74 430.72,202.27 432.72,184.43 434.72,198.00 436.73,186.57 438.73,197.62 440.73,184.75 442.74,179.66 444.74,202.04 446.74,199.90 448.75,199.14 450.75,154.45 452.75,119.61 454.76,167.31 456.76,143.14 458.76,96.75 460.77,91.13 462.77,167.57 464.77,81.01 466.78,54.29 468.78,110.54 470.78,111.47 472.79,58.48 474.79,48.51 476.79,71.87 478.80,85.31 480.80,45.50 482.80,49.82 484.81,60.93 486.81,98.31 488.81,36.13 490.82,36.31 492.82,73.05 494.82,69.25 496.83,49.40 498.83,38.26 500.83,50.36 502.84,55.61 504.84,59.45 506.84,52.93 508.85,74.72 510.85,36.00 512.85,63.34 514.86,37.21 516.86,73.50 518.86,42.40 520.87,37.76 522.87,51.94 524.87,38.44 526.88,68.15 528.88,147.45 530.88,55.53 532.89,55.49 534.89,65.61 536.89,131.52 538.90,157.77 540.90,125.60 542.90,166.20 544.91,183.43 546.91,157.05 548.91,150.42 550.92,199.76 552.92,164.79 554.92,180.97 556.93,176.75 558.93,175.78 560.93,127.18 562.94,203.63 564.94,193.05 566.94,195.97 568.95,193.41 570.95,195.90 572.95,172.95 574.96,173.15 576.96,197.31 578.96,200.07 580.97,202.12 582.97,203.92 584.97,153.36 586.98,203.00 588.98,189.90 590.98,203.88 592.99,172.62 594.99,143.24 596.99,148.64 599.00,194.37 601.00,118.85 603.01,104.21 605.01,194.85 607.01,125.84 609.02,166.74 611.02,191.72 613.02,84.91 615.03,122.70 617.03,153.08 619.03,57.70 621.04,130.99 623.04,158.07 625.04,75.44 627.05,146.00 629.05,119.58 631.05,42.51 633.06,62.12 635.06,70.46 637.06,106.37 639.07,100.62 641.07,36.93 643.07,96.65 645.08,47.72 647.08,36.11 649.08,54.28 651.09,53.57 653.09,47.99 655.09,37.28 657.10,71.77 659.10,45.03 661.10,37.83 663.11,36.42 665.11,39.00 667.11,99.27 669.12,36.35 671.12,97.22 673.12,36.01 675.13,43.02 677.13,43.63 679.13,36.00 681.14,36.42 683.14,80.25 685.14,88.07 687.15,171.83 689.15,76.26 691.15,181.54 693.16,180.87 695.16,103.92 697.16,190.47 699.17,130.97 701.17,168.30 703.17,198.07 705.18,181.97 707.18,203.99 709.18,203.99 711.19,123.69 713.19,175.22 715.19,104.15 717.20,203.07 719.20,128.93 721.20,187.88 723.21,191.33 725.21,195.79 727.21,152.73 729.22,161.17 731.22,201.74 733.22,199.07 735.23,182.49 737.23,169.81 739.23,169.47 741.24,203.88 743.24,135.66 745.24,184.18 747.25,201.17 749.25,195.39 751.25,203.75 753.26,111.99 755.26,203.96 757.26,198.96 759.27,85.95 761.27,192.95 763.27,67.92 765.28,102.05 767.28,198.91 769.28,84.26 771.29,174.91 773.29,161.77 775.29,78.22 777.30,93.29 779.30,105.94 781.30,95.09 783.31,39.40 785.31,36.15 787.31,42.87 789.32,98.97 791.32,40.34 793.32,92.13 795.33,96.60 797.33,104.93 799.33,65.75 801.34,108.06 803.34,53.56 805.34,92.83 807.35,43.76 809.35,48.23 811.35,88.22 813.36,38.38 815.36,54.48 817.36,43.23 819.37,110.94 821.37,126.39 823.37,51.75 825.38,37.44 827.38,101.11 829.38,122.99 831.39,58.73 833.39,158.57 835.39,82.90 837.40,38.00 839.40,95.86 841.40,38.24 843.41,188.53 845.41,39.32 847.41,131.72 849.42,184.11 851.42,173.11 853.42,202.61 855.43,200.62 857.43,56.38 859.43,97.91 861.44,82.75 863.44,94.77 865.44,78.64 867.45,127.76 869.45,203.66 871.45,117.66 873.46,145.77 875.46,195.05 877.46,203.59 879.47,201.26 881.47,161.93 883.47,203.93 885.48,190.08 887.48,201.18 889.48,191.69 891.49,188.39 893.49,186.58 895.49,169.48 897.50,195.74 899.50,125.90 901.50,105.54 903.51,200.48 905.51,101.00 907.51,200.94 909.52,203.59 911.52,199.60 913.52,190.01 915.53,203.79 917.53,204.00 919.53,154.08 921.54,62.58 923.54,202.89 925.54,161.01 927.55,185.95 929.55,41.44 931.55,126.14 933.56,36.01 935.56,124.65 937.56,68.58 939.57,36.72 941.57,72.66 943.57,110.90 945.58,104.38 947.58,121.76 949.58,38.08 951.59,66.90 953.59,36.77 955.59,72.59 957.60,39.26 959.60,71.17 961.60,43.05 963.61,53.24 965.61,63.43 967.61,102.39 969.62,78.84 971.62,36.68 973.62,116.41 975.63,61.90 977.63,36.90 979.63,95.18 981.64,41.25 983.64,111.26 985.64,148.18 987.65,92.24 989.65,36.49 991.65,38.95 993.66,48.83 995.66,200.96 997.66,139.85 999.67,191.01 1001.67,148.18 1003.67,202.57 1005.68,37.93 1007.68,196.21 1009.68,75.37 1011.69,48.83 1013.69,126.44 1015.69,116.26 1017.70,77.85 1019.70,153.49 1021.70,88.36 1023.71,128.78 1025.71,137.13 1027.71,173.57 1029.72,115.82 1031.72,203.63 1033.72,175.59 1035.73,114.49 1037.73,156.98 1039.73,145.69 1041.74,189.14 1043.74,107.03 1045.74,138.69 1047.75,192.81 1049.75,203.98 1051.75,162.47 1053.76,119.18 1055.76,145.92 1057.76,203.99 1059.77,164.23 1061.77,86.48 1063.77,187.12 1065.78,45.07 1067.78,194.86 1069.78,176.62 1071.79,86.32 1073.79,99.98 1075.79,126.98 1077.80,173.69 1079.80,37.30 1081.80,186.54 1083.81,37.41 1085.81,202.70 1087.81,64.11 1089.82,162.71 1091.82,43.33 1093.82,37.04 1095.83,36.49 1097.83,130.59 1099.83,61.07 1101.84,120.62 1103.84,145.77 1105.84,69.10 1107.85,92.50 1109.85,36.05 1111.85,55.13 1113.86,106.57 1115.86,101.24 1117.86,71.83 1119.87,55.06 1121.87,88.34 1123.87,70.68 1125.88,98.82 1127.88,60.30 1129.88,99.50 1131.89,69.71 1133.89,177.68 1135.89,97.85 1137.90,140.37 1139.90,38.96 1141.90,46.61 1143.91,87.62 1145.91,49.61 1147.91,130.34 1149.92,123.30 1151.92,48.79 1153.92,101.67 1155.93,61.79 1157.93,36.00 1159.93,79.17 1161.94,55.82 1163.94,200.61 1165.94,180.44 1167.95,173.54 1169.95,202.65 1171.95,202.89 1173.96,80.53 1175.96,186.31 1177.96,196.24 1179.97,112.48 1181.97,106.02 1183.97,199.12 1185.98,196.75 1187.98,163.73 1189.98,187.31 1191.99,179.82 1193.99,178.87 1195.99,143.36 1198.00,203.47 1200.00,187.06" fill="none" stroke="black" stroke-width="3" stroke-linecap="round" stroke-linejoin="round"/></svg>