<svg xmlns="http://www.w3.org/2000/svg" viewBox="0 0 1200 240" width="1200" height="240"><rect width="1200" height="240" fill="white"/><polyline points="0.00,120.00 2.00,116.04 4.01,112.09 6.01,108.16 8.01,104.26 10.02,100.39 12.02,96.56 14.02,92.79 16.03,89.08 18.03,85.43 20.03,81.86 22.04,78.38 24.04,74.99 26.04,71.70 28.05,68.52 30.05,65.45 32.05,62.50 34.06,59.68 36.06,56.99 38.06,54.44 40.07,52.04 42.07,49.79 44.07,47.70 46.08,45.76 48.08,43.99 50.08,42.39 52.09,40.97 54.09,39.71 56.09,38.64 58.10,37.75 60.10,37.03 62.10,36.51 64.11,36.17 66.11,36.01 68.11,36.04 70.12,36.26 72.12,36.66 74.12,37.25 76.13,38.02 78.13,38.98 80.13,40.11 82.14,41.42 84.14,42.91 86.14,44.57 88.15,46.39 90.15,48.38 92.15,50.53 94.16,52.83 96.16,55.28 98.16,57.87 100.17,60.60 102.17,63.47 104.17,66.46 106.18,69.56 108.18,72.78 110.18,76.11 112.19,79.53 114.19,83.05 116.19,86.64 118.20,90.31 120.20,94.04 122.20,97.83 124.21,101.68 126.21,105.56 128.21,109.47 130.22,113.41 132.22,117.36 134.22,121.32 136.23,125.27 138.23,129.22 140.23,133.14 142.24,137.03 144.24,140.89 146.24,144.70 148.25,148.45 150.25,152.15 152.25,155.77 154.26,159.31 156.26,162.76 158.26,166.12 160.27,169.37 162.27,172.52 164.27,175.55 166.28,178.46 168.28,181.23 170.28,183.87 172.29,186.37 174.29,188.72 176.29,190.92 178.30,192.97 180.30,194.84 182.30,196.56 184.31,198.10 186.31,199.47 188.31,200.66 190.32,201.68 192.32,202.51 194.32,203.16 196.33,203.63 198.33,203.91 200.33,204.00 202.34,203.91 204.34,203.63 206.34,203.16 208.35,202.51 210.35,201.68 212.35,200.66 214.36,199.47 216.36,198.10 218.36,196.56 220.37,194.84 222.37,192.97 224.37,190.92 226.38,188.72 228.38,186.37 230.38,183.87 232.39,181.23 234.39,178.46 236.39,175.55 238.40,172.52 240.40,169.37 242.40,166.12 244.41,162.76 246.41,159.31 248.41,155.77 250.42,152.15 252.42,148.45 254.42,144.70 256.43,140.89 258.43,137.03 260.43,133.14 262.44,129.22 264.44,125.27 266.44,121.32 268.45,117.36 270.45,113.41 272.45,109.47 274.46,105.56 276.46,101.68 278.46,97.83 280.47,94.04 282.47,90.31 284.47,86.64 286.48,83.05 288.48,79.53 290.48,76.11 292.49,72.78 294.49,69.56 296.49,66.46 298.50,63.47 300.50,60.60 302.50,57.87 304.51,55.28 306.51,52.83 308.51,50.53 310.52,48.38 312.52,46.39 314.52,44.57 316.53,42.91 318.53,41.42 320.53,40.11 322.54,38.98 324.54,38.02 326.54,37.25 328.55,36.66 330.55,36.26 332.55,36.04 334.56,36.01 336.56,36.17 338.56,36.51 340.57,37.03 342.57,37.75 344.57,38.64 346.58,39.71 348.58,40.97 350.58,42.39 352.59,43.99 354.59,45.76 356.59,47.70 358.60,49.79 360.60,52.04 362.60,54.44 364.61,56.99 366.61,59.68 368.61,62.50 370.62,65.45 372.62,68.52 374.62,71.70 376.63,74.99 378.63,78.38 380.63,81.86 382.64,85.43 384.64,89.08 386.64,92.79 388.65,96.56 390.65,100.39 392.65,104.26 394.66,108.16 396.66,112.09 398.66,116.04 400.67,120.00 402.67,123.96 404.67,127.91 406.68,131.84 408.68,135.74 410.68,139.61 412.69,143.44 414.69,147.21 416.69,150.92 418.70,154.57 420.70,158.14 422.70,161.62 424.71,165.01 426.71,168.30 428.71,171.48 430.72,174.55 432.72,177.50 434.72,180.32 436.73,183.01 438.73,185.56 440.73,187.96 442.74,190.21 444.74,192.30 446.74,194.24 448.75,196.01 450.75,197.61 452.75,199.03 454.76,200.29 456.76,201.36 458.76,202.25 460.77,202.97 462.77,203.49 464.77,203.83 466.78,203.99 468.78,203.96 470.78,203.74 472.79,203.34 474.79,202.75 476.79,201.98 478.80,201.02 480.80,199.89 482.80,198.58 484.81,197.09 486.81,195.43 488.81,193.61 490.82,191.62 492.82,189.47 494.82,187.17 496.83,184.72 498.83,182.13 500.83,179.40 502.84,176.53 504.84,173.54 506.84,170.44 508.85,167.22 510.85,163.89 512.85,160.47 514.86,156.95 516.86,153.36 518.86,149.69 520.87,145.96 522.87,142.17 524.87,138.32 526.88,134.44 528.88,130.53 530.88,126.59 532.89,122.64 534.89,118.68 536.89,114.73 538.90,110.78 540.90,106.86 542.90,102.97 544.91,99.11 546.91,95.30 548.91,91.55 550.92,87.85 552.92,84.23 554.92,80.69 556.93,77.24 558.93,73.88 560.93,70.63 562.94,67.48 564.94,64.45 566.94,61.54 568.95,58.77 570.95,56.13 572.95,53.63 574.96,51.28 576.96,49.08 578.96,47.03 580.97,45.16 582.97,43.44 584.97,41.90 586.98,40.53 588.98,39.34 590.98,38.32 592.99,37.49 594.99,36.84 596.99,36.37 599.00,36.09 601.00,36.00 603.01,36.09 605.01,36.37 607.01,36.84 609.02,37.49 611.02,38.32 613.02,39.34 615.03,40.53 617.03,41.90 619.03,43.44 621.04,45.16 623.04,47.03 625.04,49.08 627.05,51.28 629.05,53.63 631.05,56.13 633.06,58.77 635.06,61.54 637.06,64.45 639.07,67.48 641.07,70.63 643.07,73.88 645.08,77.24 647.08,80.69 649.08,84.23 651.09,87.85 653.09,91.55 655.09,95.30 657.10,99.11 659.10,102.97 661.10,106.86 663.11,110.78 665.11,114.73 667.11,118.68 669.12,122.64 671.12,126.59 673.12,130.53 675.13,134.44 677.13,138.32 679.13,142.17 681.14,145.96 683.14,149.69 685.14,153.36 687.15,156.95 689.15,160.47 691.15,163.89 693.16,167.22 695.16,170.44 697.16,173.54 699.17,176.53 701.17,179.40 703.17,182.13 705.18,184.72 707.18,187.17 709.18,189.47 711.19,191.62 713.19,193.61 715.19,195.43 717.20,197.09 719.20,198.58 721.20,199.89 723.21,201.02 725.21,201.98 727.21,202.75 729.22,203.34 731.22,203.74 733.22,203.96 735.23,203.99 737.23,203.83 739.23,203.49 741.24,202.97 743.24,202.25 745.24,201.36 747.25,200.29 749.25,199.03 751.25,197.61 753.26,196.01 755.26,194.24 757.26,192.30 759.27,190.21 761.27,187.96 763.27,185.56 765.28,183.01 767.28,180.32 769.28,177.50 771.29,174.55 773.29,171.48 775.29,168.30 777.30,165.01 779.30,161.62 781.30,158.14 783.31,154.57 785.31,150.92 787.31,147.21 789.32,143.44 791.32,139.61 793.32,135.74 795.33,131.84 797.33,127.91 799.33,123.96 801.34,120.00 803.34,116.04 805.34,112.09 807.35,108.16 809.35,104.26 811.35,100.39 813.36,96.56 815.36,92.79 817.36,89.08 819.37,85.43 821.37,81.86 823.37,78.38 825.38,74.99 827.38,71.70 829.38,68.52 831.39,65.45 833.39,62.50 835.39,59.68 837.40,56.99 839.40,54.44 841.40,52.04 843.41,49.79 845.41,47.70 847.41,45.76 849.42,43.99 851.42,42.39 853.42,40.97 855.43,39.71 857.43,38.64 859.43,37.75 861.44,37.03 863.44,36.51 865.44,36.17 867.45,36.01 869.45,36.04 871.45,36.26 873.46,36.66 875.46,37.25 877.46,38.02 879.47,38.98 881.47,40.11 883.47,41.42 885.48,42.91 887.48,44.57 889.48,46.39 891.49,48.38 893.49,50.53 895.49,52.83 897.50,55.28 899.50,57.87 901.50,60.60 903.51,63.47 905.51,66.46 907.51,69.56 909.52,72.78 911.52,76.11 913.52,79.53 915.53,83.05 917.53,86.64 919.53,90.31 921.54,94.04 923.54,97.83 925.54,101.68 927.55,105.56 929.55,109.47 931.55,113.41 933.56,117.36 935.56,121.32 937.56,125.27 939.57,129.22 941.57,133.14 943.57,137.03 945.58,140.89 947.58,144.70 949.58,148.45 951.59,152.15 953.59,155.77 955.59,159.31 957.60,162.76 959.60,166.12 961.60,169.37 963.61,172.52 965.61,175.55 967.61,178.46 969.62,181.23 971.62,183.87 973.62,186.37 975.63,188.72 977.63,190.92 979.63,192.97 981.64,194.84 983.64,196.56 985.64,198.10 987.65,199.47 989.65,200.66 991.65,201.68 993.66,202.51 995.66,203.16 997.66,203.63 999.67,203.91 1001.67,204.00 1003.67,203.91 1005.68,203.63 1007.68,203.16 1009.68,202.51 1011.69,201.68 1013.69,200.66 1015.69,199.47 1017.70,198.10 1019.70,196.56 1021.70,194.84 1023.71,192.97 1025.71,190.92 1027.71,188.72 1029.72,186.37 1031.72,183.87 1033.72,181.23 1035.73,178.46 1037.73,175.55 1039.73,172.52 1041.74,169.37 1043.74,166.12 1045.74,162.76 1047.75,159.31 1049.75,155.77 1051.75,152.15 1053.76,148.45 1055.76,144.70 1057.76,140.89 1059.77,137.03 1061.77,133.14 1063.77,129.22 1065.78,125.27 1067.78,121.32 1069.78,117.36 1071.79,113.41 1073.79,109.47 1075.79,105.56 1077.80,101.68 1079.80,97.83 1081.80,94.04 1083.81,90.31 1085.81,86.64 1087.81,83.05 1089.82,79.53 1091.82,76.11 1093.82,72.78 1095.83,69.56 1097.83,66.46 1099.83,63.47 1101.84,60.60 1103.84,57.87 1105.84,55.28 1107.85,52.83 1109.85,50.53 1111.85,48.38 1113.86,46.39 1115.86,44.57 1117.86,42.91 1119.87,41.42 1121.87,40.11 1123.87,38.98 1125.88,38.02 1127.88,37.25 1129.88,36.66 1131.89,36.26 1133.89,36.04 1135.89,36.01 1137.90,36.17 1139.90,36.51 1141.90,37.03 1143.91,37.75 1145.91,38.64 1147.91,39.71 1149.92,40.97 1151.92,42.39 1153.92,43.99 1155.93,45.76 1157.93,47.70 1159.93,49.79 1161.94,52.04 1163.94,54.44 1165.94,56.99 1167.95,59.68 1169.95,62.50 1171.95,65.45 1173.96,68.52 1175.96,71.70 1177.96,74.99 1179.97,78.38 1181.97,81.86 1183.97,85.43 1185.98,89.08 1187.98,92.79 1189.98,96.56 1191.99,100.39 1193.99,104.26 1195.99,108.16 1198.00,112.09 1200.00,116.04" fill="none" stroke="black" stroke-width="3" stroke-linecap="round" stroke-linejoin="round"/></svg>