<svg xmlns="http://www.w3.org/2000/svg" viewBox="0 0 1200 240" width="1200" height="240"><rect width="1200" height="240" fill="white"/><polyline points="0.00,120.00 2.00,113.25 4.01,106.24 6.01,99.58 8.01,94.00 10.02,87.13 12.02,80.04 14.02,75.29 16.03,69.81 18.03,63.20 20.03,57.49 22.04,55.13 24.04,50.38 26.04,46.61 28.05,44.85 30.05,42.35 32.05,39.61 34.06,37.72 36.06,36.86 38.06,36.14 40.07,36.62 42.07,37.39 44.07,38.32 46.08,39.47 48.08,43.67 50.08,47.78 52.09,46.13 54.09,55.55 56.09,52.42 58.10,64.75 60.10,69.89 62.10,72.26 64.11,82.99 66.11,81.46 68.11,90.24 70.12,104.11 72.12,98.61 74.12,109.62 76.13,126.56 78.13,129.37 80.13,123.27 82.14,143.55 84.14,149.45 86.14,143.78 88.15,155.62 90.15,153.71 92.15,176.84 94.16,170.11 96.16,177.69 98.16,188.14 100.17,189.73 102.17,197.40 104.17,200.09 106.18,193.28 108.18,196.32 110.18,202.76 112.19,201.63 114.19,202.99 116.19,202.96 118.20,201.46 120.20,202.70 122.20,201.58 124.21,202.47 126.21,198.58 128.21,184.41 130.22,195.80 132.22,192.66 134.22,169.64 136.23,177.88 138.23,165.05 140.23,154.27 142.24,171.92 144.24,164.89 146.24,154.25 148.25,129.73 150.25,137.11 152.25,131.49 154.26,116.24 156.26,98.09 158.26,117.36 160.27,102.19 162.27,89.25 164.27,81.95 166.28,73.93 168.28,71.87 170.28,67.73 172.29,52.01 174.29,50.41 176.29,48.78 178.30,40.02 180.30,42.14 182.30,42.43 184.31,45.62 186.31,37.76 188.31,41.10 190.32,36.03 192.32,37.20 194.32,40.04 196.33,37.72 198.33,39.42 200.33,49.45 202.34,48.66 204.34,44.40 206.34,48.88 208.35,42.28 210.35,68.04 212.35,80.67 214.36,75.17 216.36,64.95 218.36,96.22 220.37,77.18 222.37,113.63 224.37,97.75 226.38,96.65 228.38,109.53 230.38,96.49 232.39,133.00 234.39,108.95 236.39,161.66 238.40,144.20 240.40,132.21 242.40,150.09 244.41,134.90 246.41,186.38 248.41,189.55 250.42,170.54 252.42,164.01 254.42,177.43 256.43,198.78 258.43,200.42 260.43,199.39 262.44,198.92 264.44,192.78 266.44,202.15 268.45,203.95 270.45,203.13 272.45,203.98 274.46,203.33 276.46,202.67 278.46,189.30 280.47,177.68 282.47,193.99 284.47,199.11 286.48,184.13 288.48,175.41 290.48,178.34 292.49,190.23 294.49,178.60 296.49,124.34 298.50,169.87 300.50,154.63 302.50,152.25 304.51,152.50 306.51,124.10 308.51,104.00 310.52,146.41 312.52,116.02 314.52,130.19 316.53,110.59 318.53,59.06 320.53,51.75 322.54,73.73 324.54,56.60 326.54,43.87 328.55,55.83 330.55,41.66 332.55,51.39 334.56,39.29 336.56,42.47 338.56,51.01 340.57,59.34 342.57,39.17 344.57,36.22 346.58,38.32 348.58,44.33 350.58,36.27 352.59,36.50 354.59,38.73 356.59,41.05 358.60,64.65 360.60,36.04 362.60,43.22 364.61,44.39 366.61,83.78 368.61,41.98 370.62,55.16 372.62,104.30 374.62,86.50 376.63,72.45 378.63,141.73 380.63,78.76 382.64,123.55 384.64,109.78 386.64,133.43 388.65,166.96 390.65,123.96 392.65,155.31 394.66,108.13 396.66,110.44 398.66,176.90 400.67,166.39 402.67,172.91 404.67,159.02 406.68,189.87 408.68,160.13 410.68,172.84 412.69,184.30 414.69,199.40 416.69,200.86 418.70,199.21 420.70,201.79 422.70,190.74 424.71,192.78 426.71,196.45 428.71,174.90 430.72,175.16 432.72,170.14 434.72,181.97 436.73,154.86 438.73,202.83 440.73,190.43 442.74,164.55 444.74,135.30 446.74,169.33 448.75,129.54 450.75,188.86 452.75,124.42 454.76,139.26 456.76,120.38 458.76,157.18 460.77,94.74 462.77,172.60 464.77,132.87 466.78,155.36 468.78,105.85 470.78,95.78 472.79,44.87 474.79,84.33 476.79,67.38 478.80,112.83 480.80,68.08 482.80,39.98 484.81,106.12 486.81,37.43 488.81,49.13 490.82,38.52 492.82,40.68 494.82,64.48 496.83,36.47 498.83,59.28 500.83,36.46 502.84,36.00 504.84,38.26 506.84,66.39 508.85,73.02 510.85,39.25 512.85,72.08 514.86,47.35 516.86,101.16 518.86,45.55 520.87,66.82 522.87,62.86 524.87,47.62 526.88,129.23 528.88,101.15 530.88,44.12 532.89,74.47 534.89,98.30 536.89,75.12 538.90,167.33 540.90,154.16 542.90,184.03 544.91,124.73 546.91,115.88 548.91,94.12 550.92,108.53 552.92,201.67 554.92,141.31 556.93,192.68 558.93,153.81 560.93,198.66 562.94,173.78 564.94,191.52 566.94,196.34 568.95,169.39 570.95,200.45 572.95,203.02 574.96,198.47 576.96,177.42 578.96,180.72 580.97,185.55 582.97,168.90 584.97,174.76 586.98,202.55 588.98,195.17 590.98,201.48 592.99,180.88 594.99,165.54 596.99,189.94 599.00,196.30 601.00,175.26 603.01,165.83 605.01,115.68 607.01,181.89 609.02,197.74 611.02,75.58 613.02,192.73 615.03,83.94 617.03,144.53 619.03,179.72 621.04,162.33 623.04,124.22 625.04,77.39 627.05,157.32 629.05,102.12 631.05,60.05 633.06,135.64 635.06,52.80 637.06,130.17 639.07,36.19 641.07,36.36 643.07,38.71 645.08,44.22 647.08,40.32 649.08,37.28 651.09,81.22 653.09,36.35 655.09,36.20 657.10,36.00 659.10,47.41 661.10,94.70 663.11,59.75 665.11,50.03 667.11,37.15 669.12,36.43 671.12,88.64 673.12,133.34 675.13,39.80 677.13,37.46 679.13,38.83 681.14,37.08 683.14,132.70 685.14,81.52 687.15,43.24 689.15,47.73 691.15,58.00 693.16,131.30 695.16,75.96 697.16,143.21 699.17,143.42 701.17,171.07 703.17,118.49 705.18,195.15 707.18,79.24 709.18,171.79 711.19,184.51 713.19,169.02 715.19,101.01 717.20,175.32 719.20,134.36 721.20,203.40 723.21,192.91 725.21,191.86 727.21,202.92 729.22,169.94 731.22,202.86 733.22,203.00 735.23,200.05 737.23,141.85 739.23,198.69 741.24,187.36 743.24,172.38 745.24,193.86 747.25,199.00 749.25,203.23 751.25,203.92 753.26,111.59 755.26,203.77 757.26,203.83 759.27,197.58 761.27,175.82 763.27,137.80 765.28,160.24 767.28,193.76 769.28,48.67 771.29,85.00 773.29,193.67 775.29,188.42 777.30,105.40 779.30,166.70 781.30,144.06 783.31,51.40 785.31,67.88 787.31,38.21 789.32,38.92 791.32,79.73 793.32,125.66 795.33,37.25 797.33,85.06 799.33,43.37 801.34,45.18 803.34,97.65 805.34,44.62 807.35,49.46 809.35,55.03 811.35,49.26 813.36,36.49 815.36,45.17 817.36,40.77 819.37,114.58 821.37,44.04 823.37,46.32 825.38,77.49 827.38,133.49 829.38,55.45 831.39,51.23 833.39,85.97 835.39,36.66 837.40,170.84 839.40,118.55 841.40,184.52 843.41,159.34 845.41,103.05 847.41,81.37 849.42,189.50 851.42,103.25 853.42,100.95 855.43,204.00 857.43,56.60 859.43,202.07 861.44,201.73 863.44,146.95 865.44,185.87 867.45,88.66 869.45,166.10 871.45,200.65 873.46,134.04 875.46,199.12 877.46,125.91 879.47,188.80 881.47,203.96 883.47,128.30 885.48,186.73 887.48,202.10 889.48,200.26 891.49,187.88 893.49,200.97 895.49,172.60 897.50,185.09 899.50,198.81 901.50,153.91 903.51,177.76 905.51,191.20 907.51,113.87 909.52,197.88 911.52,199.42 913.52,64.16 915.53,116.40 917.53,161.30 919.53,144.41 921.54,147.85 923.54,155.94 925.54,103.33 927.55,59.81 929.55,169.41 931.55,131.29 933.56,74.26 935.56,36.92 937.56,177.32 939.57,67.83 941.57,45.73 943.57,44.67 945.58,120.08 947.58,149.32 949.58,96.33 951.59,59.22 953.59,46.70 955.59,72.09 957.60,123.67 959.60,40.21 961.60,94.41 963.61,36.30 965.61,104.92 967.61,65.57 969.62,77.45 971.62,58.43 973.62,71.03 975.63,36.07 977.63,94.94 979.63,164.54 981.64,41.70 983.64,170.64 985.64,48.49 987.65,157.02 989.65,51.11 991.65,38.71 993.66,36.20 995.66,43.30 997.66,197.66 999.67,46.27 1001.67,169.27 1003.67,109.02 1005.68,56.89 1007.68,93.16 1009.68,71.36 1011.69,84.10 1013.69,148.60 1015.69,195.89 1017.70,164.26 1019.70,135.77 1021.70,178.94 1023.71,91.97 1025.71,202.81 1027.71,203.62 1029.72,202.32 1031.72,195.09 1033.72,154.78 1035.73,203.78 1037.73,124.22 1039.73,198.18 1041.74,155.49 1043.74,194.03 1045.74,197.01 1047.75,141.03 1049.75,105.68 1051.75,185.86 1053.76,189.76 1055.76,200.97 1057.76,78.67 1059.77,201.72 1061.77,94.36 1063.77,108.27 1065.78,162.70 1067.78,75.92 1069.78,151.51 1071.79,200.90 1073.79,40.72 1075.79,203.46 1077.80,37.57 1079.80,140.30 1081.80,179.07 1083.81,36.02 1085.81,187.95 1087.81,78.24 1089.82,54.56 1091.82,49.29 1093.82,40.71 1095.83,50.68 1097.83,36.62 1099.83,38.08 1101.84,40.84 1103.84,82.81 1105.84,83.29 1107.85,61.03 1109.85,42.07 1111.85,37.44 1113.86,46.75 1115.86,44.60 1117.86,119.79 1119.87,38.33 1121.87,75.56 1123.87,94.61 1125.88,81.78 1127.88,95.09 1129.88,54.49 1131.89,83.53 1133.89,36.52 1135.89,37.13 1137.90,69.70 1139.90,43.04 1141.90,37.29 1143.91,97.14 1145.91,111.14 1147.91,39.13 1149.92,198.17 1151.92,202.78 1153.92,36.05 1155.93,202.11 1157.93,146.23 1159.93,37.77 1161.94,144.50 1163.94,160.19 1165.94,133.91 1167.95,112.20 1169.95,200.28 1171.95,53.17 1173.96,63.19 1175.96,158.68 1177.96,200.66 1179.97,172.48 1181.97,152.21 1183.97,135.50 1185.98,113.35 1187.98,91.81 1189.98,193.09 1191.99,161.07 1193.99,187.49 1195.99,170.52 1198.00,131.02 1200.00,174.55" fill="none" stroke="black" stroke-width="3" stroke-linecap="round" stroke-linejoin="round"/></svg>