<svg xmlns="http://www.w3.org/2000/svg" viewBox="0 0 1200 240" width="1200" height="240"><rect width="1200" height="240" fill="white"/><polyline points="0.00,120.00 2.00,113.39 4.01,106.02 6.01,99.44 8.01,93.76 10.02,87.38 12.02,80.77 14.02,73.56 16.03,69.50 18.03,63.55 20.03,57.27 22.04,54.28 24.04,51.88 26.04,47.89 28.05,43.42 30.05,40.56 32.05,39.42 34.06,37.20 36.06,36.36 38.06,36.00 40.07,36.01 42.07,36.64 44.07,37.68 46.08,41.74 48.08,43.34 50.08,46.82 52.09,48.27 54.09,49.18 56.09,61.32 58.10,63.18 60.10,65.49 62.10,77.35 64.11,72.10 66.11,85.58 68.11,83.25 70.12,88.99 72.12,111.44 74.12,110.31 76.13,118.52 78.13,123.91 80.13,130.50 82.14,142.28 84.14,136.83 86.14,140.44 88.15,147.49 90.15,155.85 92.15,167.51 94.16,182.20 96.16,182.37 98.16,190.07 100.17,189.98 102.17,185.33 104.17,198.36 106.18,197.42 108.18,201.96 110.18,202.60 112.19,203.97 114.19,203.95 116.19,203.34 118.20,201.10 120.20,203.44 122.20,197.35 124.21,202.53 126.21,189.24 128.21,199.00 130.22,188.93 132.22,190.09 134.22,187.77 136.23,175.72 138.23,177.25 140.23,153.37 142.24,156.42 144.24,148.73 146.24,163.16 148.25,121.81 150.25,145.48 152.25,139.33 154.26,119.10 156.26,105.51 158.26,94.08 160.27,83.81 162.27,106.68 164.27,71.28 166.28,94.70 168.28,58.07 170.28,59.66 172.29,68.58 174.29,67.54 176.29,58.55 178.30,42.90 180.30,44.61 182.30,42.42 184.31,49.21 186.31,36.00 188.31,36.49 190.32,36.02 192.32,36.08 194.32,37.17 196.33,36.10 198.33,36.01 200.33,40.15 202.34,37.51 204.34,38.85 206.34,39.94 208.35,50.82 210.35,71.05 212.35,56.91 214.36,87.86 216.36,71.83 218.36,58.05 220.37,65.94 222.37,88.39 224.37,88.82 226.38,111.28 228.38,134.59 230.38,120.38 232.39,95.52 234.39,125.76 236.39,125.61 238.40,149.12 240.40,170.48 242.40,134.43 244.41,148.22 246.41,147.52 248.41,186.31 250.42,183.19 252.42,187.39 254.42,177.49 256.43,200.91 258.43,185.49 260.43,194.02 262.44,200.77 264.44,199.63 266.44,193.63 268.45,200.09 270.45,197.80 272.45,203.78 274.46,203.96 276.46,203.48 278.46,200.81 280.47,174.93 282.47,176.60 284.47,191.57 286.48,198.74 288.48,162.58 290.48,197.23 292.49,160.69 294.49,189.57 296.49,133.90 298.50,145.83 300.50,142.66 302.50,155.47 304.51,134.33 306.51,105.29 308.51,102.12 310.52,94.39 312.52,134.14 314.52,131.24 316.53,75.14 318.53,101.30 320.53,59.02 322.54,74.82 324.54,102.62 326.54,47.42 328.55,61.46 330.55,74.62 332.55,36.53 334.56,67.14 336.56,39.00 338.56,56.70 340.57,36.81 342.57,47.51 344.57,39.90 346.58,47.50 348.58,37.00 350.58,36.88 352.59,36.01 354.59,38.11 356.59,61.08 358.60,36.00 360.60,36.40 362.60,75.74 364.61,96.59 366.61,54.81 368.61,83.49 370.62,54.53 372.62,69.79 374.62,57.77 376.63,134.33 378.63,88.49 380.63,61.90 382.64,122.07 384.64,73.58 386.64,90.45 388.65,118.46 390.65,135.51 392.65,167.92 394.66,111.30 396.66,163.58 398.66,189.42 400.67,198.29 402.67,179.05 404.67,154.77 406.68,159.34 408.68,193.32 410.68,173.89 412.69,201.43 414.69,203.52 416.69,169.72 418.70,194.60 420.70,201.12 422.70,202.13 424.71,190.49 426.71,194.60 428.71,188.93 430.72,193.23 432.72,196.83 434.72,189.08 436.73,203.44 438.73,203.09 440.73,157.06 442.74,161.81 444.74,202.57 446.74,192.51 448.75,180.87 450.75,132.88 452.75,171.56 454.76,147.34 456.76,146.08 458.76,171.65 460.77,126.65 462.77,139.04 464.77,124.69 466.78,86.48 468.78,127.86 470.78,71.54 472.79,101.90 474.79,108.32 476.79,63.35 478.80,62.66 480.80,36.22 482.80,87.78 484.81,50.20 486.81,36.22 488.81,46.32 490.82,76.91 492.82,39.65 494.82,44.71 496.83,36.43 498.83,39.11 500.83,36.82 502.84,54.85 504.84,41.58 506.84,63.81 508.85,36.50 510.85,48.68 512.85,36.09 514.86,48.70 516.86,40.94 518.86,47.09 520.87,113.91 522.87,124.11 524.87,99.56 526.88,86.24 528.88,40.24 530.88,72.35 532.89,103.29 534.89,66.52 536.89,127.40 538.90,134.88 540.90,87.06 542.90,84.69 544.91,168.22 546.91,141.83 548.91,166.54 550.92,118.99 552.92,179.80 554.92,166.61 556.93,195.17 558.93,125.75 560.93,187.16 562.94,203.82 564.94,171.04 566.94,201.59 568.95,158.27 570.95,159.61 572.95,174.56 574.96,200.37 576.96,175.90 578.96,203.52 580.97,203.96 582.97,178.61 584.97,196.88 586.98,194.35 588.98,168.50 590.98,203.94 592.99,178.76 594.99,133.37 596.99,142.00 599.00,130.49 601.00,176.33 603.01,151.30 605.01,89.89 607.01,170.19 609.02,81.77 611.02,102.68 613.02,193.04 615.03,119.63 617.03,73.48 619.03,178.08 621.04,69.59 623.04,55.18 625.04,45.84 627.05,93.73 629.05,61.20 631.05,37.55 633.06,53.19 635.06,113.66 637.06,45.73 639.07,40.28 641.07,60.03 643.07,70.11 645.08,56.31 647.08,41.73 649.08,37.33 651.09,64.90 653.09,67.75 655.09,48.01 657.10,52.64 659.10,54.07 661.10,64.51 663.11,41.20 665.11,38.70 667.11,36.13 669.12,39.18 671.12,53.97 673.12,115.75 675.13,141.41 677.13,65.80 679.13,71.49 681.14,54.30 683.14,167.80 685.14,47.17 687.15,83.94 689.15,83.07 691.15,173.93 693.16,99.64 695.16,182.61 697.16,181.10 699.17,145.42 701.17,63.11 703.17,170.32 705.18,105.25 707.18,203.84 709.18,117.25 711.19,203.48 713.19,159.07 715.19,110.67 717.20,191.50 719.20,201.88 721.20,169.17 723.21,200.07 725.21,183.94 727.21,174.80 729.22,195.85 731.22,168.85 733.22,192.68 735.23,202.57 737.23,179.32 739.23,200.67 741.24,194.15 743.24,192.15 745.24,191.86 747.25,203.08 749.25,106.48 751.25,150.73 753.26,202.80 755.26,171.90 757.26,149.89 759.27,97.83 761.27,62.01 763.27,58.29 765.28,62.52 767.28,65.66 769.28,165.97 771.29,141.34 773.29,125.52 775.29,44.75 777.30,139.17 779.30,180.01 781.30,42.91 783.31,130.17 785.31,63.42 787.31,39.00 789.32,135.04 791.32,40.84 793.32,56.82 795.33,109.75 797.33,54.14 799.33,37.28 801.34,66.43 803.34,52.32 805.34,102.35 807.35,36.03 809.35,36.42 811.35,60.17 813.36,60.17 815.36,71.94 817.36,81.01 819.37,56.76 821.37,36.12 823.37,61.73 825.38,41.59 827.38,69.38 829.38,99.89 831.39,156.79 833.39,112.94 835.39,153.91 837.40,66.29 839.40,75.67 841.40,84.29 843.41,145.04 845.41,96.81 847.41,176.11 849.42,198.10 851.42,193.13 853.42,132.09 855.43,113.80 857.43,99.99 859.43,194.98 861.44,65.09 863.44,196.46 865.44,149.66 867.45,193.49 869.45,113.75 871.45,144.64 873.46,133.31 875.46,133.09 877.46,113.57 879.47,118.82 881.47,190.79 883.47,188.27 885.48,146.63 887.48,165.28 889.48,198.69 891.49,198.62 893.49,187.82 895.49,197.04 897.50,182.83 899.50,203.97 901.50,201.33 903.51,185.36 905.51,113.77 907.51,97.72 909.52,70.29 911.52,114.73 913.52,114.07 915.53,203.69 917.53,188.27 919.53,181.62 921.54,131.65 923.54,186.73 925.54,142.95 927.55,90.98 929.55,150.43 931.55,95.42 933.56,75.05 935.56,110.08 937.56,44.35 939.57,88.81 941.57,156.62 943.57,48.51 945.58,36.06 947.58,113.96 949.58,58.26 951.59,85.01 953.59,117.53 955.59,110.63 957.60,42.61 959.60,101.23 961.60,86.66 963.61,36.30 965.61,46.06 967.61,74.62 969.62,95.54 971.62,76.63 973.62,95.22 975.63,121.82 977.63,36.03 979.63,36.01 981.64,42.20 983.64,149.76 985.64,42.85 987.65,40.16 989.65,148.38 991.65,42.82 993.66,36.88 995.66,36.32 997.66,56.91 999.67,103.88 1001.67,195.93 1003.67,37.70 1005.68,203.98 1007.68,95.61 1009.68,201.74 1011.69,155.15 1013.69,115.22 1015.69,150.07 1017.70,56.42 1019.70,171.97 1021.70,203.76 1023.71,177.62 1025.71,191.34 1027.71,182.62 1029.72,106.59 1031.72,165.53 1033.72,192.49 1035.73,194.21 1037.73,194.79 1039.73,120.23 1041.74,192.86 1043.74,194.36 1045.74,120.06 1047.75,168.46 1049.75,141.14 1051.75,179.98 1053.76,139.79 1055.76,149.91 1057.76,197.66 1059.77,203.54 1061.77,147.19 1063.77,200.92 1065.78,49.36 1067.78,150.75 1069.78,200.30 1071.79,137.16 1073.79,194.03 1075.79,62.15 1077.80,203.92 1079.80,123.78 1081.80,162.32 1083.81,64.15 1085.81,193.83 1087.81,40.47 1089.82,114.94 1091.82,45.14 1093.82,37.31 1095.83,137.57 1097.83,40.47 1099.83,136.76 1101.84,40.04 1103.84,41.88 1105.84,36.15 1107.85,64.79 1109.85,38.47 1111.85,45.73 1113.86,38.67 1115.86,69.92 1117.86,36.00 1119.87,107.27 1121.87,127.22 1123.87,150.96 1125.88,69.46 1127.88,74.36 1129.88,136.09 1131.89,40.58 1133.89,128.80 1135.89,37.55 1137.90,36.00 1139.90,176.02 1141.90,36.16 1143.91,36.13 1145.91,167.28 1147.91,102.60 1149.92,40.05 1151.92,199.56 1153.92,36.50 1155.93,126.26 1157.93,41.22 1159.93,132.18 1161.94,36.95 1163.94,138.14 1165.94,200.27 1167.95,169.66 1169.95,166.09 1171.95,189.65 1173.96,119.08 1175.96,59.88 1177.96,77.40 1179.97,159.56 1181.97,87.27 1183.97,202.47 1185.98,149.57 1187.98,116.09 1189.98,121.17 1191.99,138.16 1193.99,184.48 1195.99,107.48 1198.00,202.83 1200.00,138.48" fill="none" stroke="black" stroke-width="3" stroke-linecap="round" stroke-linejoin="round"/></svg>