<svg xmlns="http://www.w3.org/2000/svg" viewBox="0 0 1200 240" width="1200" height="240"><rect width="1200" height="240" fill="white"/><polyline points="0.00,120.00 2.00,113.32 4.01,106.83 6.01,100.04 8.01,93.48 10.02,86.12 12.02,81.03 14.02,75.99 16.03,70.08 18.03,63.70 20.03,58.13 22.04,54.35 24.04,51.77 26.04,46.47 28.05,44.95 30.05,41.97 32.05,38.70 34.06,37.73 36.06,36.53 38.06,36.00 40.07,36.62 42.07,37.56 44.07,38.82 46.08,41.05 48.08,41.23 50.08,43.65 52.09,48.19 54.09,54.67 56.09,52.83 58.10,67.07 60.10,70.30 62.10,71.48 64.11,76.26 66.11,86.04 68.11,86.24 70.12,99.11 72.12,106.81 74.12,116.88 76.13,107.72 78.13,115.36 80.13,131.73 82.14,142.97 84.14,141.99 86.14,156.72 88.15,146.96 90.15,162.26 92.15,172.83 94.16,175.32 96.16,184.57 98.16,188.79 100.17,194.49 102.17,193.14 104.17,198.85 106.18,201.59 108.18,202.04 110.18,197.78 112.19,203.99 114.19,202.39 116.19,202.96 118.20,203.90 120.20,203.87 122.20,197.23 124.21,200.54 126.21,199.54 128.21,196.64 130.22,189.03 132.22,188.73 134.22,191.30 136.23,167.28 138.23,182.17 140.23,149.21 142.24,142.26 144.24,156.85 146.24,141.17 148.25,132.74 150.25,131.71 152.25,142.63 154.26,119.73 156.26,109.39 158.26,100.62 160.27,110.24 162.27,104.30 164.27,69.14 166.28,82.40 168.28,80.88 170.28,65.91 172.29,80.38 174.29,55.69 176.29,58.45 178.30,64.12 180.30,46.83 182.30,43.82 184.31,48.65 186.31,38.41 188.31,37.68 190.32,37.05 192.32,37.87 194.32,36.18 196.33,36.45 198.33,36.02 200.33,36.33 202.34,36.44 204.34,52.82 206.34,39.71 208.35,51.89 210.35,44.40 212.35,45.54 214.36,73.88 216.36,85.74 218.36,79.05 220.37,84.59 222.37,115.76 224.37,114.36 226.38,110.32 228.38,91.06 230.38,90.35 232.39,99.26 234.39,157.93 236.39,123.01 238.40,131.96 240.40,169.38 242.40,130.31 244.41,152.22 246.41,174.32 248.41,153.43 250.42,189.39 252.42,187.15 254.42,182.90 256.43,179.22 258.43,184.38 260.43,184.59 262.44,198.01 264.44,200.94 266.44,201.99 268.45,202.33 270.45,202.36 272.45,203.24 274.46,203.61 276.46,203.95 278.46,186.14 280.47,177.35 282.47,176.91 284.47,201.22 286.48,188.22 288.48,176.96 290.48,195.61 292.49,143.09 294.49,172.58 296.49,133.15 298.50,151.68 300.50,169.67 302.50,131.54 304.51,136.99 306.51,130.33 308.51,105.95 310.52,79.53 312.52,130.27 314.52,88.82 316.53,100.23 318.53,58.44 320.53,56.44 322.54,99.18 324.54,86.55 326.54,88.00 328.55,79.11 330.55,80.24 332.55,45.25 334.56,67.25 336.56,36.02 338.56,43.96 340.57,36.35 342.57,36.63 344.57,37.66 346.58,43.47 348.58,36.12 350.58,39.46 352.59,40.00 354.59,36.25 356.59,36.36 358.60,36.81 360.60,65.25 362.60,37.90 364.61,45.53 366.61,53.63 368.61,40.17 370.62,50.10 372.62,101.02 374.62,95.25 376.63,55.41 378.63,125.57 380.63,96.92 382.64,96.32 384.64,134.59 386.64,132.42 388.65,117.63 390.65,89.92 392.65,163.08 394.66,166.00 396.66,168.94 398.66,132.54 400.67,145.00 402.67,189.78 404.67,169.57 406.68,151.31 408.68,172.63 410.68,188.51 412.69,179.30 414.69,191.03 416.69,203.20 418.70,192.16 420.70,202.08 422.70,188.57 424.71,195.52 426.71,203.81 428.71,203.99 430.72,187.80 432.72,196.52 434.72,202.72 436.73,191.16 438.73,193.82 440.73,157.58 442.74,178.60 444.74,184.47 446.74,188.90 448.75,150.80 450.75,139.30 452.75,149.98 454.76,87.46 456.76,162.73 458.76,137.54 460.77,162.86 462.77,174.45 464.77,65.18 466.78,75.06 468.78,58.45 470.78,51.54 472.79,72.67 474.79,84.14 476.79,58.55 478.80,48.84 480.80,46.71 482.80,59.92 484.81,82.13 486.81,57.86 488.81,36.72 490.82,81.29 492.82,42.32 494.82,46.85 496.83,41.23 498.83,47.71 500.83,40.00 502.84,38.26 504.84,47.64 506.84,36.13 508.85,38.20 510.85,83.01 512.85,63.12 514.86,36.00 516.86,43.58 518.86,55.78 520.87,44.96 522.87,71.44 524.87,88.98 526.88,53.33 528.88,45.96 530.88,59.20 532.89,70.08 534.89,135.31 536.89,120.73 538.90,174.63 540.90,63.89 542.90,179.00 544.91,188.03 546.91,176.68 548.91,111.69 550.92,147.52 552.92,186.85 554.92,149.99 556.93,166.95 558.93,183.64 560.93,196.15 562.94,201.58 564.94,186.23 566.94,203.87 568.95,197.32 570.95,200.99 572.95,192.32 574.96,166.55 576.96,188.98 578.96,195.83 580.97,176.80 582.97,161.29 584.97,201.26 586.98,195.47 588.98,162.80 590.98,199.99 592.99,181.86 594.99,203.33 596.99,183.33 599.00,141.11 601.00,202.23 603.01,151.13 605.01,170.92 607.01,113.15 609.02,162.32 611.02,81.62 613.02,108.20 615.03,53.85 617.03,167.92 619.03,119.28 621.04,79.49 623.04,143.67 625.04,47.00 627.05,69.90 629.05,155.21 631.05,46.07 633.06,36.71 635.06,36.76 637.06,36.97 639.07,91.28 641.07,116.84 643.07,72.38 645.08,76.80 647.08,63.38 649.08,48.46 651.09,60.64 653.09,36.03 655.09,51.23 657.10,36.25 659.10,43.40 661.10,41.72 663.11,71.77 665.11,82.33 667.11,44.96 669.12,36.64 671.12,61.20 673.12,36.29 675.13,36.66 677.13,50.64 679.13,153.62 681.14,130.36 683.14,49.35 685.14,128.65 687.15,170.13 689.15,62.37 691.15,184.41 693.16,156.81 695.16,53.54 697.16,124.72 699.17,184.32 701.17,118.05 703.17,190.29 705.18,183.09 707.18,134.09 709.18,82.46 711.19,203.96 713.19,112.84 715.19,203.85 717.20,199.35 719.20,200.55 721.20,202.38 723.21,198.35 725.21,203.18 727.21,182.04 729.22,193.09 731.22,184.11 733.22,203.57 735.23,158.31 737.23,191.28 739.23,130.32 741.24,122.92 743.24,198.54 745.24,196.17 747.25,186.95 749.25,169.93 751.25,201.13 753.26,188.76 755.26,198.18 757.26,94.36 759.27,67.41 761.27,94.30 763.27,157.29 765.28,202.43 767.28,96.41 769.28,192.27 771.29,60.25 773.29,129.52 775.29,46.19 777.30,75.27 779.30,48.40 781.30,36.79 783.31,141.08 785.31,107.72 787.31,103.07 789.32,39.22 791.32,38.12 793.32,36.11 795.33,60.92 797.33,95.95 799.33,40.52 801.34,41.57 803.34,37.34 805.34,38.18 807.35,70.36 809.35,85.49 811.35,39.15 813.36,62.57 815.36,51.31 817.36,58.47 819.37,56.28 821.37,43.82 823.37,38.53 825.38,42.71 827.38,73.28 829.38,36.51 831.39,43.37 833.39,65.92 835.39,38.89 837.40,36.14 839.40,94.72 841.40,159.39 843.41,169.66 845.41,60.00 847.41,157.27 849.42,72.63 851.42,98.55 853.42,155.06 855.43,106.82 857.43,203.48 859.43,184.32 861.44,187.37 863.44,169.79 865.44,201.82 867.45,192.95 869.45,202.81 871.45,203.28 873.46,202.80 875.46,188.16 877.46,168.47 879.47,121.74 881.47,161.88 883.47,204.00 885.48,182.24 887.48,187.60 889.48,153.80 891.49,199.16 893.49,202.36 895.49,198.38 897.50,202.63 899.50,203.23 901.50,139.87 903.51,78.56 905.51,194.84 907.51,105.83 909.52,196.26 911.52,132.73 913.52,114.69 915.53,83.08 917.53,153.13 919.53,59.18 921.54,104.20 923.54,134.59 925.54,151.75 927.55,160.69 929.55,159.87 931.55,117.87 933.56,36.03 935.56,60.22 937.56,37.06 939.57,37.84 941.57,115.69 943.57,93.96 945.58,156.92 947.58,37.20 949.58,39.00 951.59,133.06 953.59,109.73 955.59,72.75 957.60,56.90 959.60,36.56 961.60,115.14 963.61,37.40 965.61,43.17 967.61,116.63 969.62,45.82 971.62,102.82 973.62,47.68 975.63,55.85 977.63,36.71 979.63,36.06 981.64,164.71 983.64,53.34 985.64,100.28 987.65,115.89 989.65,125.67 991.65,70.37 993.66,159.03 995.66,36.09 997.66,136.58 999.67,96.19 1001.67,57.86 1003.67,101.49 1005.68,125.33 1007.68,58.09 1009.68,152.56 1011.69,160.17 1013.69,103.30 1015.69,204.00 1017.70,197.34 1019.70,181.49 1021.70,181.99 1023.71,193.46 1025.71,182.00 1027.71,156.73 1029.72,123.60 1031.72,161.98 1033.72,203.42 1035.73,173.41 1037.73,145.53 1039.73,200.88 1041.74,131.41 1043.74,197.93 1045.74,195.75 1047.75,183.12 1049.75,128.58 1051.75,179.36 1053.76,199.03 1055.76,182.46 1057.76,166.83 1059.77,194.33 1061.77,136.14 1063.77,62.59 1065.78,147.11 1067.78,204.00 1069.78,147.26 1071.79,152.68 1073.79,93.59 1075.79,98.34 1077.80,69.25 1079.80,56.77 1081.80,160.41 1083.81,85.69 1085.81,39.88 1087.81,197.32 1089.82,160.70 1091.82,50.84 1093.82,37.90 1095.83,178.82 1097.83,52.53 1099.83,159.44 1101.84,40.08 1103.84,38.01 1105.84,87.30 1107.85,131.80 1109.85,36.03 1111.85,140.05 1113.86,75.87 1115.86,112.75 1117.86,68.74 1119.87,96.29 1121.87,68.66 1123.87,36.99 1125.88,51.56 1127.88,50.43 1129.88,36.93 1131.89,112.70 1133.89,65.89 1135.89,179.30 1137.90,36.20 1139.90,163.58 1141.90,46.36 1143.91,101.34 1145.91,50.41 1147.91,119.98 1149.92,36.15 1151.92,36.24 1153.92,37.02 1155.93,152.71 1157.93,121.65 1159.93,176.57 1161.94,202.51 1163.94,203.07 1165.94,187.78 1167.95,130.53 1169.95,85.83 1171.95,178.16 1173.96,164.65 1175.96,203.93 1177.96,200.16 1179.97,160.69 1181.97,64.46 1183.97,203.94 1185.98,153.21 1187.98,173.58 1189.98,203.91 1191.99,101.03 1193.99,138.71 1195.99,200.04 1198.00,196.66 1200.00,180.06" fill="none" stroke="black" stroke-width="3" stroke-linecap="round" stroke-linejoin="round"/></svg>