<svg xmlns="http://www.w3.org/2000/svg" viewBox="0 0 1200 240" width="1200" height="240"><rect width="1200" height="240" fill="white"/><polyline points="0.00,120.00 2.00,113.19 4.01,106.23 6.01,99.53 8.01,92.49 10.02,86.15 12.02,81.57 14.02,73.38 16.03,68.78 18.03,62.71 20.03,59.95 22.04,54.38 24.04,49.24 26.04,47.91 28.05,44.23 30.05,41.15 32.05,38.91 34.06,36.91 36.06,36.91 38.06,36.00 40.07,36.21 42.07,36.35 44.07,37.79 46.08,40.27 48.08,43.03 50.08,45.05 52.09,46.04 54.09,54.04 56.09,54.96 58.10,61.08 60.10,72.61 62.10,71.04 64.11,78.94 66.11,88.31 68.11,81.88 70.12,96.92 72.12,112.02 74.12,104.74 76.13,116.01 78.13,124.49 80.13,140.42 82.14,137.87 84.14,149.59 86.14,143.78 88.15,159.87 90.15,153.01 92.15,175.50 94.16,181.37 96.16,176.28 98.16,183.17 100.17,188.88 102.17,195.15 104.17,190.91 106.18,196.95 108.18,196.52 110.18,199.91 112.19,203.95 114.19,203.26 116.19,203.79 118.20,203.93 120.20,199.95 122.20,202.83 124.21,202.35 126.21,188.61 128.21,194.89 130.22,194.44 132.22,175.19 134.22,184.71 136.23,185.05 138.23,168.11 140.23,165.17 142.24,142.98 144.24,142.76 146.24,128.03 148.25,128.39 150.25,136.31 152.25,109.70 154.26,110.01 156.26,102.73 158.26,121.76 160.27,108.79 162.27,111.12 164.27,100.24 166.28,69.04 168.28,77.65 170.28,63.39 172.29,81.84 174.29,62.04 176.29,46.88 178.30,52.33 180.30,43.26 182.30,39.64 184.31,41.52 186.31,36.02 188.31,36.07 190.32,36.35 192.32,36.42 194.32,36.22 196.33,36.06 198.33,41.19 200.33,36.17 202.34,36.39 204.34,56.91 206.34,40.73 208.35,52.07 210.35,57.60 212.35,57.71 214.36,59.11 216.36,88.78 218.36,69.55 220.37,86.89 222.37,85.02 224.37,119.22 226.38,104.91 228.38,101.03 230.38,131.90 232.39,107.17 234.39,109.65 236.39,156.27 238.40,136.68 240.40,136.55 242.40,169.41 244.41,180.68 246.41,155.42 248.41,183.35 250.42,183.50 252.42,196.93 254.42,181.15 256.43,188.98 258.43,200.03 260.43,199.68 262.44,203.30 264.44,198.05 266.44,203.99 268.45,203.92 270.45,202.53 272.45,203.42 274.46,203.70 276.46,192.14 278.46,193.22 280.47,201.84 282.47,198.36 284.47,187.35 286.48,196.34 288.48,181.61 290.48,174.30 292.49,182.84 294.49,188.07 296.49,161.08 298.50,140.25 300.50,156.69 302.50,106.24 304.51,153.45 306.51,149.72 308.51,102.40 310.52,117.93 312.52,80.51 314.52,102.61 316.53,117.88 318.53,110.73 320.53,93.52 322.54,99.98 324.54,97.46 326.54,48.15 328.55,53.75 330.55,78.47 332.55,37.24 334.56,57.30 336.56,57.51 338.56,59.71 340.57,52.98 342.57,38.69 344.57,36.80 346.58,36.89 348.58,43.69 350.58,55.74 352.59,37.33 354.59,46.02 356.59,36.10 358.60,41.02 360.60,42.90 362.60,61.96 364.61,38.73 366.61,41.94 368.61,82.99 370.62,114.71 372.62,85.25 374.62,106.17 376.63,109.12 378.63,106.51 380.63,116.56 382.64,115.52 384.64,164.05 386.64,139.22 388.65,105.67 390.65,163.72 392.65,176.10 394.66,159.86 396.66,117.10 398.66,182.63 400.67,198.01 402.67,141.12 404.67,200.50 406.68,193.10 408.68,192.55 410.68,159.85 412.69,176.88 414.69,193.59 416.69,202.03 418.70,185.86 420.70,203.99 422.70,202.72 424.71,202.22 426.71,203.64 428.71,195.11 430.72,199.49 432.72,199.40 434.72,202.46 436.73,203.99 438.73,179.09 440.73,175.31 442.74,203.39 444.74,177.90 446.74,152.40 448.75,177.20 450.75,194.32 452.75,150.80 454.76,159.35 456.76,116.04 458.76,139.26 460.77,110.09 462.77,101.71 464.77,80.60 466.78,69.28 468.78,106.45 470.78,113.54 472.79,60.81 474.79,116.25 476.79,53.79 478.80,94.29 480.80,77.11 482.80,90.11 484.81,79.60 486.81,62.00 488.81,45.31 490.82,37.39 492.82,37.63 494.82,49.03 496.83,36.08 498.83,45.58 500.83,38.32 502.84,36.03 504.84,46.50 506.84,37.65 508.85,40.16 510.85,48.61 512.85,37.44 514.86,36.67 516.86,57.82 518.86,48.09 520.87,77.07 522.87,55.30 524.87,73.26 526.88,82.20 528.88,45.32 530.88,60.96 532.89,58.80 534.89,126.37 536.89,85.92 538.90,72.41 540.90,64.98 542.90,127.02 544.91,129.53 546.91,150.27 548.91,158.90 550.92,198.65 552.92,187.68 554.92,118.67 556.93,189.22 558.93,118.76 560.93,127.88 562.94,203.72 564.94,142.94 566.94,182.48 568.95,177.30 570.95,184.73 572.95,158.94 574.96,203.87 576.96,174.38 578.96,195.51 580.97,201.83 582.97,194.99 584.97,198.67 586.98,176.15 588.98,180.27 590.98,203.79 592.99,200.96 594.99,152.92 596.99,203.76 599.00,198.40 601.00,166.28 603.01,121.07 605.01,160.59 607.01,116.60 609.02,189.66 611.02,149.48 613.02,119.48 615.03,59.86 617.03,103.09 619.03,49.47 621.04,130.96 623.04,106.80 625.04,71.73 627.05,114.94 629.05,36.29 631.05,57.92 633.06,36.06 635.06,67.53 637.06,36.02 639.07,36.52 641.07,51.32 643.07,49.23 645.08,75.92 647.08,91.65 649.08,36.00 651.09,36.11 653.09,45.54 655.09,38.91 657.10,76.36 659.10,37.77 661.10,37.30 663.11,56.50 665.11,36.24 667.11,44.07 669.12,96.06 671.12,78.02 673.12,65.91 675.13,126.12 677.13,135.75 679.13,67.31 681.14,153.96 683.14,96.66 685.14,40.81 687.15,172.71 689.15,99.73 691.15,51.99 693.16,177.70 695.16,122.98 697.16,138.73 699.17,91.50 701.17,191.03 703.17,150.88 705.18,183.96 707.18,158.09 709.18,103.86 711.19,202.23 713.19,202.40 715.19,198.11 717.20,199.62 719.20,188.69 721.20,195.43 723.21,186.71 725.21,198.85 727.21,155.75 729.22,203.34 731.22,193.66 733.22,203.47 735.23,168.70 737.23,166.90 739.23,191.40 741.24,203.85 743.24,194.27 745.24,190.11 747.25,203.46 749.25,171.11 751.25,164.52 753.26,192.21 755.26,119.88 757.26,162.96 759.27,106.45 761.27,182.53 763.27,79.87 765.28,85.55 767.28,50.28 769.28,160.72 771.29,114.42 773.29,96.65 775.29,37.38 777.30,109.95 779.30,179.93 781.30,60.80 783.31,133.82 785.31,114.88 787.31,136.87 789.32,141.17 791.32,106.60 793.32,37.75 795.33,38.18 797.33,118.69 799.33,36.96 801.34,56.23 803.34,52.16 805.34,48.69 807.35,36.00 809.35,46.31 811.35,63.89 813.36,51.82 815.36,53.07 817.36,36.27 819.37,104.30 821.37,38.54 823.37,45.60 825.38,145.83 827.38,41.42 829.38,121.01 831.39,52.77 833.39,36.10 835.39,52.15 837.40,74.08 839.40,90.65 841.40,63.91 843.41,36.51 845.41,75.09 847.41,43.22 849.42,155.03 851.42,201.41 853.42,202.53 855.43,143.35 857.43,200.48 859.43,204.00 861.44,174.02 863.44,105.23 865.44,168.65 867.45,202.38 869.45,183.73 871.45,203.53 873.46,126.07 875.46,194.24 877.46,181.74 879.47,140.70 881.47,183.70 883.47,203.41 885.48,175.32 887.48,204.00 889.48,198.23 891.49,177.73 893.49,129.90 895.49,189.65 897.50,111.41 899.50,199.14 901.50,129.02 903.51,202.47 905.51,167.18 907.51,103.93 909.52,201.65 911.52,55.44 913.52,50.43 915.53,190.22 917.53,72.20 919.53,168.80 921.54,190.99 923.54,191.65 925.54,181.06 927.55,74.08 929.55,185.96 931.55,58.19 933.56,168.72 935.56,84.38 937.56,70.29 939.57,120.62 941.57,76.21 943.57,100.02 945.58,47.03 947.58,116.01 949.58,60.79 951.59,107.49 953.59,86.89 955.59,62.17 957.60,50.45 959.60,46.87 961.60,84.47 963.61,74.64 965.61,36.99 967.61,44.92 969.62,46.26 971.62,89.57 973.62,36.52 975.63,39.58 977.63,40.87 979.63,54.84 981.64,45.84 983.64,85.36 985.64,111.40 987.65,162.42 989.65,67.55 991.65,84.58 993.66,89.76 995.66,107.80 997.66,202.44 999.67,39.66 1001.67,78.88 1003.67,189.65 1005.68,153.52 1007.68,203.75 1009.68,48.96 1011.69,103.12 1013.69,160.79 1015.69,198.91 1017.70,113.09 1019.70,71.50 1021.70,197.87 1023.71,78.33 1025.71,106.49 1027.71,202.43 1029.72,185.18 1031.72,97.07 1033.72,185.09 1035.73,161.51 1037.73,203.93 1039.73,180.74 1041.74,202.92 1043.74,153.64 1045.74,198.27 1047.75,124.39 1049.75,142.00 1051.75,158.81 1053.76,104.63 1055.76,104.64 1057.76,85.75 1059.77,106.62 1061.77,204.00 1063.77,200.59 1065.78,203.14 1067.78,68.51 1069.78,202.67 1071.79,40.50 1073.79,134.34 1075.79,43.42 1077.80,42.24 1079.80,144.87 1081.80,187.66 1083.81,190.01 1085.81,84.71 1087.81,36.02 1089.82,187.51 1091.82,77.36 1093.82,49.45 1095.83,45.03 1097.83,139.12 1099.83,162.83 1101.84,36.27 1103.84,42.47 1105.84,78.83 1107.85,100.29 1109.85,42.80 1111.85,47.84 1113.86,127.55 1115.86,101.70 1117.86,37.00 1119.87,103.08 1121.87,45.45 1123.87,104.88 1125.88,41.33 1127.88,99.20 1129.88,155.29 1131.89,143.74 1133.89,153.02 1135.89,40.34 1137.90,53.23 1139.90,36.56 1141.90,85.96 1143.91,48.30 1145.91,163.47 1147.91,48.91 1149.92,186.04 1151.92,120.70 1153.92,154.41 1155.93,166.35 1157.93,74.94 1159.93,85.37 1161.94,199.50 1163.94,193.56 1165.94,50.49 1167.95,203.94 1169.95,166.89 1171.95,80.05 1173.96,189.10 1175.96,89.38 1177.96,203.77 1179.97,195.88 1181.97,188.28 1183.97,195.14 1185.98,190.93 1187.98,191.28 1189.98,121.77 1191.99,198.20 1193.99,136.93 1195.99,120.38 1198.00,173.89 1200.00,201.54" fill="none" stroke="black" stroke-width="3" stroke-linecap="round" stroke-linejoin="round"/></svg>