<svg xmlns="http://www.w3.org/2000/svg" viewBox="0 0 1200 240" width="1200" height="240"><rect width="1200" height="240" fill="white"/><polyline points="0.00,120.00 2.00,115.25 4.01,110.52 6.01,105.82 8.01,101.16 10.02,96.56 12.02,92.04 14.02,87.61 16.03,83.28 18.03,79.07 20.03,74.99 22.04,71.05 24.04,67.27 26.04,63.66 28.05,60.23 30.05,56.99 32.05,53.95 34.06,51.12 36.06,48.52 38.06,46.14 40.07,43.99 42.07,42.09 44.07,40.44 46.08,39.05 48.08,37.91 50.08,37.03 52.09,36.42 54.09,36.08 56.09,36.01 58.10,36.20 60.10,36.66 62.10,37.39 64.11,38.38 66.11,39.64 68.11,41.15 70.12,42.91 72.12,44.92 74.12,47.17 76.13,49.65 78.13,52.35 80.13,55.28 82.14,58.41 84.14,61.73 86.14,65.25 88.15,68.93 90.15,72.78 92.15,76.79 94.16,80.93 96.16,85.19 98.16,89.57 100.17,94.04 102.17,98.60 104.17,103.22 106.18,107.90 108.18,112.62 110.18,117.36 112.19,122.11 114.19,126.85 116.19,131.57 118.20,136.26 120.20,140.89 122.20,145.45 124.21,149.94 126.21,154.33 128.21,158.60 130.22,162.76 132.22,166.78 134.22,170.65 136.23,174.35 138.23,177.89 140.23,181.23 142.24,184.39 144.24,187.33 146.24,190.06 148.25,192.57 150.25,194.84 152.25,196.88 154.26,198.67 156.26,200.21 158.26,201.49 160.27,202.51 162.27,203.27 164.27,203.76 166.28,203.99 168.28,203.94 170.28,203.63 172.29,203.05 174.29,202.20 176.29,201.09 178.30,199.72 180.30,198.10 182.30,196.23 184.31,194.11 186.31,191.76 188.31,189.18 190.32,186.37 192.32,183.36 194.32,180.14 196.33,176.73 198.33,173.14 200.33,169.37 202.34,165.45 204.34,161.39 206.34,157.19 208.35,152.88 210.35,148.45 212.35,143.94 214.36,139.35 216.36,134.70 218.36,130.00 220.37,125.27 222.37,120.53 224.37,115.78 226.38,111.04 228.38,106.34 230.38,101.68 232.39,97.07 234.39,92.54 236.39,88.10 238.40,83.76 240.40,79.53 242.40,75.44 244.41,71.48 246.41,67.69 248.41,64.06 250.42,60.60 252.42,57.34 254.42,54.28 256.43,51.43 258.43,48.80 260.43,46.39 262.44,44.22 264.44,42.29 266.44,40.61 268.45,39.19 270.45,38.02 272.45,37.12 274.46,36.48 276.46,36.11 278.46,36.00 280.47,36.17 282.47,36.60 284.47,37.30 286.48,38.26 288.48,39.48 290.48,40.97 292.49,42.70 294.49,44.68 296.49,46.90 298.50,49.36 300.50,52.04 302.50,54.94 304.51,58.05 306.51,61.35 308.51,64.85 310.52,68.52 312.52,72.35 314.52,76.34 316.53,80.46 318.53,84.71 320.53,89.08 322.54,93.54 324.54,98.09 326.54,102.71 328.55,107.38 330.55,112.09 332.55,116.83 334.56,121.58 336.56,126.33 338.56,131.05 340.57,135.74 342.57,140.38 344.57,144.95 346.58,149.44 348.58,153.84 350.58,158.14 352.59,162.30 354.59,166.34 356.59,170.22 358.60,173.95 360.60,177.50 362.60,180.87 364.61,184.05 366.61,187.01 368.61,189.77 370.62,192.30 372.62,194.60 374.62,196.67 376.63,198.48 378.63,200.05 380.63,201.36 382.64,202.41 384.64,203.20 386.64,203.72 388.65,203.97 390.65,203.96 392.65,203.68 394.66,203.12 396.66,202.31 398.66,201.23 400.67,187.32 402.67,187.39 404.67,187.06 406.68,186.33 408.68,185.21 410.68,183.72 412.69,181.88 414.69,179.69 416.69,177.19 418.70,174.40 420.70,173.54 422.70,169.80 424.71,165.90 426.71,161.85 428.71,157.66 430.72,153.36 432.72,148.95 434.72,144.45 436.73,139.87 438.73,135.22 440.73,130.53 442.74,125.80 444.74,121.06 446.74,116.31 448.75,111.57 450.75,106.86 452.75,102.19 454.76,97.58 456.76,93.04 458.76,88.59 460.77,84.23 462.77,80.00 464.77,75.89 466.78,71.92 468.78,68.10 470.78,64.45 472.79,60.98 474.79,57.69 476.79,54.61 478.80,51.73 480.80,49.08 482.80,46.65 484.81,44.45 486.81,42.50 488.81,40.79 490.82,39.34 492.82,38.14 494.82,37.21 496.83,36.54 498.83,36.13 500.83,36.00 502.84,36.13 504.84,36.54 506.84,37.21 508.85,38.14 510.85,39.34 512.85,40.79 514.86,42.50 516.86,44.45 518.86,46.65 520.87,49.08 522.87,51.73 524.87,54.61 526.88,57.69 528.88,60.98 530.88,64.45 532.89,68.10 534.89,71.92 536.89,75.89 538.90,80.00 540.90,84.23 542.90,88.59 544.91,93.04 546.91,97.58 548.91,102.19 550.92,106.86 552.92,111.57 554.92,116.31 556.93,121.06 558.93,125.80 560.93,130.53 562.94,135.22 564.94,139.87 566.94,144.45 568.95,148.95 570.95,153.36 572.95,157.66 574.96,161.85 576.96,165.90 578.96,169.80 580.97,173.54 582.97,177.12 584.97,180.51 586.98,183.70 588.98,186.70 590.98,189.47 592.99,192.03 594.99,194.36 596.99,196.45 599.00,198.29 601.00,199.89 603.01,201.23 605.01,202.31 607.01,203.12 609.02,203.68 611.02,203.96 613.02,203.97 615.03,203.72 617.03,203.20 619.03,202.41 621.04,201.36 623.04,200.05 625.04,198.48 627.05,196.67 629.05,194.60 631.05,192.30 633.06,189.77 635.06,187.01 637.06,184.05 639.07,180.87 641.07,177.50 643.07,173.95 645.08,170.22 647.08,166.34 649.08,162.30 651.09,158.14 653.09,153.84 655.09,149.44 657.10,144.95 659.10,140.38 661.10,135.74 663.11,131.05 665.11,126.33 667.11,121.58 669.12,116.83 671.12,112.09 673.12,107.38 675.13,102.71 677.13,98.09 679.13,93.54 681.14,89.08 683.14,84.71 685.14,80.46 687.15,76.34 689.15,72.35 691.15,68.52 693.16,64.85 695.16,61.35 697.16,58.05 699.17,54.94 701.17,52.04 703.17,49.36 705.18,46.90 707.18,44.68 709.18,42.70 711.19,40.97 713.19,39.48 715.19,38.26 717.20,37.30 719.20,36.60 721.20,36.17 723.21,36.00 725.21,36.11 727.21,36.48 729.22,37.12 731.22,38.02 733.22,39.19 735.23,40.61 737.23,42.29 739.23,44.22 741.24,46.39 743.24,48.80 745.24,51.43 747.25,54.28 749.25,57.34 751.25,60.60 753.26,64.06 755.26,67.69 757.26,71.48 759.27,75.44 761.27,79.53 763.27,83.76 765.28,88.10 767.28,92.54 769.28,97.07 771.29,101.68 773.29,106.34 775.29,111.04 777.30,115.78 779.30,120.53 781.30,125.27 783.31,130.00 785.31,134.70 787.31,139.35 789.32,143.94 791.32,148.45 793.32,152.88 795.33,157.19 797.33,161.39 799.33,165.45 801.34,169.37 803.34,173.14 805.34,176.73 807.35,180.14 809.35,183.36 811.35,186.37 813.36,189.18 815.36,191.76 817.36,194.11 819.37,196.23 821.37,198.10 823.37,199.72 825.38,201.09 827.38,202.20 829.38,203.05 831.39,203.63 833.39,203.94 835.39,203.99 837.40,203.76 839.40,203.27 841.40,202.51 843.41,201.49 845.41,200.21 847.41,198.67 849.42,196.88 851.42,194.84 853.42,192.57 855.43,190.06 857.43,187.33 859.43,184.39 861.44,181.23 863.44,177.89 865.44,174.35 867.45,170.65 869.45,166.78 871.45,162.76 873.46,158.60 875.46,154.33 877.46,149.94 879.47,145.45 881.47,140.89 883.47,136.26 885.48,131.57 887.48,126.85 889.48,122.11 891.49,117.36 893.49,112.62 895.49,107.90 897.50,103.22 899.50,98.60 901.50,94.04 903.51,89.57 905.51,85.19 907.51,80.93 909.52,76.79 911.52,72.78 913.52,68.93 915.53,65.25 917.53,61.73 919.53,58.41 921.54,55.28 923.54,52.35 925.54,49.65 927.55,47.17 929.55,44.92 931.55,42.91 933.56,41.15 935.56,39.64 937.56,38.38 939.57,37.39 941.57,36.66 943.57,36.20 945.58,36.01 947.58,36.08 949.58,36.42 951.59,37.03 953.59,37.91 955.59,39.05 957.60,40.44 959.60,42.09 961.60,43.99 963.61,46.14 965.61,48.52 967.61,51.12 969.62,53.95 971.62,56.99 973.62,60.23 975.63,63.66 977.63,67.27 979.63,71.05 981.64,74.99 983.64,79.07 985.64,83.28 987.65,87.61 989.65,92.04 991.65,96.56 993.66,101.16 995.66,105.82 997.66,110.52 999.67,115.25 1001.67,120.00 1003.67,124.75 1005.68,129.48 1007.68,134.18 1009.68,138.84 1011.69,143.44 1013.69,147.96 1015.69,152.39 1017.70,156.72 1019.70,160.93 1021.70,165.01 1023.71,168.95 1025.71,172.73 1027.71,176.34 1029.72,179.77 1031.72,183.01 1033.72,186.05 1035.73,188.88 1037.73,191.48 1039.73,193.86 1041.74,196.01 1043.74,197.91 1045.74,199.56 1047.75,200.95 1049.75,202.09 1051.75,202.97 1053.76,203.58 1055.76,203.92 1057.76,203.99 1059.77,203.80 1061.77,203.34 1063.77,202.61 1065.78,201.62 1067.78,200.36 1069.78,198.85 1071.79,197.09 1073.79,195.08 1075.79,192.83 1077.80,190.35 1079.80,187.65 1081.80,184.72 1083.81,181.59 1085.81,178.27 1087.81,174.75 1089.82,171.07 1091.82,167.22 1093.82,163.21 1095.83,159.07 1097.83,154.81 1099.83,150.43 1101.84,145.96 1103.84,141.40 1105.84,136.78 1107.85,132.10 1109.85,127.38 1111.85,122.64 1113.86,117.89 1115.86,113.15 1117.86,108.43 1119.87,103.74 1121.87,99.11 1123.87,94.55 1125.88,90.06 1127.88,85.67 1129.88,81.40 1131.89,77.24 1133.89,73.22 1135.89,69.35 1137.90,65.65 1139.90,62.11 1141.90,58.77 1143.91,55.61 1145.91,52.67 1147.91,49.94 1149.92,47.43 1151.92,45.16 1153.92,43.12 1155.93,41.33 1157.93,39.79 1159.93,38.51 1161.94,37.49 1163.94,36.73 1165.94,36.24 1167.95,36.01 1169.95,36.06 1171.95,36.37 1173.96,36.95 1175.96,37.80 1177.96,38.91 1179.97,40.28 1181.97,41.90 1183.97,43.77 1185.98,45.89 1187.98,48.24 1189.98,50.82 1191.99,53.63 1193.99,56.64 1195.99,59.86 1198.00,63.27 1200.00,66.86" fill="none" stroke="black" stroke-width="3" stroke-linecap="round" stroke-linejoin="round"/></svg>