<svg xmlns="http://www.w3.org/2000/svg" viewBox="0 0 1200 240" width="1200" height="240"><rect width="1200" height="240" fill="white"/><polyline points="0.00,120.00 2.00,112.94 4.01,106.00 6.01,98.86 8.01,92.22 10.02,87.32 12.02,81.71 14.02,76.04 16.03,69.13 18.03,63.08 20.03,59.42 22.04,53.76 24.04,49.91 26.04,47.04 28.05,44.79 30.05,39.88 32.05,38.80 34.06,36.92 36.06,36.77 38.06,36.05 40.07,36.45 42.07,36.97 44.07,38.97 46.08,40.96 48.08,40.78 50.08,44.04 52.09,49.16 54.09,54.53 56.09,59.07 58.10,65.52 60.10,68.01 62.10,73.43 64.11,77.60 66.11,78.98 68.11,82.79 70.12,90.66 72.12,108.48 74.12,107.08 76.13,110.72 78.13,132.15 80.13,134.64 82.14,128.61 84.14,150.27 86.14,151.26 88.15,162.08 90.15,172.35 92.15,167.26 94.16,170.43 96.16,183.36 98.16,177.04 100.17,191.83 102.17,195.94 104.17,197.45 106.18,200.95 108.18,197.83 110.18,202.26 112.19,202.34 114.19,203.99 116.19,203.07 118.20,200.89 120.20,203.85 122.20,203.51 124.21,201.88 126.21,190.51 128.21,194.96 130.22,185.82 132.22,185.70 134.22,180.90 136.23,174.59 138.23,168.97 140.23,166.06 142.24,160.85 144.24,165.36 146.24,160.46 148.25,149.89 150.25,116.48 152.25,124.26 154.26,115.23 156.26,105.69 158.26,115.38 160.27,118.28 162.27,86.11 164.27,73.72 166.28,97.89 168.28,59.34 170.28,87.42 172.29,80.72 174.29,52.08 176.29,49.77 178.30,44.97 180.30,49.49 182.30,56.11 184.31,48.08 186.31,38.71 188.31,36.93 190.32,36.12 192.32,38.41 194.32,38.32 196.33,36.05 198.33,37.86 200.33,47.73 202.34,55.72 204.34,37.71 206.34,60.59 208.35,59.35 210.35,69.40 212.35,48.75 214.36,61.84 216.36,59.17 218.36,78.69 220.37,89.69 222.37,116.25 224.37,93.85 226.38,83.71 228.38,84.66 230.38,88.02 232.39,126.97 234.39,142.63 236.39,159.11 238.40,117.68 240.40,170.03 242.40,126.63 244.41,149.15 246.41,139.79 248.41,188.70 250.42,162.54 252.42,161.25 254.42,198.36 256.43,199.46 258.43,193.96 260.43,204.00 262.44,189.11 264.44,204.00 266.44,203.98 268.45,204.00 270.45,199.46 272.45,200.73 274.46,190.59 276.46,186.30 278.46,191.37 280.47,196.68 282.47,169.35 284.47,175.63 286.48,201.41 288.48,192.04 290.48,155.60 292.49,188.91 294.49,184.61 296.49,180.83 298.50,118.58 300.50,134.08 302.50,120.13 304.51,94.65 306.51,155.81 308.51,153.00 310.52,116.75 312.52,88.45 314.52,108.27 316.53,72.15 318.53,110.56 320.53,76.67 322.54,52.01 324.54,87.81 326.54,54.67 328.55,44.84 330.55,57.31 332.55,36.84 334.56,48.98 336.56,64.10 338.56,38.06 340.57,38.68 342.57,36.01 344.57,40.80 346.58,37.07 348.58,37.76 350.58,39.06 352.59,56.99 354.59,59.45 356.59,39.70 358.60,45.33 360.60,72.41 362.60,37.37 364.61,38.66 366.61,42.01 368.61,49.88 370.62,116.91 372.62,90.63 374.62,117.56 376.63,67.22 378.63,88.48 380.63,100.91 382.64,108.31 384.64,143.64 386.64,110.24 388.65,167.38 390.65,165.16 392.65,175.57 394.66,179.75 396.66,110.84 398.66,194.62 400.67,193.90 402.67,148.33 404.67,142.20 406.68,175.14 408.68,174.01 410.68,178.01 412.69,165.86 414.69,203.82 416.69,186.49 418.70,186.40 420.70,203.99 422.70,203.89 424.71,203.97 426.71,184.70 428.71,193.89 430.72,195.72 432.72,203.87 434.72,188.74 436.73,203.99 438.73,204.00 440.73,184.92 442.74,130.00 444.74,175.83 446.74,183.10 448.75,108.91 450.75,104.96 452.75,108.70 454.76,167.20 456.76,145.46 458.76,137.65 460.77,74.82 462.77,99.37 464.77,146.99 466.78,82.83 468.78,85.34 470.78,114.11 472.79,81.47 474.79,57.25 476.79,45.94 478.80,37.26 480.80,66.01 482.80,36.01 484.81,37.46 486.81,65.28 488.81,61.75 490.82,59.54 492.82,42.41 494.82,40.79 496.83,36.00 498.83,39.79 500.83,48.82 502.84,56.21 504.84,43.43 506.84,45.90 508.85,44.12 510.85,64.81 512.85,41.04 514.86,97.10 516.86,106.12 518.86,93.84 520.87,72.33 522.87,40.43 524.87,72.48 526.88,69.39 528.88,87.91 530.88,130.34 532.89,47.48 534.89,134.51 536.89,58.75 538.90,163.22 540.90,136.04 542.90,87.76 544.91,172.02 546.91,193.56 548.91,189.22 550.92,131.38 552.92,94.62 554.92,202.74 556.93,200.37 558.93,203.93 560.93,163.47 562.94,193.82 564.94,171.43 566.94,198.63 568.95,202.13 570.95,203.10 572.95,192.38 574.96,172.94 576.96,175.97 578.96,178.05 580.97,197.61 582.97,202.85 584.97,195.32 586.98,195.08 588.98,196.14 590.98,164.96 592.99,138.54 594.99,198.39 596.99,109.56 599.00,191.05 601.00,198.31 603.01,124.08 605.01,186.00 607.01,143.88 609.02,80.06 611.02,140.91 613.02,74.49 615.03,71.04 617.03,106.36 619.03,81.68 621.04,82.42 623.04,43.92 625.04,158.03 627.05,47.51 629.05,64.68 631.05,94.25 633.06,80.87 635.06,36.40 637.06,87.17 639.07,36.79 641.07,39.92 643.07,38.37 645.08,37.68 647.08,55.04 649.08,76.86 651.09,45.80 653.09,39.37 655.09,67.72 657.10,36.31 659.10,65.18 661.10,38.14 663.11,83.37 665.11,67.31 667.11,114.95 669.12,103.20 671.12,38.60 673.12,36.06 675.13,93.10 677.13,110.23 679.13,36.17 681.14,57.03 683.14,153.09 685.14,76.37 687.15,88.12 689.15,118.79 691.15,138.68 693.16,172.74 695.16,93.40 697.16,126.40 699.17,61.12 701.17,178.98 703.17,131.07 705.18,98.44 707.18,187.75 709.18,136.02 711.19,166.87 713.19,192.60 715.19,150.69 717.20,197.73 719.20,197.84 721.20,203.97 723.21,185.45 725.21,179.89 727.21,180.17 729.22,165.91 731.22,191.28 733.22,163.97 735.23,178.18 737.23,184.15 739.23,184.89 741.24,199.05 743.24,201.99 745.24,203.30 747.25,195.79 749.25,95.58 751.25,201.00 753.26,101.31 755.26,202.06 757.26,186.56 759.27,203.49 761.27,196.28 763.27,56.64 765.28,116.80 767.28,136.03 769.28,138.96 771.29,94.22 773.29,83.79 775.29,127.05 777.30,37.01 779.30,158.32 781.30,164.49 783.31,102.61 785.31,74.24 787.31,70.33 789.32,94.47 791.32,53.28 793.32,36.07 795.33,50.50 797.33,45.68 799.33,37.87 801.34,43.56 803.34,71.29 805.34,85.21 807.35,36.78 809.35,86.04 811.35,39.75 813.36,46.78 815.36,36.39 817.36,36.22 819.37,43.76 821.37,51.61 823.37,51.82 825.38,44.58 827.38,138.58 829.38,47.28 831.39,97.97 833.39,144.20 835.39,124.58 837.40,105.23 839.40,168.94 841.40,190.59 843.41,62.71 845.41,104.70 847.41,49.26 849.42,94.09 851.42,203.21 853.42,203.45 855.43,56.34 857.43,150.55 859.43,191.36 861.44,182.87 863.44,201.99 865.44,203.35 867.45,134.20 869.45,194.66 871.45,189.62 873.46,131.72 875.46,188.02 877.46,195.31 879.47,165.64 881.47,166.80 883.47,194.77 885.48,152.70 887.48,176.67 889.48,172.64 891.49,171.90 893.49,171.00 895.49,202.33 897.50,180.25 899.50,199.88 901.50,193.15 903.51,78.43 905.51,200.83 907.51,146.57 909.52,144.93 911.52,108.65 913.52,83.67 915.53,203.90 917.53,199.29 919.53,191.76 921.54,73.41 923.54,37.35 925.54,47.72 927.55,44.64 929.55,36.15 931.55,194.29 933.56,81.28 935.56,118.32 937.56,136.30 939.57,43.73 941.57,84.77 943.57,39.25 945.58,101.04 947.58,156.02 949.58,99.25 951.59,61.72 953.59,81.11 955.59,42.43 957.60,37.12 959.60,57.83 961.60,37.35 963.61,76.98 965.61,115.13 967.61,51.05 969.62,39.93 971.62,64.26 973.62,94.80 975.63,40.79 977.63,115.48 979.63,45.50 981.64,65.97 983.64,136.26 985.64,69.79 987.65,39.07 989.65,41.56 991.65,50.14 993.66,86.19 995.66,37.29 997.66,150.79 999.67,56.85 1001.67,123.75 1003.67,201.75 1005.68,160.49 1007.68,166.09 1009.68,68.17 1011.69,176.08 1013.69,198.85 1015.69,201.89 1017.70,107.60 1019.70,95.93 1021.70,202.64 1023.71,148.17 1025.71,101.95 1027.71,158.71 1029.72,131.61 1031.72,138.13 1033.72,158.79 1035.73,108.06 1037.73,191.77 1039.73,154.09 1041.74,179.30 1043.74,173.93 1045.74,144.56 1047.75,177.16 1049.75,200.34 1051.75,200.26 1053.76,160.18 1055.76,179.22 1057.76,91.88 1059.77,194.16 1061.77,64.03 1063.77,203.44 1065.78,203.47 1067.78,197.85 1069.78,193.86 1071.79,202.92 1073.79,187.23 1075.79,128.43 1077.80,161.54 1079.80,41.13 1081.80,94.17 1083.81,76.79 1085.81,37.41 1087.81,165.62 1089.82,43.56 1091.82,38.21 1093.82,44.29 1095.83,36.01 1097.83,38.02 1099.83,42.97 1101.84,92.91 1103.84,93.88 1105.84,54.52 1107.85,109.15 1109.85,59.09 1111.85,151.71 1113.86,82.07 1115.86,58.52 1117.86,45.08 1119.87,87.63 1121.87,57.27 1123.87,111.35 1125.88,45.02 1127.88,38.02 1129.88,37.71 1131.89,54.63 1133.89,47.14 1135.89,53.81 1137.90,42.94 1139.90,159.65 1141.90,141.58 1143.91,197.52 1145.91,87.44 1147.91,56.40 1149.92,92.22 1151.92,200.88 1153.92,195.62 1155.93,160.53 1157.93,104.37 1159.93,99.89 1161.94,90.09 1163.94,203.61 1165.94,102.81 1167.95,193.97 1169.95,173.93 1171.95,200.47 1173.96,119.88 1175.96,172.89 1177.96,163.44 1179.97,202.25 1181.97,176.55 1183.97,191.50 1185.98,76.17 1187.98,139.92 1189.98,203.94 1191.99,192.75 1193.99,135.66 1195.99,159.83 1198.00,142.25 1200.00,187.30" fill="none" stroke="black" stroke-width="3" stroke-linecap="round" stroke-linejoin="round"/></svg>