<svg xmlns="http://www.w3.org/2000/svg" viewBox="0 0 1200 240" width="1200" height="240"><rect width="1200" height="240" fill="white"/><polyline points="0.00,120.00 2.00,113.35 4.01,106.75 6.01,99.25 8.01,93.96 10.02,85.99 12.02,79.35 14.02,75.48 16.03,67.70 18.03,62.27 20.03,60.49 22.04,55.90 24.04,51.88 26.04,47.00 28.05,42.38 30.05,42.25 32.05,38.36 34.06,36.89 36.06,36.64 38.06,36.08 40.07,36.57 42.07,37.42 44.07,37.86 46.08,38.78 48.08,41.58 50.08,44.05 52.09,50.00 54.09,53.66 56.09,56.88 58.10,63.42 60.10,70.52 62.10,66.37 64.11,81.44 66.11,90.76 68.11,98.22 70.12,100.63 72.12,102.86 74.12,114.44 76.13,124.03 78.13,128.10 80.13,124.25 82.14,137.43 84.14,152.83 86.14,147.97 88.15,165.12 90.15,158.12 92.15,166.62 94.16,176.98 96.16,176.61 98.16,177.62 100.17,184.07 102.17,196.24 104.17,191.30 106.18,197.66 108.18,195.16 110.18,198.18 112.19,203.02 114.19,202.87 116.19,203.38 118.20,204.00 120.20,203.98 122.20,197.56 124.21,202.27 126.21,196.23 128.21,197.23 130.22,197.39 132.22,180.54 134.22,169.05 136.23,176.77 138.23,169.40 140.23,160.37 142.24,173.64 144.24,146.13 146.24,134.50 148.25,150.76 150.25,146.03 152.25,136.92 154.26,130.60 156.26,102.67 158.26,97.18 160.27,118.24 162.27,88.05 164.27,95.83 166.28,79.85 168.28,76.94 170.28,53.73 172.29,62.14 174.29,62.67 176.29,58.84 178.30,48.86 180.30,59.96 182.30,51.02 184.31,36.73 186.31,40.97 188.31,43.00 190.32,39.69 192.32,38.31 194.32,36.03 196.33,36.61 198.33,36.07 200.33,39.16 202.34,46.88 204.34,39.79 206.34,39.07 208.35,41.01 210.35,53.99 212.35,56.73 214.36,87.29 216.36,70.46 218.36,76.52 220.37,92.56 222.37,116.24 224.37,91.41 226.38,92.46 228.38,93.76 230.38,95.63 232.39,130.82 234.39,156.50 236.39,127.57 238.40,161.87 240.40,136.22 242.40,180.54 244.41,164.22 246.41,177.01 248.41,153.25 250.42,176.78 252.42,197.58 254.42,201.49 256.43,202.04 258.43,186.32 260.43,204.00 262.44,202.49 264.44,203.94 266.44,204.00 268.45,201.99 270.45,200.76 272.45,193.10 274.46,202.41 276.46,191.49 278.46,198.99 280.47,193.23 282.47,199.26 284.47,191.00 286.48,158.61 288.48,192.10 290.48,191.01 292.49,136.37 294.49,136.73 296.49,168.38 298.50,132.83 300.50,113.98 302.50,170.02 304.51,140.93 306.51,115.30 308.51,88.35 310.52,127.22 312.52,121.39 314.52,83.46 316.53,95.30 318.53,115.27 320.53,76.91 322.54,109.14 324.54,82.61 326.54,44.35 328.55,52.69 330.55,37.93 332.55,67.69 334.56,48.84 336.56,61.32 338.56,64.84 340.57,37.28 342.57,39.59 344.57,44.12 346.58,37.49 348.58,46.98 350.58,51.75 352.59,53.94 354.59,37.16 356.59,40.71 358.60,36.01 360.60,36.85 362.60,72.69 364.61,60.99 366.61,70.36 368.61,83.43 370.62,87.28 372.62,89.51 374.62,51.11 376.63,135.29 378.63,104.93 380.63,126.54 382.64,78.84 384.64,89.36 386.64,147.37 388.65,163.45 390.65,173.33 392.65,103.74 394.66,185.84 396.66,113.60 398.66,149.68 400.67,190.16 402.67,198.47 404.67,178.04 406.68,151.55 408.68,195.42 410.68,203.99 412.69,203.74 414.69,177.14 416.69,185.85 418.70,203.65 420.70,202.40 422.70,191.03 424.71,203.53 426.71,203.98 428.71,179.14 430.72,199.88 432.72,202.86 434.72,156.85 436.73,172.14 438.73,203.06 440.73,150.95 442.74,163.35 444.74,137.81 446.74,187.98 448.75,192.70 450.75,196.16 452.75,181.59 454.76,175.70 456.76,97.99 458.76,96.97 460.77,120.15 462.77,164.44 464.77,60.01 466.78,96.06 468.78,67.54 470.78,116.92 472.79,111.58 474.79,132.16 476.79,53.72 478.80,51.18 480.80,104.90 482.80,44.51 484.81,42.02 486.81,48.67 488.81,55.70 490.82,39.25 492.82,36.17 494.82,38.37 496.83,36.48 498.83,38.17 500.83,48.28 502.84,43.03 504.84,53.46 506.84,36.35 508.85,40.06 510.85,77.10 512.85,37.14 514.86,59.99 516.86,42.91 518.86,114.91 520.87,42.75 522.87,36.59 524.87,42.24 526.88,68.83 528.88,114.72 530.88,48.31 532.89,165.35 534.89,108.72 536.89,124.17 538.90,156.17 540.90,177.62 542.90,175.43 544.91,184.22 546.91,147.69 548.91,110.58 550.92,114.29 552.92,180.00 554.92,155.54 556.93,145.58 558.93,160.94 560.93,186.05 562.94,203.95 564.94,201.83 566.94,196.60 568.95,170.98 570.95,202.91 572.95,203.18 574.96,192.96 576.96,202.93 578.96,171.08 580.97,200.49 582.97,182.94 584.97,172.64 586.98,196.24 588.98,188.67 590.98,198.92 592.99,122.93 594.99,195.63 596.99,203.90 599.00,162.34 601.00,182.47 603.01,98.38 605.01,118.88 607.01,156.79 609.02,152.90 611.02,71.12 613.02,61.05 615.03,112.38 617.03,60.90 619.03,53.41 621.04,143.81 623.04,74.94 625.04,50.84 627.05,85.51 629.05,62.67 631.05,61.46 633.06,39.09 635.06,54.83 637.06,75.23 639.07,106.77 641.07,58.58 643.07,40.54 645.08,36.36 647.08,94.13 649.08,90.65 651.09,41.07 653.09,55.61 655.09,50.52 657.10,76.88 659.10,61.92 661.10,37.60 663.11,41.47 665.11,103.32 667.11,36.82 669.12,84.71 671.12,81.77 673.12,37.63 675.13,121.42 677.13,36.01 679.13,156.64 681.14,47.72 683.14,57.92 685.14,45.77 687.15,144.18 689.15,85.29 691.15,129.94 693.16,162.12 695.16,167.02 697.16,63.26 699.17,79.18 701.17,171.49 703.17,202.50 705.18,179.09 707.18,76.43 709.18,172.18 711.19,202.92 713.19,197.04 715.19,146.48 717.20,200.44 719.20,179.12 721.20,192.63 723.21,196.31 725.21,162.85 727.21,203.35 729.22,145.98 731.22,168.18 733.22,203.99 735.23,158.96 737.23,194.58 739.23,179.02 741.24,203.51 743.24,186.86 745.24,173.76 747.25,195.31 749.25,203.80 751.25,118.63 753.26,178.60 755.26,75.35 757.26,139.44 759.27,78.10 761.27,198.34 763.27,146.76 765.28,181.78 767.28,90.61 769.28,184.33 771.29,81.16 773.29,164.91 775.29,103.67 777.30,81.35 779.30,36.33 781.30,77.44 783.31,74.07 785.31,82.30 787.31,160.18 789.32,122.29 791.32,60.57 793.32,79.02 795.33,70.67 797.33,114.70 799.33,93.50 801.34,42.40 803.34,102.58 805.34,86.86 807.35,79.60 809.35,63.94 811.35,74.91 813.36,76.68 815.36,97.42 817.36,36.01 819.37,76.04 821.37,85.59 823.37,42.55 825.38,37.01 827.38,86.82 829.38,41.25 831.39,37.13 833.39,40.25 835.39,50.87 837.40,103.21 839.40,36.25 841.40,184.79 843.41,110.09 845.41,195.62 847.41,188.74 849.42,120.58 851.42,182.91 853.42,150.10 855.43,203.66 857.43,161.62 859.43,75.70 861.44,145.12 863.44,73.24 865.44,177.09 867.45,195.19 869.45,202.96 871.45,203.53 873.46,176.97 875.46,203.25 877.46,161.84 879.47,201.45 881.47,203.96 883.47,167.21 885.48,180.45 887.48,163.97 889.48,188.27 891.49,167.62 893.49,120.08 895.49,167.39 897.50,189.61 899.50,119.16 901.50,202.62 903.51,180.27 905.51,201.59 907.51,118.52 909.52,184.65 911.52,142.04 913.52,104.22 915.53,203.42 917.53,203.98 919.53,80.74 921.54,88.62 923.54,141.79 925.54,139.82 927.55,67.39 929.55,191.78 931.55,195.99 933.56,73.22 935.56,37.23 937.56,107.06 939.57,88.84 941.57,65.89 943.57,49.28 945.58,147.14 947.58,102.96 949.58,67.82 951.59,104.22 953.59,56.23 955.59,73.26 957.60,42.32 959.60,100.22 961.60,58.99 963.61,40.66 965.61,58.98 967.61,50.81 969.62,80.10 971.62,44.21 973.62,36.09 975.63,68.38 977.63,65.27 979.63,132.89 981.64,156.21 983.64,146.12 985.64,70.97 987.65,98.29 989.65,66.85 991.65,138.83 993.66,121.56 995.66,201.12 997.66,72.70 999.67,123.01 1001.67,44.74 1003.67,42.94 1005.68,58.51 1007.68,43.80 1009.68,203.83 1011.69,172.80 1013.69,47.18 1015.69,108.02 1017.70,165.30 1019.70,60.79 1021.70,70.29 1023.71,201.60 1025.71,78.18 1027.71,102.64 1029.72,105.93 1031.72,158.60 1033.72,184.55 1035.73,194.55 1037.73,155.12 1039.73,119.79 1041.74,148.33 1043.74,157.08 1045.74,148.98 1047.75,107.26 1049.75,164.44 1051.75,187.13 1053.76,160.93 1055.76,186.74 1057.76,151.38 1059.77,200.54 1061.77,71.48 1063.77,53.39 1065.78,202.17 1067.78,125.95 1069.78,167.79 1071.79,202.27 1073.79,203.54 1075.79,117.31 1077.80,203.84 1079.80,127.41 1081.80,183.49 1083.81,85.16 1085.81,131.36 1087.81,40.43 1089.82,69.26 1091.82,41.03 1093.82,40.83 1095.83,101.69 1097.83,55.62 1099.83,36.30 1101.84,36.10 1103.84,42.08 1105.84,46.72 1107.85,36.33 1109.85,122.98 1111.85,60.16 1113.86,103.93 1115.86,47.48 1117.86,36.14 1119.87,94.81 1121.87,142.26 1123.87,44.37 1125.88,38.93 1127.88,45.97 1129.88,75.62 1131.89,73.61 1133.89,124.17 1135.89,115.71 1137.90,72.79 1139.90,36.88 1141.90,152.75 1143.91,61.70 1145.91,131.82 1147.91,179.25 1149.92,127.15 1151.92,38.28 1153.92,67.69 1155.93,38.75 1157.93,203.65 1159.93,198.59 1161.94,51.87 1163.94,36.99 1165.94,197.07 1167.95,38.74 1169.95,88.12 1171.95,194.31 1173.96,92.77 1175.96,54.23 1177.96,121.12 1179.97,183.67 1181.97,69.42 1183.97,156.88 1185.98,124.47 1187.98,88.87 1189.98,151.40 1191.99,195.01 1193.99,201.89 1195.99,193.50 1198.00,178.91 1200.00,183.28" fill="none" stroke="black" stroke-width="3" stroke-linecap="round" stroke-linejoin="round"/></svg>