<svg xmlns="http://www.w3.org/2000/svg" viewBox="0 0 1200 240" width="1200" height="240"><rect width="1200" height="240" fill="white"/><polyline points="0.00,120.00 2.00,119.75 4.01,119.02 6.01,117.86 8.01,116.35 10.02,114.62 12.02,112.78 14.02,110.98 16.03,109.39 18.03,108.14 20.03,107.38 22.04,107.22 24.04,107.75 26.04,109.03 28.05,111.08 30.05,113.88 32.05,117.36 34.06,121.41 36.06,125.89 38.06,130.62 40.07,135.41 42.07,140.03 44.07,144.26 46.08,147.88 48.08,150.68 50.08,152.46 52.09,153.10 54.09,152.46 56.09,150.50 58.10,147.21 60.10,142.64 62.10,136.90 64.11,130.16 66.11,122.64 68.11,114.59 70.12,106.30 72.12,98.10 74.12,90.31 76.13,83.26 78.13,77.25 80.13,72.58 82.14,69.46 84.14,68.11 86.14,68.62 88.15,71.07 90.15,75.43 92.15,81.60 94.16,89.41 96.16,98.62 98.16,108.94 100.17,120.00 102.17,131.42 104.17,142.77 106.18,153.62 108.18,163.56 110.18,172.19 112.19,179.15 114.19,184.13 116.19,186.90 118.20,187.31 120.20,185.27 122.20,180.82 124.21,174.06 126.21,165.20 128.21,154.51 130.22,142.35 132.22,129.15 134.22,115.37 136.23,101.51 138.23,88.08 140.23,75.57 142.24,64.46 144.24,55.19 146.24,48.11 148.25,43.52 150.25,41.62 152.25,42.52 154.26,46.21 156.26,52.61 158.26,61.49 160.27,72.58 162.27,85.48 164.27,99.74 166.28,114.86 168.28,130.30 170.28,145.49 172.29,159.89 174.29,172.95 176.29,184.21 178.30,193.23 180.30,199.69 182.30,203.33 184.31,204.00 186.31,201.67 188.31,196.42 190.32,188.42 192.32,177.96 194.32,165.41 196.33,151.21 198.33,135.89 200.33,120.00 202.34,104.11 204.34,88.79 206.34,74.59 208.35,62.04 210.35,51.58 212.35,43.58 214.36,38.33 216.36,36.00 218.36,36.67 220.37,40.31 222.37,46.77 224.37,55.79 226.38,67.05 228.38,80.11 230.38,94.51 232.39,109.70 234.39,125.14 236.39,140.26 238.40,154.52 240.40,167.42 242.40,178.51 244.41,187.39 246.41,193.79 248.41,197.48 250.42,198.38 252.42,196.48 254.42,191.89 256.43,184.81 258.43,175.54 260.43,164.43 262.44,151.92 264.44,138.49 266.44,124.63 268.45,110.85 270.45,97.65 272.45,85.49 274.46,74.80 276.46,65.94 278.46,59.18 280.47,54.73 282.47,52.69 284.47,53.10 286.48,55.87 288.48,60.85 290.48,67.81 292.49,76.44 294.49,86.38 296.49,97.23 298.50,108.58 300.50,120.00 302.50,131.06 304.51,141.38 306.51,150.59 308.51,158.40 310.52,164.57 312.52,168.93 314.52,171.38 316.53,171.89 318.53,170.54 320.53,167.42 322.54,162.75 324.54,156.74 326.54,149.69 328.55,141.90 330.55,133.70 332.55,125.41 334.56,117.36 336.56,109.84 338.56,103.10 340.57,97.36 342.57,92.79 344.57,89.50 346.58,87.54 348.58,86.90 350.58,87.54 352.59,89.32 354.59,92.12 356.59,95.74 358.60,99.97 360.60,104.59 362.60,109.38 364.61,114.11 366.61,118.59 368.61,122.64 370.62,126.12 372.62,128.92 374.62,130.97 376.63,132.25 378.63,132.78 380.63,132.62 382.64,131.86 384.64,130.61 386.64,129.02 388.65,127.22 390.65,125.38 392.65,123.65 394.66,122.14 396.66,120.98 398.66,120.25 400.67,120.00 402.67,120.25 404.67,120.98 406.68,122.14 408.68,123.65 410.68,125.38 412.69,127.22 414.69,129.02 416.69,130.61 418.70,131.86 420.70,132.62 422.70,132.78 424.71,132.25 426.71,130.97 428.71,128.92 430.72,126.12 432.72,122.64 434.72,118.59 436.73,114.11 438.73,109.38 440.73,104.59 442.74,99.97 444.74,95.74 446.74,92.12 448.75,89.32 450.75,87.54 452.75,86.90 454.76,87.54 456.76,89.50 458.76,92.79 460.77,97.36 462.77,103.10 464.77,109.84 466.78,117.36 468.78,125.41 470.78,133.70 472.79,141.90 474.79,149.69 476.79,156.74 478.80,162.75 480.80,167.42 482.80,170.54 484.81,171.89 486.81,171.38 488.81,168.93 490.82,164.57 492.82,158.40 494.82,150.59 496.83,141.38 498.83,131.06 500.83,120.00 502.84,108.58 504.84,97.23 506.84,86.38 508.85,76.44 510.85,67.81 512.85,60.85 514.86,55.87 516.86,53.10 518.86,52.69 520.87,54.73 522.87,59.18 524.87,65.94 526.88,74.80 528.88,85.49 530.88,97.65 532.89,110.85 534.89,124.63 536.89,138.49 538.90,151.92 540.90,164.43 542.90,175.54 544.91,184.81 546.91,191.89 548.91,196.48 550.92,198.38 552.92,197.48 554.92,193.79 556.93,187.39 558.93,178.51 560.93,167.42 562.94,154.52 564.94,140.26 566.94,125.14 568.95,109.70 570.95,94.51 572.95,80.11 574.96,67.05 576.96,55.79 578.96,46.77 580.97,40.31 582.97,36.67 584.97,36.00 586.98,38.33 588.98,43.58 590.98,51.58 592.99,62.04 594.99,74.59 596.99,88.79 599.00,104.11 601.00,120.00 603.01,135.89 605.01,151.21 607.01,165.41 609.02,177.96 611.02,188.42 613.02,196.42 615.03,201.67 617.03,204.00 619.03,203.33 621.04,199.69 623.04,193.23 625.04,184.21 627.05,172.95 629.05,159.89 631.05,145.49 633.06,130.30 635.06,114.86 637.06,99.74 639.07,85.48 641.07,72.58 643.07,61.49 645.08,52.61 647.08,46.21 649.08,42.52 651.09,41.62 653.09,43.52 655.09,48.11 657.10,55.19 659.10,64.46 661.10,75.57 663.11,88.08 665.11,101.51 667.11,115.37 669.12,129.15 671.12,142.35 673.12,154.51 675.13,165.20 677.13,174.06 679.13,180.82 681.14,185.27 683.14,187.31 685.14,186.90 687.15,184.13 689.15,179.15 691.15,172.19 693.16,163.56 695.16,153.62 697.16,142.77 699.17,131.42 701.17,120.00 703.17,108.94 705.18,98.62 707.18,89.41 709.18,81.60 711.19,75.43 713.19,71.07 715.19,68.62 717.20,68.11 719.20,69.46 721.20,72.58 723.21,77.25 725.21,83.26 727.21,90.31 729.22,98.10 731.22,106.30 733.22,114.59 735.23,122.64 737.23,130.16 739.23,136.90 741.24,142.64 743.24,147.21 745.24,150.50 747.25,152.46 749.25,153.10 751.25,152.46 753.26,150.68 755.26,147.88 757.26,144.26 759.27,140.03 761.27,135.41 763.27,130.62 765.28,125.89 767.28,121.41 769.28,117.36 771.29,113.88 773.29,111.08 775.29,109.03 777.30,107.75 779.30,107.22 781.30,107.38 783.31,108.14 785.31,109.39 787.31,110.98 789.32,112.78 791.32,114.62 793.32,116.35 795.33,117.86 797.33,119.02 799.33,119.75 801.34,120.00 803.34,119.75 805.34,119.02 807.35,117.86 809.35,116.35 811.35,114.62 813.36,112.78 815.36,110.98 817.36,109.39 819.37,108.14 821.37,107.38 823.37,107.22 825.38,107.75 827.38,109.03 829.38,111.08 831.39,113.88 833.39,117.36 835.39,121.41 837.40,125.89 839.40,130.62 841.40,135.41 843.41,140.03 845.41,144.26 847.41,147.88 849.42,150.68 851.42,152.46 853.42,153.10 855.43,152.46 857.43,150.50 859.43,147.21 861.44,142.64 863.44,136.90 865.44,130.16 867.45,122.64 869.45,114.59 871.45,106.30 873.46,98.10 875.46,90.31 877.46,83.26 879.47,77.25 881.47,72.58 883.47,69.46 885.48,68.11 887.48,68.62 889.48,71.07 891.49,75.43 893.49,81.60 895.49,89.41 897.50,98.62 899.50,108.94 901.50,120.00 903.51,131.42 905.51,142.77 907.51,153.62 909.52,163.56 911.52,172.19 913.52,179.15 915.53,184.13 917.53,186.90 919.53,187.31 921.54,185.27 923.54,180.82 925.54,174.06 927.55,165.20 929.55,154.51 931.55,142.35 933.56,129.15 935.56,115.37 937.56,101.51 939.57,88.08 941.57,75.57 943.57,64.46 945.58,55.19 947.58,48.11 949.58,43.52 951.59,41.62 953.59,42.52 955.59,46.21 957.60,52.61 959.60,61.49 961.60,72.58 963.61,85.48 965.61,99.74 967.61,114.86 969.62,130.30 971.62,145.49 973.62,159.89 975.63,172.95 977.63,184.21 979.63,193.23 981.64,199.69 983.64,203.33 985.64,204.00 987.65,201.67 989.65,196.42 991.65,188.42 993.66,177.96 995.66,165.41 997.66,151.21 999.67,135.89 1001.67,120.00 1003.67,104.11 1005.68,88.79 1007.68,74.59 1009.68,62.04 1011.69,51.58 1013.69,43.58 1015.69,38.33 1017.70,36.00 1019.70,36.67 1021.70,40.31 1023.71,46.77 1025.71,55.79 1027.71,67.05 1029.72,80.11 1031.72,94.51 1033.72,109.70 1035.73,125.14 1037.73,140.26 1039.73,154.52 1041.74,167.42 1043.74,178.51 1045.74,187.39 1047.75,193.79 1049.75,197.48 1051.75,198.38 1053.76,196.48 1055.76,191.89 1057.76,184.81 1059.77,175.54 1061.77,164.43 1063.77,151.92 1065.78,138.49 1067.78,124.63 1069.78,110.85 1071.79,97.65 1073.79,85.49 1075.79,74.80 1077.80,65.94 1079.80,59.18 1081.80,54.73 1083.81,52.69 1085.81,53.10 1087.81,55.87 1089.82,60.85 1091.82,67.81 1093.82,76.44 1095.83,86.38 1097.83,97.23 1099.83,108.58 1101.84,120.00 1103.84,131.06 1105.84,141.38 1107.85,150.59 1109.85,158.40 1111.85,164.57 1113.86,168.93 1115.86,171.38 1117.86,171.89 1119.87,170.54 1121.87,167.42 1123.87,162.75 1125.88,156.74 1127.88,149.69 1129.88,141.90 1131.89,133.70 1133.89,125.41 1135.89,117.36 1137.90,109.84 1139.90,103.10 1141.90,97.36 1143.91,92.79 1145.91,89.50 1147.91,87.54 1149.92,86.90 1151.92,87.54 1153.92,89.32 1155.93,92.12 1157.93,95.74 1159.93,99.97 1161.94,104.59 1163.94,109.38 1165.94,114.11 1167.95,118.59 1169.95,122.64 1171.95,126.12 1173.96,128.92 1175.96,130.97 1177.96,132.25 1179.97,132.78 1181.97,132.62 1183.97,131.86 1185.98,130.61 1187.98,129.02 1189.98,127.22 1191.99,125.38 1193.99,123.65 1195.99,122.14 1198.00,120.98 1200.00,120.25" fill="none" stroke="black" stroke-width="3" stroke-linecap="round" stroke-linejoin="round"/></svg>